<svg width="776" height="439" viewBox="0 0 776 439" fill="none" xmlns="http://www.w3.org/2000/svg">
<path d="M328.677 42.5784C323.936 42.5541 320.019 46.2529 320.31 50.9097C320.614 55.7605 323.281 58.7317 328.277 59.0591C332.994 59.3623 336.838 55.6999 336.947 51.0067C337.068 46.2893 333.455 42.6026 328.677 42.5784Z" fill="white"/>
<path d="M216.076 39.6194C216.221 43.973 220.186 47.6111 224.491 47.3443C228.953 47.0775 232.385 43.2453 231.937 38.7705C231.476 34.0288 228.565 31.5427 223.945 31.3851C219.568 31.2396 215.918 35.2415 216.076 39.6194Z" fill="white"/>
<path d="M282.174 61.3389C282.526 66.1897 285.06 68.9305 289.741 69.3307C294.13 69.7066 297.95 65.8866 297.962 61.4723C297.962 56.9732 294.312 53.3835 289.777 53.6503C284.963 53.9414 282.611 56.7912 282.174 61.3389Z" fill="white"/>
<path d="M301.478 55.53C301.393 60.0777 304.838 63.7037 309.324 63.4854C314.053 63.255 316.636 60.5142 316.939 55.8817C317.23 51.4432 313.507 47.7929 309.081 47.8657C304.898 47.9263 301.563 51.2977 301.478 55.53Z" fill="white"/>
<path d="M143.78 121.247C148.23 120.798 151.165 118.554 151.541 113.801C151.892 109.314 148.4 105.7 143.889 105.639C139.463 105.578 135.595 109.253 135.947 113.594C136.298 118.203 139.039 120.762 143.78 121.247Z" fill="white"/>
<path d="M244.766 75.4549C245.275 79.9176 247.421 82.9737 252.259 83.1556C257.049 83.3254 259.766 80.6331 260.287 76.0127C260.784 71.6106 257.074 67.7542 252.611 67.8755C247.834 68.0089 245.409 70.7738 244.766 75.4549Z" fill="white"/>
<path d="M176.533 98.3022C180.959 97.7929 183.978 95.6222 184.293 90.8077C184.596 86.2722 181.043 82.6219 176.496 82.7917C171.682 82.9736 168.99 85.8841 168.917 90.4439C168.844 95.1007 171.816 97.6716 176.533 98.3022Z" fill="white"/>
<path d="M152.208 101.249C152.475 106.161 155.009 108.901 159.629 109.374C164.006 109.823 167.717 106.039 167.535 101.467C167.341 96.6894 164.673 93.9608 159.956 93.9244C155.179 93.888 152.778 96.8349 152.208 101.249Z" fill="white"/>
<path d="M453.296 70.3978C457.649 69.6944 460.644 67.2812 460.462 62.4667C460.281 57.7493 457.419 55.1298 452.653 55.0692C448.47 55.0207 444.99 58.7679 445.111 62.9033C445.22 66.9416 449.04 70.5312 453.296 70.3978Z" fill="white"/>
<path d="M306.414 77.383C306.79 82.0155 309.203 84.8411 313.896 85.2413C318.225 85.6051 322.178 81.7124 321.862 77.3224C321.535 72.6777 318.855 69.7551 314.15 69.7793C309.482 69.8157 306.936 72.7019 306.414 77.383Z" fill="white"/>
<path d="M316.102 29.2749C316.224 33.5194 319.849 37.0605 324.033 36.6118C328.386 36.151 331.03 33.6891 331.139 29.093C331.236 24.7515 327.816 21.3559 323.56 21.4166C319.292 21.4772 315.993 24.9577 316.102 29.2749Z" fill="white"/>
<path d="M279.531 10.0536C275.117 10.6599 272.412 13.1945 272.497 17.9604C272.582 22.7749 275.505 25.2973 280.113 25.5398C284.502 25.7703 288.188 21.7441 287.752 17.3298C287.279 12.6488 284.502 10.2234 279.531 10.0536Z" fill="white"/>
<path d="M255.23 53.626C254.685 48.6176 252.053 45.7071 247.373 45.8162C242.753 45.9253 239.83 48.7873 239.952 53.5775C240.073 58.3071 242.898 61.0963 247.639 61.0478C252.477 61.0114 254.697 57.8705 255.23 53.626Z" fill="white"/>
<path d="M296.749 33.6771C296.919 38.3945 300.593 41.8871 304.704 41.4142C309.021 40.917 311.604 38.3824 311.713 33.8954C311.822 29.6873 308.245 26.0977 304.086 26.4008C299.405 26.7404 296.956 29.5054 296.749 33.6771Z" fill="white"/>
<path d="M90.935 153.662C91.3958 157.822 95.3492 160.975 99.4599 160.429C103.619 159.884 106.65 155.942 105.935 151.734C105.171 147.259 102.237 145.113 97.8471 145.283C93.6636 145.452 90.4742 149.527 90.935 153.662Z" fill="white"/>
<path d="M112.12 163.388C112.132 167.633 115.672 171.15 119.832 171.04C124.003 170.931 127.495 167.281 127.204 163.073C126.889 158.574 124.209 156.112 119.82 155.797C115.636 155.494 112.095 159.144 112.12 163.388Z" fill="white"/>
<path d="M211.055 63.0488C206.617 63.4975 204.095 65.9472 203.828 70.3493C203.586 74.4847 207.296 78.0258 211.431 77.9288C215.602 77.8317 218.877 74.2543 218.549 69.9734C218.21 65.4258 215.457 63.3278 211.055 63.0488Z" fill="white"/>
<path d="M425.333 61.9816C425.333 66.2625 428.802 69.8157 433.034 69.5247C437.411 69.2094 440.115 66.8446 440.321 62.2484C440.515 57.8463 437.278 54.4144 432.998 54.3416C428.778 54.281 425.321 57.7129 425.333 61.9816Z" fill="white"/>
<path d="M186.306 80.912C186.67 84.8776 189.253 87.3273 193.679 87.5941C197.862 87.8366 201.451 84.0893 201.185 79.857C200.894 75.3215 198.239 72.8718 193.788 72.6535C189.435 72.4473 186.149 75.9642 186.306 80.912Z" fill="white"/>
<path d="M79.9854 233.07C80.046 237.812 83.6713 241.341 87.8306 240.941C92.2444 240.528 94.7303 237.945 94.8273 233.458C94.9122 229.226 91.2505 225.721 87.0792 226.122C82.6653 226.558 80.3976 229.287 79.9854 233.07Z" fill="white"/>
<path d="M326.192 73.7328C326.895 77.5285 329.49 79.9539 333.879 79.9903C338.111 80.0146 341.277 76.2552 340.864 71.938C340.428 67.3903 337.578 65.1711 333.249 65.1104C329.09 65.0619 325.792 69.0396 326.192 73.7328Z" fill="white"/>
<path d="M352.262 61.1449C348.528 61.5936 346.029 64.1524 345.738 68.4939C345.447 72.702 349.097 76.0369 353.414 75.9278C357.707 75.8186 360.932 72.2775 360.629 68.0331C360.338 64.1039 356.882 60.9872 352.262 61.1449Z" fill="white"/>
<path d="M383.002 26.9102C387.404 26.2553 390.095 23.9633 390.241 19.4399C390.374 15.2197 386.664 11.7392 382.432 12.1637C377.982 12.6124 375.484 15.2439 375.641 19.7673C375.811 24.3756 378.782 26.4009 383.002 26.9102Z" fill="white"/>
<path d="M142.459 136.818C142.64 141.293 145.029 144.082 149.419 144.312C153.82 144.543 156.61 142.008 157.107 137.545C157.58 133.374 154.063 129.542 149.88 129.675C145.43 129.833 142.931 132.307 142.459 136.818Z" fill="white"/>
<path d="M226.977 84.3682C227.498 88.2731 229.827 90.9532 234.289 91.2079C238.436 91.4504 241.916 87.7274 241.601 83.4587C241.261 78.9353 238.654 76.5826 234.119 76.5948C230.081 76.6069 226.904 79.954 226.977 84.3682Z" fill="white"/>
<path d="M348.224 54.1718C352.468 53.7958 355.269 51.6614 355.439 47.0653C355.609 42.4934 353.026 39.9346 348.636 39.4495C344.526 38.9887 340.573 42.6995 340.827 46.7985C341.106 51.1764 343.58 53.7473 348.224 54.1718Z" fill="white"/>
<path d="M67.8716 231.045C71.6913 230.633 74.1897 228.195 74.3958 223.745C74.5898 219.488 71.0366 216.02 66.8046 216.274C62.2938 216.553 59.8929 219.27 59.5776 223.587C59.2745 227.747 62.9727 231.154 67.8716 231.045Z" fill="white"/>
<path d="M84.6418 192.129C85.1632 196.774 87.443 199.551 92.0145 199.527C96.5375 199.503 99.2172 196.811 99.2172 192.323C99.2294 187.8 96.428 185.132 92.002 185.096C87.5033 185.084 85.1996 187.958 84.6418 192.129Z" fill="white"/>
<path d="M258.165 104.996C262.227 104.681 264.907 102.183 264.967 97.7807C265.028 93.3665 262.385 90.6864 257.935 90.3226C253.751 89.983 250.246 93.6333 250.368 97.8656C250.477 101.94 253.654 105.021 258.165 104.996Z" fill="white"/>
<path d="M236.471 60.9872C235.441 56.3668 232.761 53.9172 228.262 54.475C224.078 54.9965 221.714 57.8585 222.066 62.0544C222.442 66.4929 225.255 69.0396 229.839 68.6394C234.459 68.2271 236.35 65.1711 236.471 60.9872Z" fill="white"/>
<path d="M134.419 157.264C138.845 156.791 141.513 154.511 141.755 150C141.985 145.804 138.287 142.117 134.128 142.53C129.75 142.954 127.07 145.489 127.167 150.036C127.276 154.572 130.042 156.815 134.419 157.264Z" fill="white"/>
<path d="M180.534 136.393C180.923 140.783 183.13 143.609 187.725 143.706C192.018 143.803 194.649 141.268 194.94 137.109C195.255 132.598 192.66 129.675 188.198 129.42C183.699 129.166 181.177 131.882 180.534 136.393Z" fill="white"/>
<path d="M283.484 89.9588C282.817 85.5567 280.549 82.7068 275.929 82.913C271.37 83.1191 268.884 85.9569 269.066 90.4681C269.235 94.749 272 97.2108 276.16 97.2108C280.67 97.2229 283.023 94.3973 283.484 89.9588Z" fill="white"/>
<path d="M79.6942 200.424C74.8559 200.8 72.1276 203.177 72.0669 207.701C72.0063 211.933 74.5406 214.649 78.7119 214.868C83.1743 215.11 86.0603 212.612 86.2907 208.052C86.5211 203.444 83.6958 201.164 79.6942 200.424Z" fill="white"/>
<path d="M202.749 148.654C203.44 153.032 205.635 155.906 210.267 155.748C214.814 155.59 217.36 152.838 217.275 148.375C217.19 143.876 214.377 141.232 209.927 141.305C205.404 141.365 203.209 144.349 202.749 148.654Z" fill="white"/>
<path d="M126.525 180.778C121.965 181.215 119.334 183.677 119.455 188.152C119.577 192.651 122.378 195.149 126.864 194.979C131.06 194.822 133.534 192.251 133.546 188.03C133.57 183.495 130.866 181.203 126.525 180.778Z" fill="white"/>
<path d="M232.276 105.87C232.761 110.49 234.968 113.316 239.6 113.267C244.244 113.219 246.681 110.344 246.621 105.906C246.56 101.698 243.892 99.042 239.733 98.9329C235.246 98.8358 232.846 101.637 232.276 105.87Z" fill="white"/>
<path d="M165.474 132.137C169.936 131.858 172.81 129.457 172.907 125.018C172.992 120.968 170.664 118.081 166.311 117.827C161.788 117.572 158.938 119.84 158.647 124.448C158.344 129.105 161.06 131.446 165.474 132.137Z" fill="white"/>
<path d="M255.521 119.84C256.006 124.169 258.201 126.934 262.858 126.898C267.526 126.861 269.988 124.012 269.927 119.609C269.867 115.45 267.235 112.782 263.015 112.709C258.504 112.624 256.006 115.244 255.521 119.84Z" fill="white"/>
<path d="M113.308 146.241C117.637 145.804 120.195 143.391 120.135 138.807C120.074 134.441 117.273 131.943 113.247 131.858C108.857 131.761 105.875 134.489 105.862 138.989C105.85 143.403 108.506 145.974 113.308 146.241Z" fill="white"/>
<path d="M214.499 115.656C215.19 120.082 217.676 122.847 222.066 122.665C226.382 122.484 229.171 119.719 228.965 115.244C228.759 110.854 226.116 108.234 221.568 108.368C216.985 108.513 214.96 111.436 214.499 115.656Z" fill="white"/>
<path d="M71.4246 174.945C66.9865 175.43 64.1248 177.625 64.1733 182.258C64.234 186.83 67.0106 189.425 71.485 189.389C75.7291 189.352 78.3241 186.612 78.4575 182.488C78.5909 178.026 75.8991 175.491 71.4246 174.945Z" fill="white"/>
<path d="M98.0652 176.886C98.5624 181.7 100.721 184.635 105.269 184.756C109.755 184.877 112.519 182.343 112.689 177.783C112.859 173.187 110.143 170.543 105.729 170.325C101.182 170.119 98.9625 173.102 98.0652 176.886Z" fill="white"/>
<path d="M517.224 87.1453C513.271 87.594 510.397 89.4252 510.191 93.8516C509.973 98.4962 512.495 101.201 517.018 101.358C521.638 101.516 524.258 98.666 524.245 94.2032C524.233 90.0073 521.59 87.6425 517.224 87.1453Z" fill="white"/>
<path d="M405.702 62.115C406.041 66.6627 408.527 69.3064 412.941 69.2822C417.028 69.2579 419.731 66.8204 419.853 62.5395C419.986 58.0525 417.549 55.2511 413.038 55.1298C408.527 55.0086 406.199 57.7493 405.702 62.115Z" fill="white"/>
<path d="M227.304 130.888C222.672 131.239 219.992 133.725 220.052 138.212C220.125 142.712 222.866 145.319 227.425 145.173C231.645 145.04 234.143 142.578 234.228 138.273C234.325 133.641 231.645 131.361 227.304 130.888Z" fill="white"/>
<path d="M100.078 224.921C104.262 224.302 106.881 222.01 106.76 217.439C106.639 213.121 103.91 210.684 99.8965 210.611C95.5311 210.538 92.6571 213.267 92.6813 217.718C92.6934 222.132 95.3976 224.594 100.078 224.921Z" fill="white"/>
<path d="M288.395 112.103C287.959 107.883 285.751 105.13 281.532 104.996C277.033 104.851 274.207 107.495 274.159 112.03C274.11 116.238 276.693 118.943 280.889 119.125C285.448 119.306 287.813 116.493 288.395 112.103Z" fill="white"/>
<path d="M232.373 168.033C237.199 167.439 239.891 164.916 239.673 160.49C239.454 156.112 236.532 153.42 232.106 153.699C228.056 153.953 225.449 156.597 225.485 160.829C225.521 165.413 228.432 167.499 232.373 168.033Z" fill="white"/>
<path d="M285.17 46.7016C289.499 46.2165 292.166 43.8639 292.045 39.3283C291.936 35.0475 289.171 32.6221 285.072 32.6221C280.586 32.6221 277.918 35.4477 278.064 39.9105C278.209 44.0337 280.816 46.3742 285.17 46.7016Z" fill="white"/>
<path d="M299.854 98.1324C295.392 98.6539 292.809 101.104 293.087 105.651C293.342 109.847 295.925 112.273 300.194 112.127C304.777 111.982 307.166 109.204 306.96 104.717C306.753 100.449 304.037 98.375 299.854 98.1324Z" fill="white"/>
<path d="M410.758 84.3682C411.219 88.7825 413.547 91.4747 418.094 91.3898C422.363 91.3049 424.764 88.6127 424.812 84.4531C424.861 80.245 422.387 77.5407 418.191 77.3952C413.741 77.2254 411.219 79.8206 410.758 84.3682Z" fill="white"/>
<path d="M204.277 132.683C208.618 132.428 211.091 130.148 211.54 125.988C211.964 122.035 208.484 118.445 204.47 118.7C200.275 118.955 197.656 121.344 197.644 125.6C197.644 129.808 200.202 132.125 204.277 132.683Z" fill="white"/>
<path d="M536.65 106.342C540.979 105.93 543.501 103.577 543.525 99.3936C543.55 94.9066 540.918 92.1659 536.383 92.3114C531.921 92.457 529.387 95.1734 529.629 99.7453C529.872 104.075 532.636 106.003 536.65 106.342Z" fill="white"/>
<path d="M147.927 173.793C147.382 169.585 145.017 167.014 140.809 167.087C136.626 167.148 133.958 169.755 133.982 173.987C134.007 178.486 136.723 181.179 141.282 180.973C145.538 180.754 147.636 177.977 147.927 173.793Z" fill="white"/>
<path d="M175.223 113.789C175.708 117.936 178.036 120.507 182.28 120.398C186.451 120.301 189.095 117.827 189.071 113.522C189.047 108.913 186.221 106.355 181.795 106.537C177.636 106.706 175.368 109.435 175.223 113.789Z" fill="white"/>
<path d="M156.185 167.936C160.344 167.366 162.891 165.062 162.891 160.854C162.891 156.306 160.089 153.614 155.688 153.796C151.335 153.978 148.691 156.755 148.994 161.363C149.285 165.656 152.099 167.56 156.185 167.936Z" fill="white"/>
<path d="M164.516 148.047C164.77 152.692 167.208 155.457 171.609 155.445C175.987 155.433 178.715 152.668 178.642 148.181C178.57 144.033 176.071 141.378 171.9 141.232C167.389 141.074 165.013 143.754 164.516 148.047Z" fill="white"/>
<path d="M288.031 83.5678C288.613 87.6668 290.784 90.3347 295.1 90.2256C299.672 90.1043 302.158 87.3272 301.903 82.8159C301.66 78.5472 298.932 76.2916 294.676 76.4735C290.347 76.6554 288.334 79.3718 288.031 83.5678Z" fill="white"/>
<path d="M112.883 209.423C117.14 209.071 119.698 206.658 119.637 202.462C119.577 198.302 117.055 195.646 112.702 195.695C108.348 195.731 105.862 198.472 105.887 202.595C105.911 206.743 108.506 209.168 112.883 209.423Z" fill="white"/>
<path d="M469.642 18.6395C469.29 14.4556 466.999 11.9089 462.791 11.8847C458.85 11.8726 456.352 14.3101 456.17 18.2272C455.976 22.4474 458.45 25.176 462.645 25.3215C466.804 25.4428 469.23 22.9446 469.642 18.6395Z" fill="white"/>
<path d="M259.099 45.7435C259.317 50.4367 261.73 53.1289 266.193 53.1411C270.34 53.1532 273.031 50.6186 273.104 46.3863C273.177 41.9114 270.667 39.1949 266.083 39.1828C261.815 39.1707 259.62 41.7537 259.099 45.7435Z" fill="white"/>
<path d="M388.046 48.2295C392.472 47.7929 394.922 45.222 394.704 41.0503C394.485 36.8664 391.684 34.344 387.404 34.6229C383.439 34.8897 381.05 37.4728 381.135 41.4504C381.232 45.7071 383.766 48.0354 388.046 48.2295Z" fill="white"/>
<path d="M338.329 101.298C342.525 100.982 345.241 98.8602 345.375 94.5793C345.52 90.3227 343.058 87.6548 338.79 87.5214C334.558 87.388 331.903 89.7406 331.757 94.1064C331.612 98.46 334.146 100.667 338.329 101.298Z" fill="white"/>
<path d="M395.928 17.6814C396.219 21.8289 398.183 24.606 402.549 24.7758C406.853 24.9455 409.473 22.4959 409.679 18.2757C409.885 14.0433 407.52 11.3875 403.179 11.1813C398.814 10.9752 396.546 13.4612 395.928 17.6814Z" fill="white"/>
<path d="M68.915 249.697C69.485 254.232 71.7035 256.779 76.0325 256.694C80.3493 256.621 82.7747 254.111 82.6899 249.794C82.605 245.476 80.0465 243.027 75.7903 243.063C71.4614 243.1 69.4607 245.937 68.915 249.697Z" fill="white"/>
<path d="M162.188 177.892C157.919 178.474 155.324 180.851 155.47 185.096C155.603 189.025 158.174 191.559 162.115 191.596C166.335 191.632 169.027 189.085 169.039 184.805C169.051 180.512 166.323 178.329 162.188 177.892Z" fill="white"/>
<path d="M473.11 57.3369C468.526 57.7856 465.931 60.1504 465.98 64.3585C466.028 68.506 468.441 71.1618 472.855 71.1133C477.245 71.0769 479.67 68.4696 479.682 64.2857C479.695 60.0413 476.941 57.8584 473.11 57.3369Z" fill="white"/>
<path d="M107.997 250.412C112.229 250.036 114.812 247.635 114.775 243.439C114.739 239.255 112.216 236.648 107.863 236.66C103.498 236.684 101 239.364 101.025 243.524C101.037 247.683 103.62 250.109 107.997 250.412Z" fill="white"/>
<path d="M421.029 39.7406C421.708 43.9972 424.024 46.6166 428.256 46.3377C432.439 46.0709 434.828 43.2696 434.5 39.0615C434.209 35.2051 431.821 32.8888 427.734 32.9737C423.296 33.0586 421.477 35.8235 421.029 39.7406Z" fill="white"/>
<path d="M370.039 21.5621C369.433 17.0508 366.983 14.589 362.424 14.9164C358.156 15.2317 355.973 17.8876 356.118 22.1078C356.264 26.4008 358.798 28.7535 363.006 28.7413C367.614 28.7292 369.796 25.9763 370.039 21.5621Z" fill="white"/>
<path d="M343.616 18.1544C339.312 18.397 336.62 20.4949 336.535 24.8607C336.45 29.2143 339.057 31.7125 343.277 31.7852C347.242 31.8459 349.801 29.3598 350.031 25.4428C350.286 21.1741 347.788 18.7486 343.616 18.1544Z" fill="white"/>
<path d="M137.681 96.8106C142.277 96.3255 144.739 93.985 144.605 89.6556C144.484 85.6416 142.047 83.1919 138.057 83.1313C133.777 83.0585 131.121 85.6537 131.072 89.8739C131.024 94.1548 133.801 96.3376 137.681 96.8106Z" fill="white"/>
<path d="M200.324 159.435C199.826 155.263 197.438 152.85 193.121 153.092C189.119 153.311 186.743 155.845 186.767 159.811C186.791 164.092 189.386 166.65 193.667 166.59C197.996 166.529 200.166 163.873 200.324 159.435Z" fill="white"/>
<path d="M457.903 78.62C453.696 79.1293 451.077 81.385 451.222 85.6659C451.356 89.595 453.842 92.0325 457.831 92.0083C461.736 91.984 464.27 89.8133 464.428 85.7143C464.597 81.2758 462.002 79.2021 457.903 78.62Z" fill="white"/>
<path d="M89.3712 259.859C89.6864 264.213 92.1965 266.65 96.3679 266.541C100.515 266.444 103.134 263.958 103.025 259.568C102.916 255.214 100.224 252.789 96.089 252.85C91.9055 252.91 89.5894 255.554 89.3712 259.859Z" fill="white"/>
<path d="M244.947 135.314C249.167 134.962 251.592 132.513 251.471 128.28C251.362 124.375 249.034 121.829 244.947 121.744C240.558 121.647 237.999 124.327 237.926 128.438C237.866 132.585 240.424 135.084 244.947 135.314Z" fill="white"/>
<path d="M318.94 106.161C323.184 105.845 325.852 103.638 325.925 99.3573C325.985 95.4281 323.718 92.8087 319.667 92.554C315.363 92.2872 312.671 94.5914 312.429 98.9208C312.186 103.25 314.696 105.566 318.94 106.161Z" fill="white"/>
<path d="M317.206 121.174C317.679 125.382 319.874 127.977 324.203 127.892C328.483 127.807 330.969 125.249 330.921 120.992C330.872 116.723 328.326 114.249 324.021 114.286C319.692 114.322 317.558 116.954 317.206 121.174Z" fill="white"/>
<path d="M206.132 183.434C205.829 179.044 203.428 176.546 199.232 176.595C195.304 176.631 192.842 179.166 192.769 183.119C192.696 187.072 194.989 189.619 198.99 189.837C203.307 190.056 205.611 187.594 206.132 183.434Z" fill="white"/>
<path d="M208.909 171.332C209.273 175.491 211.443 178.232 215.675 178.268C219.555 178.292 222.15 175.903 222.296 171.914C222.441 168.009 220.38 165.389 216.281 165.062C211.892 164.71 209.685 167.208 208.909 171.332Z" fill="white"/>
<path d="M270.788 74.7272C275.347 74.4847 277.809 72.1927 277.76 67.8997C277.712 63.8977 275.177 61.436 271.297 61.3996C267.089 61.3511 264.458 63.9827 264.531 68.2271C264.579 72.1199 266.98 74.3998 270.788 74.7272Z" fill="white"/>
<path d="M541.052 130.584C545.078 130.342 547.6 128.317 547.819 124.327C548.049 119.998 545.417 117.342 541.307 117.281C537.184 117.208 534.504 119.779 534.589 124.133C534.674 128.123 537.123 130.221 541.052 130.584Z" fill="white"/>
<path d="M492.657 73.5024C496.671 73.0779 499.156 70.9436 499.156 66.9053C499.156 62.8427 496.562 60.3809 492.645 60.393C488.765 60.4172 486.158 62.8184 486.158 66.9174C486.17 71.0284 488.728 73.0415 492.657 73.5024Z" fill="white"/>
<path d="M447.464 46.847C452.011 46.4226 454.606 44.2761 454.533 39.9588C454.46 35.678 451.829 33.2647 447.634 33.3496C443.705 33.4345 441.316 35.9084 441.183 39.8376C441.061 44.1548 443.717 46.2528 447.464 46.847Z" fill="white"/>
<path d="M555.882 98.4963C551.541 98.7995 549.055 101.079 549.092 105.36C549.128 109.386 551.687 111.763 555.579 111.824C559.447 111.885 562.127 109.605 562.321 105.603C562.539 101.346 560.078 98.9935 555.882 98.4963Z" fill="white"/>
<path d="M113.684 227.965C114.181 231.833 116.206 234.38 120.232 234.429C124.549 234.477 127.107 231.846 127.034 227.674C126.962 223.49 124.282 220.968 119.977 221.186C115.964 221.404 114.011 224.011 113.684 227.965Z" fill="white"/>
<path d="M477.585 80.7422C473.753 81.3849 471.182 83.4101 471.327 87.5334C471.473 91.5474 473.837 93.9243 477.936 93.8516C482.071 93.7788 484.351 91.1108 484.29 87.2302C484.229 83.2768 481.61 81.106 477.585 80.7422Z" fill="white"/>
<path d="M476.19 21.2348C476.905 25.0548 479.234 27.3468 483.223 27.0679C487.2 26.789 489.589 24.1937 489.335 20.2282C489.068 16.008 486.351 13.5341 482.047 13.9828C478.057 14.3951 476.202 17.1237 476.19 21.2348Z" fill="white"/>
<path d="M397.626 91.9113C401.785 91.7173 404.295 89.4859 404.392 85.5446C404.489 81.6033 402.113 79.0081 398.038 78.9353C394.025 78.8625 391.514 81.1182 391.417 85.2171C391.32 89.3039 393.697 91.4626 397.626 91.9113Z" fill="white"/>
<path d="M98.3203 128.584C97.8958 124.254 95.7008 121.841 91.6871 121.841C87.5885 121.841 85.2605 124.509 85.2605 128.402C85.2605 132.355 87.7702 134.902 91.796 134.853C95.7976 134.805 97.8837 132.246 98.3203 128.584Z" fill="white"/>
<path d="M134.759 126.255C134.637 122.168 132.637 119.597 128.659 119.306C124.355 118.991 121.638 121.501 121.469 125.661C121.311 129.833 123.869 132.513 128.15 132.549C132.139 132.561 134.322 130.136 134.759 126.255Z" fill="white"/>
<path d="M192.6 102.716C192.963 106.767 195.17 109.241 199.075 109.277C203.016 109.314 205.538 106.743 205.562 102.85C205.586 98.9813 203.161 96.3982 199.148 96.3861C195.17 96.3861 193.036 98.8358 192.6 102.716Z" fill="white"/>
<path d="M402.743 113.922C406.66 113.619 409.206 111.521 409.303 107.579C409.4 103.662 407.06 101.116 403.046 101.031C399.057 100.946 396.607 103.25 396.474 107.252C396.328 111.315 398.814 113.364 402.743 113.922Z" fill="white"/>
<path d="M206.508 41.499C202.046 41.7294 199.669 43.9123 199.584 47.9385C199.511 52.0011 201.925 54.4507 205.939 54.4992C209.952 54.5599 212.426 52.1708 212.498 48.1204C212.571 44.07 210.122 41.9477 206.508 41.499Z" fill="white"/>
<path d="M384.457 87.121C384.032 83.0099 381.571 80.7301 377.69 80.8756C373.762 81.0211 371.312 83.5799 371.53 87.6425C371.736 91.608 374.114 94.0213 378.236 93.8394C382.311 93.6575 384.275 91.1229 384.457 87.121Z" fill="white"/>
<path d="M170.906 171.72C171.294 175.685 173.295 178.389 177.284 178.523C181.553 178.668 184.184 176.11 184.148 171.817C184.124 167.827 181.65 165.426 177.624 165.377C173.55 165.341 171.513 167.899 170.906 171.72Z" fill="white"/>
<path d="M497.992 83.9316C493.809 84.0287 491.311 86.1873 491.129 90.0801C490.935 93.9971 493.251 96.5317 497.277 96.7136C501.327 96.9076 503.813 94.5792 503.971 90.65C504.128 86.7451 501.848 84.3925 497.992 83.9316Z" fill="white"/>
<path d="M216.936 86.4055C212.559 86.7572 210.109 88.9886 210.073 92.8814C210.036 96.7984 212.523 99.3451 216.476 99.3451C220.38 99.3572 222.89 96.9925 222.927 92.9663C222.975 88.9037 220.404 86.9634 216.936 86.4055Z" fill="white"/>
<path d="M487.43 50.1577C491.456 49.8424 494.015 47.7687 494.136 43.7425C494.246 40.0195 491.942 37.5334 488.279 37.2545C484.314 36.9513 481.634 39.2191 481.343 43.2332C481.052 47.32 483.586 49.4543 487.43 50.1577Z" fill="white"/>
<path d="M298.435 126.971C298.872 130.815 300.897 133.471 304.874 133.531C308.779 133.58 311.374 131.227 311.422 127.213C311.483 123.26 309.179 120.749 305.153 120.64C301.079 120.531 299.09 123.126 298.435 126.971Z" fill="white"/>
<path d="M148.012 223.611C148.91 227.456 151.14 229.942 155.203 229.469C159.144 229.008 161.387 226.34 160.902 222.302C160.453 218.615 157.883 216.468 154.184 216.723C150.195 217.002 148.206 219.634 148.012 223.611Z" fill="white"/>
<path d="M351.595 90.359C352.408 94.4822 354.506 96.8955 358.604 96.653C362.376 96.4225 364.582 94.0092 364.522 90.3711C364.449 86.4904 362.157 84.0165 358.022 84.065C353.79 84.1014 352.25 86.9634 351.595 90.359Z" fill="white"/>
<path d="M437.787 77.953C433.991 78.3775 431.494 80.4148 431.542 84.4652C431.591 88.5157 434.113 90.7956 438.078 90.7228C441.777 90.6501 444.093 88.3216 444.165 84.6108C444.25 80.6331 441.946 78.3653 437.787 77.953Z" fill="white"/>
<path d="M231.669 183.422C232.264 187.388 234.107 189.813 237.975 189.837C241.807 189.862 244.147 187.57 244.22 183.871C244.293 179.893 241.988 177.395 237.817 177.492C233.913 177.577 232.276 180.196 231.669 183.422Z" fill="white"/>
<path d="M267.877 135.739C263.694 136.211 261.439 138.382 261.705 142.505C261.948 146.338 264.422 148.387 268.084 148.266C272.098 148.132 274.353 145.634 274.11 141.56C273.88 137.752 271.442 135.957 267.877 135.739Z" fill="white"/>
<path d="M525.615 74.8C525.931 79.0445 528.259 81.2516 531.86 81.2031C535.753 81.1546 538.275 78.7534 538.129 74.6302C537.996 70.8587 535.607 68.6273 531.921 68.6273C527.871 68.6394 525.809 71.1497 525.615 74.8Z" fill="white"/>
<path d="M512.434 64.0311C508.542 64.5526 506.129 66.5778 506.117 70.313C506.105 74.2785 508.433 76.8494 512.519 76.7282C516.557 76.6069 518.813 74.0117 518.606 70.0098C518.424 66.2383 515.842 64.4434 512.434 64.0311Z" fill="white"/>
<path d="M515.539 118.482C516.072 122.193 517.976 124.642 521.772 124.691C525.834 124.739 528.271 122.326 528.211 118.324C528.15 114.686 525.895 112.26 522.124 112.176C517.989 112.079 516.072 114.722 515.539 118.482Z" fill="white"/>
<path d="M563.752 86.4784C564.225 90.0438 565.898 92.5783 569.754 92.7845C573.901 93.0028 576.315 90.6137 576.412 86.6967C576.509 83.1192 574.484 80.5968 570.579 80.3906C566.383 80.1602 564.443 82.622 563.752 86.4784Z" fill="white"/>
<path d="M442.759 23.7813C447.015 23.563 449.234 21.1619 449.112 17.2448C449.003 13.6067 446.687 11.3026 442.892 11.2905C439.096 11.2783 436.756 13.5825 436.623 17.2085C436.477 21.1255 438.745 23.5024 442.759 23.7813Z" fill="white"/>
<path d="M141.355 198.411C141.61 202.292 143.635 204.548 147.394 204.62C151.432 204.693 153.857 202.401 153.833 198.326C153.808 194.603 151.517 192.263 147.818 192.154C143.756 192.045 141.658 194.482 141.355 198.411Z" fill="white"/>
<path d="M286.297 140.298C290.178 140.056 292.42 137.982 292.481 134.235C292.542 130.196 290.214 127.783 286.152 127.832C282.417 127.868 280.113 130.124 280.028 133.871C279.943 137.934 282.308 140.056 286.297 140.298Z" fill="white"/>
<path d="M168.384 202.716C164.528 203.177 162.224 205.445 162.491 209.435C162.758 213.412 165.292 215.523 169.366 215.256C173.235 215.001 175.248 212.491 175.151 208.913C175.041 205.021 172.64 202.777 168.384 202.716Z" fill="white"/>
<path d="M467.896 35.0353C463.882 35.4112 461.469 37.4849 461.554 41.5596C461.627 45.2584 463.798 47.611 467.532 47.7444C471.558 47.89 473.971 45.6101 474.116 41.5839C474.25 37.4849 471.8 35.4476 467.896 35.0353Z" fill="white"/>
<path d="M127.216 212.612C127.652 216.299 129.387 218.785 133.219 218.979C137.317 219.173 139.742 216.929 139.815 212.891C139.888 209.216 137.851 206.791 134.007 206.573C129.847 206.33 127.919 208.865 127.216 212.612Z" fill="white"/>
<path d="M169.257 233.361C169.487 237.582 171.718 239.886 175.708 239.801C179.697 239.716 181.989 237.327 181.856 233.252C181.722 229.481 179.431 227.298 175.756 227.225C171.755 227.14 169.572 229.481 169.257 233.361Z" fill="white"/>
<path d="M122.148 253.335C122.293 257.312 124.5 259.726 128.49 259.701C132.152 259.677 134.504 257.446 134.601 253.626C134.71 249.466 132.225 247.126 128.308 247.138C124.694 247.15 122.39 249.345 122.148 253.335Z" fill="white"/>
<path d="M337.226 116.032C337.724 119.585 339.457 122.096 343.362 122.156C347.206 122.205 349.449 120.022 349.546 116.214C349.643 112.358 347.327 110.066 343.616 109.969C339.857 109.871 337.821 112.297 337.226 116.032Z" fill="white"/>
<path d="M574.374 118.409C578.339 118.094 580.764 116.178 580.752 112.018C580.74 107.87 578.315 105.712 574.337 105.748C570.627 105.785 568.359 107.98 568.238 111.751C568.129 115.814 570.348 118.009 574.374 118.409Z" fill="white"/>
<path d="M407.945 46.2043C411.74 45.7071 414.044 43.5728 413.911 39.8861C413.789 36.2359 411.522 33.9802 407.666 34.0894C403.798 34.1985 401.736 36.5876 401.809 40.2621C401.906 43.9972 404.343 45.9012 407.945 46.2043Z" fill="white"/>
<path d="M436.72 106.973C437.266 110.696 439.291 113.122 443.001 112.988C446.627 112.867 448.93 110.575 448.833 106.755C448.736 102.935 446.481 100.837 442.71 100.885C438.866 100.934 437.108 103.408 436.72 106.973Z" fill="white"/>
<path d="M155.676 247.902C155.943 251.54 157.64 254.002 161.581 254.159C165.51 254.317 167.778 251.989 167.947 248.326C168.117 244.628 165.886 242.117 162.09 241.96C158.271 241.802 156.185 244.082 155.676 247.902Z" fill="white"/>
<path d="M422.945 11.048C418.907 11.339 416.591 13.3885 416.688 17.536C416.785 21.356 419.016 23.5146 422.775 23.5389C426.874 23.5753 429.141 21.0892 429.081 17.1115C429.02 13.3885 426.728 11.339 422.945 11.048Z" fill="white"/>
<path d="M366.923 65.5955C367.238 69.4762 369.481 71.6712 373.119 71.5984C376.781 71.5256 379.17 69.076 379.085 65.4015C379 61.7391 376.624 59.3985 372.864 59.4834C369.118 59.5683 367.105 61.8482 366.923 65.5955Z" fill="white"/>
<path d="M190.429 226.024C194.007 225.382 196.371 223.405 196.225 219.646C196.068 215.619 193.582 213.4 189.544 213.716C185.797 214.007 183.808 216.444 184.051 220.204C184.318 223.987 186.743 225.746 190.429 226.024Z" fill="white"/>
<path d="M551.347 74.1329C547.6 74.3512 545.272 76.1945 545.114 80.0024C544.957 83.7618 546.993 86.1873 550.716 86.4177C554.742 86.6602 557.228 84.2348 557.301 80.3056C557.361 76.6554 555.069 74.5089 551.347 74.1329Z" fill="white"/>
<path d="M655.933 159.884C656.479 163.594 658.528 165.959 662.251 165.874C665.925 165.789 668.217 163.582 668.156 159.726C668.096 155.845 665.67 153.711 662.045 153.759C658.371 153.796 656.345 156.245 655.933 159.884Z" fill="white"/>
<path d="M256.103 151.128C255.8 147.089 253.775 144.834 250.028 144.846C245.966 144.858 243.662 147.417 243.868 151.346C244.05 154.972 246.475 157.203 250.234 157.058C253.993 156.9 255.873 154.572 256.103 151.128Z" fill="white"/>
<path d="M422.921 112.758C426.753 112.236 429.02 110.15 428.899 106.427C428.777 102.716 426.462 100.485 422.666 100.643C418.956 100.8 416.761 102.947 416.858 106.815C416.967 110.745 419.489 112.333 422.921 112.758Z" fill="white"/>
<path d="M527.277 44.7733C523.578 45.0765 521.201 46.9319 521.153 50.7641C521.104 54.2567 523.13 56.4395 526.622 56.6942C530.442 56.9731 532.843 54.8266 533.061 51.1279C533.291 47.417 531.036 45.2584 527.277 44.7733Z" fill="white"/>
<path d="M586.912 119.985C587.579 123.563 589.423 125.903 593.364 125.625C596.929 125.382 598.893 123.211 598.796 119.707C598.699 115.85 596.31 113.861 592.526 114.019C588.913 114.177 587.349 116.602 586.912 119.985Z" fill="white"/>
<path d="M205.671 230.039C205.647 234.198 207.696 236.502 211.419 236.648C215.19 236.781 217.518 234.453 217.543 230.706C217.567 227.346 215.687 224.969 212.073 224.739C208.205 224.484 206.144 226.558 205.671 230.039Z" fill="white"/>
<path d="M554.051 130.439C554.62 133.932 556.306 136.442 560.223 136.333C564.055 136.224 566.104 133.92 566.031 130.184C565.971 126.668 563.691 124.594 560.32 124.485C556.585 124.375 554.572 126.716 554.051 130.439Z" fill="white"/>
<path d="M177.83 196.083C178.206 199.721 180.279 201.88 184.099 201.686C187.979 201.492 189.908 198.896 189.701 195.246C189.507 191.826 187.216 189.655 183.736 189.753C180.013 189.85 177.915 192.045 177.83 196.083Z" fill="white"/>
<path d="M591.047 146.835C591.399 150.097 593.302 152.231 596.867 152.183C600.396 152.146 602.555 150.085 602.591 146.507C602.64 142.59 600.287 140.468 596.516 140.602C592.987 140.723 591.144 142.991 591.047 146.835Z" fill="white"/>
<path d="M40.8309 213.691C41.0128 217.293 42.9652 219.525 46.4332 219.622C50.2044 219.719 52.5322 217.475 52.4352 213.582C52.3503 210.005 50.0948 207.919 46.6026 207.955C43.1103 207.992 41.1341 210.15 40.8309 213.691Z" fill="white"/>
<path d="M78.6875 167.487C79.2332 170.834 81.0038 172.944 84.6416 172.944C88.3522 172.944 90.3897 170.652 90.414 167.329C90.4382 163.655 88.1581 161.302 84.2414 161.509C80.6642 161.678 78.9543 163.946 78.6875 167.487Z" fill="white"/>
<path d="M462.791 102.304C459.408 102.607 457.189 104.426 457.031 107.907C456.861 111.727 459.177 114.031 462.827 114.08C466.562 114.128 468.829 111.606 468.684 107.943C468.563 104.608 466.404 102.547 462.791 102.304Z" fill="white"/>
<path d="M368.317 139.837C371.797 139.195 373.944 137.303 373.774 133.689C373.604 130.063 371.276 128.038 367.82 128.208C364.389 128.39 362.194 130.609 362.388 134.223C362.57 137.812 364.898 139.522 368.317 139.837Z" fill="white"/>
<path d="M58.535 191.875C55.0064 192.226 52.969 194.118 52.9084 197.696C52.8478 201.346 55.0181 203.517 58.4498 203.565C62.1603 203.626 64.525 201.455 64.3795 197.489C64.234 193.888 62.0758 192.105 58.535 191.875Z" fill="white"/>
<path d="M605.052 128.244C605.392 131.627 606.956 134.065 610.546 134.247C614.39 134.453 616.73 132.258 616.754 128.499C616.778 125.079 614.705 122.908 611.104 122.799C607.441 122.69 605.768 124.945 605.052 128.244Z" fill="white"/>
<path d="M502.649 108.137C498.914 108.271 496.828 110.114 496.659 113.655C496.477 117.524 498.659 119.791 502.406 119.876C505.85 119.949 508.13 117.912 508.263 114.346C508.396 110.551 506.335 108.428 502.649 108.137Z" fill="white"/>
<path d="M272.982 170.179C276.353 169.791 278.633 168.081 278.766 164.54C278.9 160.684 276.56 158.428 272.886 158.489C269.515 158.537 267.356 160.732 267.368 164.31C267.392 167.875 269.539 169.67 272.982 170.179Z" fill="white"/>
<path d="M572.883 138.115C573.319 141.741 575.284 143.803 578.824 143.706C582.317 143.609 584.463 141.584 584.427 137.97C584.39 134.065 582.086 132.003 578.291 132.185C574.702 132.355 573.028 134.696 572.883 138.115Z" fill="white"/>
<path d="M382.699 114.916C386.276 114.722 388.543 112.83 388.531 109.314C388.519 105.906 386.47 103.614 382.832 103.638C379.51 103.662 377.509 105.797 377.327 108.913C377.109 112.406 379.158 114.48 382.699 114.916Z" fill="white"/>
<path d="M199.633 206.949C199.912 210.344 201.743 212.551 205.259 212.588C208.679 212.624 210.934 210.757 211.08 207.131C211.237 203.189 208.909 201.043 205.247 201.079C201.876 201.116 199.827 203.286 199.633 206.949Z" fill="white"/>
<path d="M362.206 43.3181C362.363 46.9683 364.182 49.2361 367.735 49.3695C371.252 49.5029 373.532 47.5625 373.641 43.9123C373.75 40.3469 371.907 38.1519 368.233 37.9822C364.546 37.8124 362.763 39.9589 362.206 43.3181Z" fill="white"/>
<path d="M249.482 172.92C249.688 176.849 251.531 179.105 255.096 179.19C258.601 179.275 260.868 177.346 260.929 173.66C261.002 170.058 259.062 167.9 255.461 167.766C251.835 167.633 250.016 169.84 249.482 172.92Z" fill="white"/>
<path d="M141.003 243.682C144.387 243.318 146.654 241.632 146.727 238.03C146.8 234.441 144.665 232.294 141.209 232.246C137.802 232.197 135.559 234.113 135.462 237.788C135.377 241.474 137.56 243.16 141.003 243.682Z" fill="white"/>
<path d="M85.1879 282.379C88.6195 282.112 90.9115 280.451 91.0691 276.886C91.2267 273.405 89.3832 271.101 85.8546 270.87C82.0712 270.628 79.8039 272.641 79.7069 276.522C79.622 280.16 81.7926 281.894 85.1879 282.379Z" fill="white"/>
<path d="M272.485 186.757C272.873 190.226 274.692 192.336 278.342 192.263C281.98 192.19 283.92 190.068 283.896 186.49C283.859 182.852 281.664 180.839 278.136 180.9C274.595 180.948 272.704 183.119 272.485 186.757Z" fill="white"/>
<path d="M357.476 112.212C357.876 115.692 359.853 117.875 363.297 117.754C366.717 117.633 368.778 115.45 368.644 111.836C368.511 108.477 366.341 106.634 363.249 106.585C359.793 106.537 357.804 108.647 357.476 112.212Z" fill="white"/>
<path d="M221.071 200.4C224.503 199.963 226.698 198.411 226.807 195.113C226.928 191.596 225.024 189.449 221.411 189.389C218.1 189.34 216.124 191.317 215.918 194.47C215.7 198.084 218.113 199.721 221.071 200.4Z" fill="white"/>
<path d="M238.12 206.548C238.229 209.592 239.781 211.787 243.031 212.054C246.536 212.333 248.864 210.441 249.021 206.9C249.179 203.408 247.154 201.237 243.565 201.213C240.291 201.188 238.496 203.129 238.12 206.548Z" fill="white"/>
<path d="M608.933 155.87C609.467 159.496 611.504 161.569 615.008 161.29C618.173 161.036 620.186 158.841 619.992 155.603C619.798 152.098 617.628 150.121 614.002 150.376C610.631 150.606 609.224 152.85 608.933 155.87Z" fill="white"/>
<path d="M116.364 264.067C113.065 264.504 111.076 266.274 111.125 269.633C111.185 272.981 113.126 274.945 116.472 274.945C120.135 274.945 122.208 272.714 122.014 269.197C121.832 265.995 119.638 264.225 116.364 264.067Z" fill="white"/>
<path d="M631.572 160.623C628.444 160.987 626.395 162.709 626.322 165.971C626.249 169.209 628.104 171.319 631.391 171.465C635.028 171.623 637.114 169.355 637.078 165.947C637.017 162.818 634.931 160.902 631.572 160.623Z" fill="white"/>
<path d="M628.274 132.234C624.539 132.695 622.502 134.756 622.781 138.625C623.048 142.239 625.315 143.973 628.795 143.888C632.385 143.803 634.422 141.608 634.422 138.164C634.434 134.405 632.166 132.379 628.274 132.234Z" fill="white"/>
<path d="M392.812 57.9554C389.695 58.2829 387.597 59.8836 387.537 63.2186C387.488 66.4565 389.222 68.5424 392.569 68.6879C396.219 68.8456 398.28 66.6869 398.256 63.2428C398.232 60.0777 396.158 58.2344 392.812 57.9554Z" fill="white"/>
<path d="M546.52 50.0972C543.173 50.4125 541.064 52.2073 541.003 55.4452C540.93 58.9135 542.858 61.2056 546.557 61.1692C550.255 61.1328 552.098 58.8651 551.965 55.3482C551.832 52.0254 549.685 50.3882 546.52 50.0972Z" fill="white"/>
<path d="M304.449 149.103C305.068 152.231 306.717 154.451 310.052 154.378C313.665 154.293 315.618 152.062 315.375 148.484C315.157 145.161 312.962 143.366 309.712 143.548C306.389 143.718 304.838 145.974 304.449 149.103Z" fill="white"/>
<path d="M75.2441 288.297C71.6427 288.818 69.7026 290.735 69.8845 294.336C70.0543 297.696 72.2127 299.502 75.3412 299.49C78.7972 299.478 81.0161 297.32 80.9555 293.827C80.8948 290.31 78.6031 288.54 75.2441 288.297Z" fill="white"/>
<path d="M507.705 41.3414C504.286 41.5233 502.188 43.306 502.067 46.544C501.946 50.1093 504.164 52.3164 507.669 52.2316C510.833 52.1588 512.907 50.1214 512.883 46.7622C512.871 43.403 510.858 41.7052 507.705 41.3414Z" fill="white"/>
<path d="M579.14 68.0816C579.577 71.465 581.323 73.466 584.681 73.4053C588.065 73.3447 590.005 71.1739 589.956 67.9724C589.896 64.7587 587.773 62.6729 584.463 62.7456C581.165 62.8184 579.431 64.9043 579.14 68.0816Z" fill="white"/>
<path d="M559.98 61.351C560.308 64.8315 562.114 67.0992 565.667 67.0629C569.16 67.0265 571.233 64.977 571.173 61.3146C571.124 57.9554 569.22 56.0757 565.946 55.9302C562.333 55.7726 560.465 57.8584 559.98 61.351Z" fill="white"/>
<path d="M196.347 249.502C199.875 249.418 201.949 247.659 202.191 244.494C202.458 240.953 200.263 238.673 196.88 238.588C193.533 238.503 191.266 240.468 191.339 244.191C191.387 247.574 193.4 249.151 196.347 249.502Z" fill="white"/>
<path d="M342.925 137.303C343.216 140.99 344.974 143.148 348.188 143.282C351.741 143.439 353.924 141.293 353.863 137.715C353.814 134.453 351.801 132.525 348.467 132.488C345.059 132.452 343.58 134.683 342.925 137.303Z" fill="white"/>
<path d="M136.383 284.623C140.046 284.513 142.01 282.779 142.07 279.456C142.131 276.461 140.47 274.46 137.414 274.242C134.14 274.011 131.982 275.636 131.763 279.032C131.533 282.415 133.413 284.186 136.383 284.623Z" fill="white"/>
<path d="M177.018 258.21C177.636 261.811 179.394 263.946 183.044 263.715C186.355 263.509 188.101 261.484 188.064 258.222C188.028 254.911 186.04 252.971 182.851 252.85C179.249 252.716 177.612 255.117 177.018 258.21Z" fill="white"/>
<path d="M328.677 148.581C332.497 148.145 334.68 146.35 334.631 142.784C334.595 139.571 332.727 137.521 329.453 137.376C325.912 137.218 323.754 139.11 323.572 142.675C323.378 146.35 325.767 147.914 328.677 148.581Z" fill="white"/>
<path d="M601.839 101.334C602.045 104.742 603.646 106.925 606.896 107.07C610.097 107.204 612.171 105.397 612.352 102.062C612.534 98.6904 610.594 96.7379 607.429 96.5196C604.155 96.3013 602.397 98.3629 601.839 101.334Z" fill="white"/>
<path d="M255.242 24.1088C255.679 27.953 257.679 30.0874 261.184 29.9904C264.967 29.8813 267.114 27.6256 266.823 23.6964C266.556 20.0462 264.288 18.3242 260.76 18.4697C257.073 18.6152 255.606 21.0406 255.242 24.1088Z" fill="white"/>
<path d="M285.921 156.391C286.309 159.689 288.286 161.557 291.463 161.496C294.688 161.436 296.774 159.362 296.713 156.136C296.653 152.656 294.555 150.558 290.905 150.8C287.57 151.019 286.042 153.129 285.921 156.391Z" fill="white"/>
<path d="M615.99 84.2955C616.742 87.3151 618.403 89.3767 621.798 89.0493C625.109 88.734 626.855 86.6239 626.6 83.3859C626.346 80.1238 624.115 78.2804 620.938 78.5472C617.761 78.8261 616.075 80.9969 615.99 84.2955Z" fill="white"/>
<path d="M497.241 23.5874C497.932 26.7526 499.581 28.7414 502.988 28.4867C506.359 28.232 508.033 26.122 507.839 22.9083C507.645 19.6219 505.414 17.8028 502.237 18.021C499.023 18.2393 497.387 20.4344 497.241 23.5874Z" fill="white"/>
<path d="M315.193 165.51C311.81 166.056 309.833 167.705 309.931 171.101C310.015 174.206 311.907 175.976 314.829 176.073C318.079 176.182 320.128 174.29 320.213 170.955C320.298 167.548 318.079 166.056 315.193 165.51Z" fill="white"/>
<path d="M44.5291 262.479C48.3851 262.078 50.2282 260.162 50.1918 256.888C50.1554 253.844 48.1794 251.904 45.2449 251.819C42.0316 251.722 39.8729 253.589 39.8001 256.985C39.7273 260.393 41.922 261.909 44.5291 262.479Z" fill="white"/>
<path d="M222.163 218.203C222.551 221.222 224.212 223.187 227.255 223.163C230.299 223.138 232.203 221.186 232.178 218.142C232.154 215.098 230.238 213.194 227.17 213.206C224.115 213.218 222.49 215.183 222.163 218.203Z" fill="white"/>
<path d="M407.714 124.109C404.55 124.582 402.464 126.34 402.549 129.602C402.633 132.852 404.804 134.817 407.993 134.756C411.207 134.696 413.232 132.61 413.159 129.348C413.062 126.097 410.964 124.4 407.714 124.109Z" fill="white"/>
<path d="M260.311 190.832C257.098 191.45 255.218 193.269 255.534 196.653C255.825 199.757 257.934 201.467 260.869 201.273C264.107 201.055 265.986 198.969 265.671 195.537C265.368 192.372 263.294 191.074 260.311 190.832Z" fill="white"/>
<path d="M640.364 148.533C640.837 151.382 642.134 153.493 645.311 153.577C648.682 153.674 650.72 151.843 650.768 148.533C650.817 145.537 648.961 143.621 645.93 143.439C642.51 143.233 640.91 145.355 640.364 148.533Z" fill="white"/>
<path d="M143.634 263.546C144.083 266.82 145.818 268.797 149.201 268.578C152.535 268.36 154.257 266.335 154.039 262.964C153.833 259.835 151.868 258.234 148.885 258.246C145.538 258.246 143.853 260.259 143.634 263.546Z" fill="white"/>
<path d="M278.354 209.35C278.851 212.309 280.5 214.164 283.617 214.043C286.697 213.922 288.552 212.079 288.491 208.998C288.431 205.615 286.393 203.759 283.01 203.99C279.882 204.196 278.5 206.294 278.354 209.35Z" fill="white"/>
<path d="M577.49 164.055C577.72 167.099 579.066 169.149 582.243 169.331C585.651 169.525 587.7 167.718 587.785 164.395C587.87 161.084 585.906 159.144 582.51 159.18C579.345 159.204 577.902 161.181 577.49 164.055Z" fill="white"/>
<path d="M583.614 93.8516C584.038 96.5923 585.263 98.7388 588.5 98.8358C591.908 98.9328 593.909 97.1502 593.945 93.7788C593.994 90.359 591.908 88.5885 588.561 88.6612C585.408 88.7218 583.966 90.7592 583.614 93.8516Z" fill="white"/>
<path d="M442.746 129.566C443.267 132.501 444.795 134.489 447.948 134.405C451.064 134.332 452.871 132.404 452.811 129.36C452.75 126.304 450.786 124.436 447.742 124.472C444.686 124.521 443.134 126.583 442.746 129.566Z" fill="white"/>
<path d="M477.488 110.708C477.876 113.97 479.718 115.838 483.065 115.692C486.194 115.559 487.867 113.461 487.855 110.514C487.843 107.531 486.072 105.53 482.956 105.481C479.621 105.433 477.766 107.276 477.488 110.708Z" fill="white"/>
<path d="M659.644 125.806C656.77 126.146 654.709 127.553 654.563 130.621C654.405 133.907 656.188 136.066 659.486 136.127C662.772 136.187 664.616 134.15 664.604 130.815C664.579 127.625 662.53 126.291 659.644 125.806Z" fill="white"/>
<path d="M676.184 137.267C672.886 137.679 671.128 139.316 671.152 142.433C671.164 145.574 672.995 147.368 676.027 147.381C679.361 147.393 681.313 145.367 681.132 142.033C680.962 139.001 678.949 137.461 676.184 137.267Z" fill="white"/>
<path d="M126.258 290.929C122.681 291.05 120.753 292.736 120.632 295.743C120.498 299.005 122.293 301.164 125.737 301.188C128.781 301.212 130.696 299.527 130.878 296.41C131.084 292.942 129.035 291.329 126.258 290.929Z" fill="white"/>
<path d="M65.0097 272.047C68.1746 271.719 70.2237 270.143 70.2479 266.759C70.2722 263.631 68.2838 261.897 65.41 261.739C62.5118 261.593 60.4137 263.146 60.1954 266.299C59.965 269.646 61.6993 271.501 65.0097 272.047Z" fill="white"/>
<path d="M55.8306 234.768C52.6293 235.132 50.4947 236.733 50.4704 240.104C50.4462 243.112 52.1321 245.125 55.1757 245.331C58.4498 245.549 60.5592 243.9 60.7775 240.456C60.9958 237.012 58.9833 235.375 55.8306 234.768Z" fill="white"/>
<path d="M291.438 178.147C291.584 181.106 293.258 183.107 296.253 183.204C299.26 183.313 301.285 181.373 301.418 178.365C301.551 175.309 299.612 173.344 296.604 173.235C293.561 173.114 291.729 174.885 291.438 178.147Z" fill="white"/>
<path d="M382.819 131.239C383.098 134.271 384.675 136.333 388.07 136.224C391.089 136.139 392.812 134.344 392.884 131.288C392.969 127.844 390.98 126.097 387.718 126.122C384.699 126.158 383.074 128.013 382.819 131.239Z" fill="white"/>
<path d="M422.824 128.899C423.382 132.161 425.079 133.98 428.135 133.81C431.166 133.641 432.937 131.724 432.755 128.656C432.585 125.612 430.681 123.866 427.613 124.024C424.521 124.194 423.139 126.231 422.824 128.899Z" fill="white"/>
<path d="M105.377 291.365C108.554 290.747 110.543 289.219 110.349 286.09C110.155 283.034 108.263 281.409 105.135 281.603C102.261 281.773 100.769 283.628 100.733 286.308C100.685 289.437 102.843 290.783 105.377 291.365Z" fill="white"/>
<path d="M95.4463 308.525C98.5021 308.185 100.345 306.5 100.309 303.48C100.284 300.764 98.5988 298.933 95.8099 298.811C92.7663 298.678 90.8022 300.339 90.693 303.432C90.5839 306.524 92.4633 308.125 95.4463 308.525Z" fill="white"/>
<path d="M664.361 184.501C660.966 184.938 659.268 186.66 659.426 189.74C659.571 192.554 661.39 194.215 664.094 194.227C667.089 194.239 669.054 192.445 669.029 189.364C669.017 186.284 666.992 184.817 664.361 184.501Z" fill="white"/>
<path d="M249.094 224.921C246.536 225.491 244.583 226.764 244.656 229.723C244.729 232.913 246.572 234.598 249.688 234.416C252.599 234.247 254.018 232.209 253.896 229.493C253.775 226.704 251.896 225.248 249.094 224.921Z" fill="white"/>
<path d="M620.307 110.199C620.453 113.546 622.065 115.438 625.133 115.474C627.91 115.498 629.741 113.704 629.838 110.975C629.947 107.955 628.189 106.003 625.06 105.967C622.235 105.93 620.792 107.749 620.307 110.199Z" fill="white"/>
<path d="M647.978 182.343C651.313 181.749 653.278 180.124 653.084 177.068C652.89 174.084 650.974 172.29 647.858 172.544C645.117 172.775 643.48 174.436 643.455 177.274C643.431 180.5 645.577 181.712 647.978 182.343Z" fill="white"/>
<path d="M693.221 189.716C696.167 189.449 698.157 188.103 698.254 184.914C698.351 182.028 696.629 180.318 693.985 180.027C690.966 179.699 688.904 181.409 688.625 184.429C688.334 187.521 690.25 189.17 693.221 189.716Z" fill="white"/>
<path d="M101.91 114.734C102.249 117.378 103.486 119.306 106.347 119.44C109.197 119.573 110.967 117.875 111.125 115.159C111.283 112.418 109.634 110.623 106.809 110.441C103.911 110.26 102.528 112.079 101.91 114.734Z" fill="white"/>
<path d="M637.708 120.337C638.084 123.248 639.612 125.249 642.716 125.2C645.469 125.151 647.252 123.454 647.3 120.628C647.361 117.499 645.566 115.705 642.462 115.729C639.636 115.729 638.193 117.572 637.708 120.337Z" fill="white"/>
<path d="M502.661 137.606C502.867 140.856 504.479 142.469 507.317 142.445C510.179 142.421 511.828 140.711 511.804 137.836C511.779 134.938 510.045 133.289 507.208 133.313C504.37 133.337 502.867 135.096 502.661 137.606Z" fill="white"/>
<path d="M598.529 75.7095C598.808 78.62 600.518 80.3178 603.21 80.2329C606.229 80.1359 607.963 78.1591 607.66 75.0303C607.381 72.2169 605.562 70.701 602.761 70.9193C599.924 71.1254 598.626 73.0051 598.529 75.7095Z" fill="white"/>
<path d="M348.843 159.762C349.134 162.333 350.468 164.152 353.378 164.189C356.301 164.237 357.877 162.442 357.95 159.702C358.022 156.864 356.252 155.081 353.475 155.081C350.771 155.069 349.025 156.67 348.843 159.762Z" fill="white"/>
<path d="M30.3538 274.788C30.8631 277.456 32.3546 279.275 35.2042 279.214C38.0174 279.153 39.8 277.407 39.8 274.606C39.8 271.501 37.8475 269.658 34.7554 269.852C31.9664 270.022 30.5478 271.962 30.3538 274.788Z" fill="white"/>
<path d="M329.465 164.298C329.684 167.39 331.066 169.076 333.976 169.161C336.935 169.258 338.524 167.499 338.597 164.783C338.657 162.054 337.129 160.247 334.171 160.199C331.248 160.162 329.853 161.836 329.465 164.298Z" fill="white"/>
<path d="M24.5096 251.819C27.5168 251.758 29.1776 250.291 29.2504 247.429C29.3231 244.882 27.9166 243.197 25.358 242.978C22.557 242.736 20.6658 244.142 20.4355 247.004C20.2051 249.854 21.854 251.407 24.5096 251.819Z" fill="white"/>
<path d="M261.596 218.033C261.633 221.513 263.209 223.26 265.962 223.272C268.678 223.296 270.424 221.647 270.424 218.724C270.424 216.056 268.75 214.577 266.362 214.383C263.597 214.164 261.997 215.838 261.596 218.033Z" fill="white"/>
<path d="M560.005 156.015C560.344 158.744 561.763 160.502 564.588 160.417C567.099 160.332 568.626 158.719 568.687 156.209C568.748 153.711 567.377 152.049 564.795 151.855C561.909 151.637 560.465 153.299 560.005 156.015Z" fill="white"/>
<path d="M218.112 259.022C220.695 258.853 222.199 257.397 222.236 254.814C222.272 252.231 220.744 250.533 218.173 250.449C215.287 250.352 213.553 252.158 213.65 254.972C213.747 257.47 215.384 258.962 218.112 259.022Z" fill="white"/>
<path d="M487.879 138.382C490.547 137.727 492.305 136.236 491.941 133.398C491.626 130.924 489.868 129.493 487.382 129.687C484.593 129.918 483.126 131.64 483.429 134.526C483.72 137.182 485.563 138.103 487.879 138.382Z" fill="white"/>
<path d="M25.6367 296.677C28.2317 296.628 30.0024 295.537 30.2935 292.978C30.6087 290.152 29.0445 288.297 26.3283 288.091C23.5757 287.885 21.8296 289.558 21.7568 292.384C21.6962 294.943 23.2237 296.325 25.6367 296.677Z" fill="white"/>
<path d="M373.386 151.674C370.439 151.661 368.971 153.262 368.899 155.688C368.826 158.186 370.403 159.835 372.973 159.859C375.484 159.884 377.144 158.477 377.181 155.833C377.205 153.238 375.714 151.868 373.386 151.674Z" fill="white"/>
<path d="M463.445 131.106C463.955 133.786 465.18 135.399 467.884 135.338C470.564 135.278 471.982 133.725 471.994 131.179C472.006 128.292 470.212 126.667 467.423 126.849C464.9 127.019 463.724 128.911 463.445 131.106Z" fill="white"/>
<path d="M708.233 202.741C710.816 202.243 712.453 200.776 712.283 198.254C712.125 195.804 710.585 194.167 707.93 194.324C705.31 194.482 703.952 196.071 704.037 198.666C704.122 201.37 705.965 202.377 708.233 202.741Z" fill="white"/>
<path d="M170.858 71.8652C173.574 71.4529 175.308 70.0946 175.199 67.5237C175.102 65.0377 173.537 63.4126 170.858 63.5218C168.493 63.6188 167.195 65.1104 167.05 67.4024C166.892 70.131 168.687 71.271 170.858 71.8652Z" fill="white"/>
<path d="M760.774 312.697C761.175 315.231 762.642 316.771 765.188 316.638C767.747 316.505 769.19 314.783 769.045 312.236C768.899 309.689 767.335 308.198 764.715 308.331C762.072 308.477 760.908 310.174 760.774 312.697Z" fill="white"/>
<path d="M98.2961 345.209C95.9437 345.585 94.258 346.701 94.2338 349.418C94.2095 351.794 95.5069 353.225 97.7745 353.432C100.333 353.662 102.007 352.364 102.213 349.696C102.419 347.041 100.806 345.743 98.2961 345.209Z" fill="white"/>
<path d="M315.848 193.16C316.236 195.561 317.57 197.029 320.202 196.992C322.918 196.944 324.3 195.137 324.276 192.808C324.24 190.128 322.518 188.261 319.644 188.564C317.17 188.807 315.848 190.504 315.848 193.16Z" fill="white"/>
<path d="M102.286 331.154C102.528 333.325 103.595 335.132 106.311 335.205C108.652 335.277 110.131 333.931 110.422 331.663C110.774 329.008 109.246 327.31 106.784 327.019C104.25 326.74 102.71 328.316 102.286 331.154Z" fill="white"/>
<path d="M722.166 216.881C724.652 216.529 726.301 215.341 726.143 212.588C725.986 209.896 724.324 208.634 721.778 208.756C719.438 208.877 718.079 210.441 718.031 212.685C717.994 215.268 719.595 216.65 722.166 216.881Z" fill="white"/>
<path d="M527.24 138.588C524.39 138.698 522.669 139.934 522.451 142.457C522.196 145.307 523.845 147.053 526.646 147.114C529.168 147.162 530.744 145.549 530.853 143.015C530.975 140.42 529.301 139.134 527.24 138.588Z" fill="white"/>
<path d="M586.719 187.036C584.015 187 582.366 188.37 582.172 190.832C581.953 193.633 583.626 195.404 586.403 195.44C588.889 195.464 590.441 193.912 590.502 191.317C590.574 188.722 589.193 187.303 586.719 187.036Z" fill="white"/>
<path d="M673.916 172.18C674.304 174.654 675.784 176.231 678.306 176.085C680.792 175.952 682.416 174.315 682.283 171.744C682.15 169.221 680.513 167.669 677.942 167.802C675.372 167.924 674.037 169.549 673.916 172.18Z" fill="white"/>
<path d="M596.212 173.163C596.285 175.697 597.437 177.359 600.044 177.613C602.639 177.868 604.349 176.473 604.652 174.012C605.004 171.198 603.331 169.355 600.59 169.209C598.129 169.076 596.613 170.664 596.212 173.163Z" fill="white"/>
<path d="M660.747 102.886C660.614 100.328 659.341 98.7631 656.709 98.6782C654.03 98.5933 652.563 100.291 652.453 102.717C652.332 105.251 654.03 106.925 656.503 106.985C658.977 107.046 660.553 105.542 660.747 102.886Z" fill="white"/>
<path d="M51.0164 284.028C51.2711 286.502 52.5323 288.249 55.1273 288.285C57.6738 288.321 59.2862 286.805 59.3104 284.174C59.3225 281.833 57.904 280.427 55.6122 280.22C52.9809 279.978 51.5863 281.53 51.0164 284.028Z" fill="white"/>
<path d="M233.585 237.63C230.942 237.812 229.196 238.94 229.111 241.62C229.026 244.3 230.687 245.755 233.209 245.804C235.477 245.852 237.078 244.434 237.296 242.166C237.551 239.558 235.95 238.152 233.585 237.63Z" fill="white"/>
<path d="M735.94 313.497C736.498 315.959 737.832 317.535 740.5 317.293C743.156 317.05 744.429 315.34 744.186 312.806C743.968 310.49 742.391 309.301 740.075 309.35C737.396 309.398 736.195 311.023 735.94 313.497Z" fill="white"/>
<path d="M46.2149 297.89C43.6927 298.302 42.1165 299.515 42.165 302.207C42.2013 304.584 43.5107 305.954 45.8146 306.087C48.4096 306.245 49.9985 304.887 50.1197 302.243C50.241 299.587 48.6037 298.326 46.2149 297.89Z" fill="white"/>
<path d="M744.017 243.585C744.162 245.974 745.532 247.295 747.812 247.295C750.091 247.295 751.62 245.925 751.644 243.609C751.68 241.014 750.079 239.449 747.533 239.583C745.314 239.692 744.017 241.208 744.017 243.585Z" fill="white"/>
<path d="M118.025 102.328C118.631 104.839 119.964 106.282 122.341 105.991C124.924 105.675 126.307 103.99 125.858 101.346C125.446 98.957 123.687 98.0717 121.396 98.3385C118.873 98.6175 118.17 100.388 118.025 102.328Z" fill="white"/>
<path d="M115.454 309.544C112.884 309.847 111.622 311.411 111.804 313.606C111.974 315.789 113.441 317.293 115.866 317.087C118.243 316.893 119.504 315.34 119.334 313.048C119.165 310.732 117.661 309.544 115.454 309.544Z" fill="white"/>
<path d="M545.963 144.894C543.489 145.125 541.816 146.374 541.791 148.957C541.767 151.237 543.186 152.704 545.429 152.886C547.733 153.068 549.249 151.746 549.564 149.503C549.928 146.908 548.424 145.489 545.963 144.894Z" fill="white"/>
<path d="M78.1665 335.993C75.7292 336.138 74.4074 337.545 74.4316 339.849C74.4559 341.838 75.6924 343.318 77.7781 343.451C80.1427 343.609 81.6467 342.238 81.8043 339.922C81.962 337.533 80.4826 336.26 78.1665 335.993Z" fill="white"/>
<path d="M639.357 89.0009C637.077 89.11 635.525 90.3227 635.356 92.5783C635.162 95.1735 636.689 96.7258 639.308 96.7379C641.697 96.75 643.056 95.1493 643.068 92.9421C643.068 90.7593 641.758 89.2555 639.357 89.0009Z" fill="white"/>
<path d="M338.887 182.67C336.632 183.155 335.177 184.368 335.383 186.806C335.553 188.904 336.911 190.141 338.96 190.165C341.324 190.189 342.816 188.71 342.792 186.418C342.755 184.113 341.155 182.889 338.887 182.67Z" fill="white"/>
<path d="M413.099 155.481C415.293 154.996 416.809 153.711 416.675 151.419C416.554 149.139 415.014 147.744 412.698 147.841C410.37 147.95 409.061 149.43 409.158 151.795C409.267 154.184 410.843 155.227 413.099 155.481Z" fill="white"/>
<path d="M165.656 273.478C165.874 276.085 167.268 277.274 169.609 277.213C171.961 277.152 173.368 275.891 173.344 273.478C173.319 270.786 171.743 269.403 169.136 269.609C166.808 269.779 165.668 271.331 165.656 273.478Z" fill="white"/>
<path d="M679.421 198.545C677.166 198.933 675.795 200.145 675.917 202.571C676.026 204.717 677.384 205.881 679.385 205.954C681.75 206.039 683.216 204.56 683.241 202.304C683.265 200.024 681.749 198.726 679.421 198.545Z" fill="white"/>
<path d="M613.893 183.64C614.16 185.86 615.215 187.363 617.64 187.376C620.041 187.388 621.399 185.945 621.423 183.701C621.447 181.433 620.041 179.954 617.712 179.905C615.36 179.857 614.208 181.373 613.893 183.64Z" fill="white"/>
<path d="M650.695 203.056C648.173 203.189 646.742 204.475 646.669 206.755C646.609 208.707 647.627 210.187 649.786 210.429C652.199 210.696 653.702 209.483 653.957 207.191C654.199 204.863 652.756 203.541 650.695 203.056Z" fill="white"/>
<path d="M10.3944 332.876C13.0137 332.621 14.178 331.057 13.9961 328.826C13.8385 326.885 12.4925 325.454 10.4069 325.491C8.07867 325.527 6.63561 326.91 6.69624 329.274C6.74474 331.639 8.17537 332.852 10.3944 332.876Z" fill="white"/>
<path d="M630.517 195.04C631.026 197.344 632.324 198.654 634.737 198.423C636.883 198.217 637.987 196.835 637.974 194.773C637.95 192.372 636.532 190.953 634.179 191.062C631.839 191.159 630.687 192.772 630.517 195.04Z" fill="white"/>
<path d="M522.244 30.7544C524.633 30.3421 526.112 29.093 525.979 26.7161C525.846 24.3271 524.33 23.1508 521.929 23.3084C519.759 23.454 518.643 24.788 518.606 26.8496C518.558 29.275 520.098 30.3906 522.244 30.7544Z" fill="white"/>
<path d="M14.2866 310.769C14.3351 312.939 15.6568 314.152 17.597 314.213C19.8888 314.285 21.4049 312.782 21.2958 310.514C21.1867 308.307 19.7676 306.851 17.3424 307.106C15.2567 307.337 14.2866 308.695 14.2866 310.769Z" fill="white"/>
<path d="M251.435 253.298C251.859 255.287 252.902 256.682 255.096 256.597C257.606 256.5 258.734 254.984 258.48 252.595C258.249 250.424 256.746 249.406 254.672 249.587C252.575 249.769 251.593 251.249 251.435 253.298Z" fill="white"/>
<path d="M3.6163 344.433C1.3366 344.676 -0.0700026 345.901 0.00275373 348.314C0.0633841 350.412 1.40914 351.746 3.39782 351.867C5.67752 352.001 7.26605 350.727 7.36306 348.314C7.46007 345.889 6.04151 344.664 3.6163 344.433Z" fill="white"/>
<path d="M393.188 149.321C390.787 149.406 389.234 150.473 389.113 152.862C389.004 155.215 390.386 156.682 392.666 156.827C394.97 156.973 396.45 155.7 396.595 153.298C396.753 150.873 395.407 149.648 393.188 149.321Z" fill="white"/>
<path d="M315.109 6.88838C315.109 9.37443 316.454 10.7448 318.698 10.8054C320.65 10.8539 322.081 9.65336 322.263 7.57963C322.445 5.49377 321.293 4.12342 319.292 3.83237C317.013 3.50494 315.557 4.657 315.109 6.88838Z" fill="white"/>
<path d="M564.637 182.04C564.915 184.598 566.14 186.017 568.493 186.017C570.845 186.005 572.203 184.598 572.191 182.246C572.179 179.881 570.882 178.559 568.457 178.559C565.995 178.547 564.976 180.051 564.637 182.04Z" fill="white"/>
<path d="M580.255 46.3378C582.244 45.9861 583.602 44.9068 583.566 42.8209C583.517 40.4804 582.159 39.11 579.77 39.3526C577.708 39.5587 576.678 40.9291 576.787 43.0392C576.884 45.2221 578.327 46.0467 580.255 46.3378Z" fill="white"/>
<path d="M635.356 69.3792C637.296 69.2458 638.739 68.3363 638.908 66.2019C639.078 64.0797 637.878 62.7457 635.841 62.5153C633.706 62.2727 632.433 63.5825 632.239 65.6319C632.045 67.7057 633.185 68.9669 635.356 69.3792Z" fill="white"/>
<path d="M301.455 196.823C299.333 196.944 298.132 198.12 298.047 200.194C297.95 202.316 299.235 203.662 301.236 203.796C303.625 203.953 305.044 202.389 304.959 200.121C304.886 198.229 303.686 196.81 301.455 196.823Z" fill="white"/>
<path d="M703.965 167.354C703.965 169.537 705.31 170.762 707.238 170.798C709.518 170.859 710.9 169.428 710.755 167.026C710.622 164.904 709.276 163.849 707.202 163.934C705.129 164.031 704.013 165.232 703.965 167.354Z" fill="white"/>
<path d="M599.305 46.2407C596.844 46.3499 595.51 47.5141 595.437 49.5393C595.365 51.9283 596.916 53.2623 599.22 53.1289C601.209 53.0076 602.519 51.6858 602.434 49.5635C602.349 47.4534 600.967 46.459 599.305 46.2407Z" fill="white"/>
<path d="M142.592 305.639C142.665 307.979 144.011 309.265 145.951 309.277C147.879 309.301 149.309 308.101 149.297 305.869C149.285 303.698 148.06 302.437 146.011 302.425C143.962 302.401 142.774 303.711 142.592 305.639Z" fill="white"/>
<path d="M65.9075 308.331C63.9916 308.743 62.7305 309.835 62.8517 311.981C62.9609 314.201 64.4884 315.183 66.4528 315.122C68.5385 315.049 69.7388 313.606 69.5933 311.52C69.4357 309.459 68.1023 308.367 65.9075 308.331Z" fill="white"/>
<path d="M135.353 326.51C137.632 326.328 138.991 325.2 139.1 323.175C139.209 321.101 137.9 319.73 135.862 319.609C133.789 319.488 132.455 320.834 132.309 322.859C132.176 324.969 133.631 326.024 135.353 326.51Z" fill="white"/>
<path d="M85.1756 383.604C82.908 383.822 81.441 384.998 81.4774 387.339C81.5138 389.364 82.8231 390.71 84.8482 390.759C87.1642 390.819 88.5345 389.51 88.5102 387.096C88.4981 384.962 87.1764 383.955 85.1756 383.604Z" fill="white"/>
<path d="M692.081 150.91C690.104 151.188 688.686 152.147 688.553 154.257C688.407 156.391 689.68 157.749 691.656 157.931C693.984 158.149 695.501 156.731 695.501 154.39C695.489 152.377 694.106 151.225 692.081 150.91Z" fill="white"/>
<path d="M744.683 274.424C742.634 274.751 741.458 275.879 741.482 278.013C741.519 280.233 742.998 281.36 744.926 281.288C746.854 281.215 748.26 279.954 748.139 277.759C748.018 275.624 746.72 274.606 744.683 274.424Z" fill="white"/>
<path d="M751.85 294.834C752.105 296.859 753.184 298.278 755.27 298.278C757.283 298.278 758.714 297.101 758.738 294.955C758.762 292.857 757.501 291.571 755.415 291.511C753.269 291.438 752.226 292.833 751.85 294.834Z" fill="white"/>
<path d="M82.8351 321.489C83.1989 323.672 84.4112 324.994 86.4848 324.848C88.4734 324.715 89.8196 323.466 89.6862 321.271C89.565 319.124 88.2797 318.008 86.1455 318.093C83.9628 318.166 83.0777 319.621 82.8351 321.489Z" fill="white"/>
<path d="M87.8306 368.336C88.2429 370.3 89.3342 371.658 91.4441 371.392C93.4449 371.137 94.6216 369.767 94.3548 367.681C94.1244 365.922 92.8749 364.892 91.0924 364.916C88.934 364.952 87.964 366.286 87.8306 368.336Z" fill="white"/>
<path d="M532.358 192.433C532.649 194.567 533.558 195.889 535.765 195.913C537.742 195.937 538.724 194.676 538.821 192.978C538.918 191.293 538.02 189.898 536.153 189.631C533.97 189.316 532.988 190.735 532.358 192.433Z" fill="white"/>
<path d="M721.026 248.581C722.747 248.314 724.045 247.538 723.997 245.549C723.948 243.609 722.784 242.639 720.917 242.687C719.304 242.736 718.334 243.754 718.212 245.331C718.079 247.247 719.182 248.241 721.026 248.581Z" fill="white"/>
<path d="M550.013 177.577C552.184 177.407 553.105 176.219 553.117 174.448C553.129 172.35 551.977 171.077 549.795 171.234C547.988 171.356 546.848 172.556 546.872 174.327C546.884 176.376 548.134 177.528 550.013 177.577Z" fill="white"/>
<path d="M528.077 167.402C528.041 169.258 528.938 170.531 530.745 170.749C532.818 171.004 534.261 169.888 534.419 167.802C534.564 165.692 533.206 164.431 531.157 164.395C529.35 164.371 528.344 165.607 528.077 167.402Z" fill="white"/>
<path d="M325.379 217.936C327.295 217.475 328.616 216.347 328.228 214.213C327.925 212.515 326.713 211.351 324.857 211.557C322.735 211.787 321.729 213.206 321.983 215.268C322.202 217.099 323.499 217.924 325.379 217.936Z" fill="white"/>
<path d="M705.044 230.208C705.201 232.003 705.977 233.264 707.942 233.361C709.615 233.446 710.573 232.464 710.828 230.924C711.131 229.044 710.161 227.735 708.354 227.492C706.499 227.237 705.432 228.414 705.044 230.208Z" fill="white"/>
<path d="M508.845 162.079C508.99 163.982 510.082 165.28 512.18 165.207C513.926 165.147 515.126 164.079 515.175 162.188C515.236 159.968 513.95 158.901 511.864 158.925C510.033 158.95 508.954 159.993 508.845 162.079Z" fill="white"/>
<path d="M673.589 116.444C675.408 116.117 676.62 115.232 676.475 113.255C676.365 111.654 675.383 110.66 673.77 110.575C671.867 110.466 670.667 111.545 670.594 113.388C670.521 115.268 671.818 116.19 673.589 116.444Z" fill="white"/>
<path d="M429.954 151.382C430.208 153.286 431.288 154.451 433.155 154.244C434.986 154.038 435.981 152.68 435.726 150.837C435.52 149.321 434.586 148.278 432.876 148.314C430.863 148.351 430.087 149.588 429.954 151.382Z" fill="white"/>
<path d="M156.925 292.602C159.289 292.239 160.478 291.111 160.356 288.988C160.259 287.084 159.022 286.175 157.203 286.199C155.397 286.223 154.172 287.206 154.027 289.037C153.869 291.22 155.397 292.069 156.925 292.602Z" fill="white"/>
<path d="M513.501 186.587C513.853 188.625 514.993 189.862 517.103 189.607C518.849 189.401 520.001 188.2 519.892 186.381C519.771 184.259 518.437 183.24 516.315 183.398C514.399 183.543 513.683 184.853 513.501 186.587Z" fill="white"/>
<path d="M47.8634 348.581C47.8513 350.254 48.7853 351.358 50.301 351.503C52.0835 351.661 53.4657 350.751 53.5142 348.751C53.5627 346.786 52.3987 345.779 50.4828 345.84C48.8337 345.913 48.0089 346.968 47.8634 348.581Z" fill="white"/>
<path d="M203.61 265.886C201.609 265.935 200.821 267.123 200.906 268.942C200.978 270.567 201.997 271.416 203.598 271.416C205.198 271.428 206.229 270.591 206.302 268.966C206.375 267.172 205.635 265.935 203.61 265.886Z" fill="white"/>
<path d="M691.123 215.838C691.305 217.657 692.238 218.857 694.13 218.894C695.694 218.93 696.81 218.033 697.016 216.42C697.259 214.516 696.252 213.267 694.433 213.061C692.578 212.867 691.547 214.067 691.123 215.838Z" fill="white"/>
<path d="M569.329 209.265C569.548 211.278 570.882 212.03 572.652 211.848C574.568 211.654 575.38 210.32 575.113 208.465C574.871 206.815 573.707 206.088 572.143 206.16C570.251 206.257 569.269 207.325 569.329 209.265Z" fill="white"/>
<path d="M603.671 204.062C605.368 203.917 606.399 202.959 606.423 201.37C606.46 199.466 605.283 198.29 603.379 198.46C601.827 198.605 600.857 199.697 600.978 201.394C601.1 203.056 602.094 203.905 603.671 204.062Z" fill="white"/>
<path d="M37.8841 323.138C39.6909 323.053 40.6854 322.047 40.7339 320.494C40.7824 318.651 39.679 317.39 37.7752 317.463C36.2715 317.523 35.0832 318.445 35.0468 320.131C34.9862 322.059 36.0652 323.053 37.8841 323.138Z" fill="white"/>
<path d="M746.478 330.56C746.491 332.828 747.436 333.943 749.389 333.955C751.05 333.968 752.044 332.949 752.117 331.348C752.202 329.456 751.122 328.231 749.243 328.256C747.703 328.256 746.685 329.25 746.478 330.56Z" fill="white"/>
<path d="M5.94406 285.484C7.6902 285.387 8.56293 284.489 8.63569 282.876C8.7327 280.948 7.67798 279.857 5.84696 279.869C4.31909 279.881 3.26394 280.912 3.22757 282.488C3.17906 284.319 4.11304 285.435 5.94406 285.484Z" fill="white"/>
<path d="M268.751 241.802C268.751 243.512 269.697 244.349 271.321 244.421C273.225 244.506 274.304 243.621 274.292 241.62C274.28 239.922 273.322 239.061 271.722 238.988C269.842 238.928 268.714 239.789 268.751 241.802Z" fill="white"/>
<path d="M55.1632 330.305C55.5755 332.136 56.5459 332.949 58.2314 332.816C60.3292 332.646 60.9235 331.336 60.7295 329.468C60.5476 327.71 59.2617 326.958 57.7702 327.116C55.9392 327.31 55.0177 328.607 55.1632 330.305Z" fill="white"/>
<path d="M30.3418 341.68C32.2577 341.656 33.3001 340.638 33.2152 338.782C33.1425 337.29 32.3305 336.151 30.645 336.175C28.7897 336.199 27.7222 337.169 27.7585 339.097C27.7707 340.759 28.7897 341.511 30.3418 341.68Z" fill="white"/>
<path d="M52.2046 438.697C53.8295 438.454 54.7513 437.581 54.5937 435.871C54.4724 434.477 53.5145 433.664 52.2413 433.591C50.6164 433.494 49.5615 434.513 49.5372 436.126C49.5008 437.775 50.5555 438.624 52.2046 438.697Z" fill="white"/>
<path d="M15.5848 376.946C15.6697 378.777 16.5547 379.929 18.4706 379.941C20.1319 379.954 21.0291 378.874 21.1261 377.346C21.2474 375.454 20.1075 374.302 18.3007 374.339C16.8577 374.363 15.7424 375.26 15.5848 376.946Z" fill="white"/>
<path d="M35.7256 227.443C34.0643 227.468 32.9119 228.135 32.6573 229.784C32.3541 231.688 33.1666 232.949 35.1311 233.204C36.8166 233.41 37.8838 232.403 38.1869 230.9C38.575 228.984 37.4354 227.928 35.7256 227.443Z" fill="white"/>
<path d="M735.456 224.727C733.613 224.788 732.388 225.746 732.267 227.553C732.133 229.675 733.394 230.9 735.504 230.863C737.372 230.839 738.414 229.59 738.39 227.795C738.366 226 737.335 224.885 735.456 224.727Z" fill="white"/>
<path d="M123.591 340.783C123.724 342.384 124.561 343.451 126.173 343.609C128.113 343.791 129.35 342.675 129.362 340.832C129.374 339 128.126 337.8 126.234 337.945C124.682 338.067 123.748 339.158 123.591 340.783Z" fill="white"/>
<path d="M70.9155 355.602C69.3634 355.724 68.2719 356.5 68.0901 358.064C67.8718 360.017 69.1811 361.144 70.8545 361.169C72.54 361.193 73.8375 360.077 73.6799 358.125C73.5465 356.524 72.4312 355.784 70.9155 355.602Z" fill="white"/>
<path d="M41.34 367.22C41.437 369.27 42.3466 370.373 44.214 370.446C45.754 370.506 46.8817 369.779 47.1484 368.178C47.4637 366.286 46.4572 365.11 44.6747 364.843C42.8315 364.576 41.8614 365.777 41.34 367.22Z" fill="white"/>
<path d="M288.48 228.874C287.037 229.287 285.897 230.087 286.163 231.797C286.418 233.386 287.485 234.271 289.146 234.028C290.529 233.822 291.257 232.767 291.232 231.47C291.208 229.845 290.202 228.959 288.48 228.874Z" fill="white"/>
<path d="M620.44 209.386C618.561 209.653 617.531 210.732 617.7 212.564C617.834 214.067 618.767 215.147 620.429 215.062C622.345 214.977 623.242 213.837 623.108 211.957C622.999 210.308 621.896 209.629 620.44 209.386Z" fill="white"/>
<path d="M358.774 178.644C356.797 178.583 355.815 179.529 355.634 181.033C355.415 182.913 356.591 184.101 358.362 184.186C359.793 184.247 361.03 183.446 361.163 181.749C361.321 179.82 360.326 178.826 358.774 178.644Z" fill="white"/>
<path d="M375.484 177.771C375.642 179.469 376.648 180.269 378.261 180.172C379.922 180.063 380.759 178.959 380.638 177.371C380.516 175.782 379.522 174.861 377.849 174.97C376.127 175.079 375.484 176.17 375.484 177.771Z" fill="white"/>
<path d="M242.328 28.4745C240.327 28.9838 239.466 30.1359 239.806 31.9792C240.085 33.5315 241.164 34.4046 242.74 34.2106C244.28 34.0165 245.263 32.9494 245.214 31.3971C245.153 29.5781 243.953 28.6564 242.328 28.4745Z" fill="white"/>
<path d="M13.5958 399.272C15.3056 399.126 16.251 398.156 16.2632 396.568C16.2753 395.258 15.5119 394.288 14.0689 394.191C12.444 394.082 11.2673 394.773 11.1581 396.458C11.0369 398.083 12.08 398.969 13.5958 399.272Z" fill="white"/>
<path d="M77.439 406.912C77.7664 408.561 78.7971 409.349 80.4219 409.119C82.1317 408.876 82.7743 407.627 82.4954 406.063C82.265 404.729 81.2584 404.05 79.876 404.135C78.1905 404.232 77.4512 405.263 77.439 406.912Z" fill="white"/>
<path d="M557.98 229.311C559.338 229.19 560.271 228.523 560.429 227.116C560.587 225.733 560.004 224.739 558.549 224.521C556.815 224.266 555.76 225.224 555.712 226.837C555.651 228.183 556.67 228.996 557.98 229.311Z" fill="white"/>
<path d="M721.971 178.353C720.31 178.511 719.377 179.432 719.498 181.069C719.607 182.67 720.601 183.628 722.25 183.531C723.887 183.434 724.797 182.391 724.748 180.791C724.712 179.105 723.548 178.438 721.971 178.353Z" fill="white"/>
<path d="M48.2398 173.029C48.4095 174.024 49.4524 174.945 51.041 174.642C52.5082 174.363 53.5146 173.308 53.1387 171.586C52.8477 170.24 51.8171 169.464 50.556 169.549C49.0039 169.67 47.9851 170.616 48.2398 173.029Z" fill="white"/>
<path d="M489.941 158.174C490.596 159.508 491.529 160.551 493.178 160.017C494.755 159.52 495.325 158.259 494.84 156.694C494.44 155.397 493.36 154.754 492.063 155.057C490.535 155.421 489.686 156.452 489.941 158.174Z" fill="white"/>
<path d="M773.738 327.88C772.028 328.062 771.045 328.959 771.057 330.584C771.082 332.294 772.21 333.034 773.847 332.961C775.241 332.9 776.042 332.136 776.09 330.705C776.163 329.02 775.253 328.159 773.738 327.88Z" fill="white"/>
<path d="M397.589 177.589C399.348 177.589 400.366 176.813 400.451 175.164C400.536 173.563 399.687 172.496 398.038 172.423C396.438 172.35 395.358 173.235 395.261 174.836C395.177 176.437 396.122 177.383 397.589 177.589Z" fill="white"/>
<path d="M21.4778 357.64C21.4778 359.289 22.29 360.38 23.9149 360.453C25.5398 360.526 26.5341 359.483 26.5705 357.87C26.6068 356.536 25.7701 355.614 24.4241 355.445C22.7992 355.238 21.7324 355.942 21.4778 357.64Z" fill="white"/>
<path d="M335.674 2.83792C335.625 4.63273 336.377 5.68779 338.05 5.76055C339.59 5.82118 340.791 5.22697 340.84 3.42003C340.876 1.80713 340.184 0.715699 338.487 0.582301C336.801 0.448904 335.977 1.44331 335.674 2.83792Z" fill="white"/>
<path d="M453.235 154.705C454.703 154.499 455.672 153.541 455.527 151.952C455.381 150.412 454.339 149.466 452.678 149.588C450.992 149.709 450.168 150.825 450.253 152.365C450.337 153.978 451.453 154.742 453.235 154.705Z" fill="white"/>
<path d="M309.118 222.762C309.239 221.065 308.427 220.046 306.766 219.961C305.105 219.876 304.159 220.798 304.122 222.508C304.098 223.902 304.777 224.824 306.196 224.957C307.748 225.091 308.961 224.606 309.118 222.762Z" fill="white"/>
<path d="M341.555 207.858C341.482 209.653 342.209 210.757 343.919 210.793C345.18 210.817 346.248 210.259 346.551 208.828C346.915 207.082 345.933 206.039 344.453 205.736C342.853 205.409 341.822 206.355 341.555 207.858Z" fill="white"/>
</svg>
