<svg width="80" height="80" viewBox="0 0 80 80" fill="none" xmlns="http://www.w3.org/2000/svg">
<path d="M13.7265 38.5664C12.3972 38.5664 11.147 39.0844 10.2053 40.0262C8.2695 41.9678 8.2695 45.1269 10.2065 47.0697C11.1472 48.0103 12.3972 48.5283 13.7265 48.5283C15.0561 48.5283 16.3061 48.0103 17.2454 47.0709C18.1878 46.1312 18.7073 44.8817 18.7083 43.5526C18.7093 42.2216 18.1903 40.9687 17.2467 40.025C16.3061 39.0844 15.0561 38.5664 13.7265 38.5664ZM15.5893 45.4125C15.0914 45.9105 14.43 46.1845 13.7265 46.1845C13.0232 46.1845 12.3617 45.9103 11.8651 45.4136C10.839 44.3845 10.839 42.71 11.8639 41.6822C12.3617 41.1844 13.0232 40.9101 13.7265 40.9101C14.43 40.9101 15.0914 41.1844 15.5893 41.6822C16.0898 42.1828 16.3653 42.8464 16.3647 43.5509C16.3642 44.2533 16.0892 44.9141 15.5893 45.4125Z" fill="#00C8C8"/>
<path d="M37.5435 63.9469C37.0878 63.4872 36.3504 63.4883 35.8907 63.9442C35.4312 64.3998 35.4323 65.1463 35.8879 65.6059C36.1171 65.837 36.4184 65.9528 36.7201 65.9528C37.0182 65.9528 37.3167 65.8397 37.5451 65.6131C38.0046 65.1575 38.0079 64.4155 37.5523 63.9559L37.5435 63.9469Z" fill="#00C8C8"/>
<path d="M71.4525 43.925H59.4492C58.8018 43.925 58.2773 44.4497 58.2773 45.0969C58.2773 45.7441 58.8018 46.2688 59.4492 46.2688H71.4525C73.06 46.2688 74.3678 47.7503 74.3678 49.5716V50.6972H40.5725V46.2688H54.0084C54.6557 46.2688 55.1803 45.7441 55.1803 45.0969C55.1803 44.4497 54.6557 43.925 54.0084 43.925H40.1976C39.112 43.925 38.2287 44.8402 38.2287 45.9652V51.0008C38.2287 52.1258 39.1118 53.0409 40.1976 53.0409H52.6593C52.1664 53.6652 51.6343 54.2647 51.0651 54.8339C48.8359 57.0631 46.1121 58.7427 43.1425 59.7333C41.849 57.5263 39.4534 56.04 36.7159 56.04C33.9801 56.04 31.5857 57.5244 30.2918 59.7292C27.3271 58.7394 24.6073 57.0611 22.3803 54.8341C21.479 53.9327 20.6693 52.955 19.9618 51.9189C20.3612 51.6211 20.7446 51.2925 21.107 50.9302C23.0789 48.9581 24.165 46.3364 24.165 43.5481C24.165 40.76 23.079 38.1398 21.1075 36.17C20.0784 35.1395 18.8706 34.3538 17.5553 33.8355C18.3537 31.5242 19.5487 29.4105 21.1206 27.5289L32.0887 36.6708C32.4448 36.97 32.8857 37.1298 33.346 37.1298C33.4059 37.1298 33.466 37.1272 33.5264 37.1217C33.8385 37.0936 34.132 36.9925 34.3896 36.8316L35.9929 38.1702C36.6121 38.6856 37.3648 38.937 38.1131 38.937C39.0623 38.937 40.0043 38.5323 40.6568 37.7486L40.8418 37.5267L43.1023 39.4119C43.8204 40.0106 44.6982 40.3042 45.5915 40.3042C46.695 40.3042 47.8217 39.8556 48.6976 38.9797C49.417 38.2602 49.7868 37.2806 49.7389 36.2213C49.6864 35.0634 49.1468 33.975 48.2595 33.2356L45.9967 31.3456L46.1809 31.1247C46.7465 30.4486 47.0142 29.5898 46.9345 28.7064C46.8548 27.8233 46.4378 27.0263 45.7617 26.4634L44.1531 25.12C44.2671 24.8327 44.3132 24.5206 44.2823 24.2039C44.2314 23.6809 43.9796 23.2106 43.5835 22.8877L40.3424 20.185L40.3423 20.1848L27.1696 9.20656C26.115 8.32437 24.7757 7.90672 23.3964 8.03C22.236 8.13406 21.1709 8.61172 20.3351 9.38969L16.275 5.99922L16.2926 5.97812C17.5815 4.4389 17.3762 2.13656 15.8331 0.844061C15.0868 0.221561 14.1401 -0.0725019 13.1684 0.0153106C12.1967 0.103436 11.3189 0.563123 10.6965 1.30922L4.95277 8.19281C4.33073 8.93875 4.03605 9.88469 4.12339 10.8561C4.21089 11.8277 4.66917 12.7047 5.4137 13.325C6.09433 13.8928 6.92324 14.1698 7.74792 14.1698C8.79152 14.1698 9.82839 13.7259 10.5489 12.8659C10.5493 12.8653 10.55 12.8647 10.5504 12.8639L10.569 12.8416L14.6306 16.2298C13.4665 18.05 13.5707 20.3991 14.8345 22.1006C11.8646 25.6286 9.7948 29.8295 8.80277 34.3408C7.91027 34.8197 7.08323 35.4322 6.34698 36.1684C4.37464 38.1384 3.28839 40.7591 3.28839 43.5475C3.28839 46.3358 4.37448 48.9575 6.34698 50.93C7.7787 52.36 9.52605 53.285 11.3662 53.7092C12.7035 56.2791 14.4307 58.6309 16.5064 60.7069C20.0534 64.2541 24.4506 66.7944 29.2707 68.0923V71.1688H21.3421C20.6948 71.1688 20.1703 71.6934 20.1703 72.3406C20.1703 72.9878 20.6948 73.5125 21.3421 73.5125H65.1257C65.1373 73.5125 65.1559 73.5311 65.1559 73.5427V77.6255C65.1559 77.637 65.1373 77.6558 65.1257 77.6558H8.30589C8.29433 77.6558 8.27573 77.637 8.27573 77.6255V73.5427C8.27573 73.5311 8.29433 73.5125 8.30589 73.5125H15.9015C16.5489 73.5125 17.0734 72.9878 17.0734 72.3406C17.0734 71.6934 16.5489 71.1688 15.9015 71.1688H8.30589C6.99683 71.1688 5.93198 72.2338 5.93198 73.5427V77.6255C5.93198 78.9345 6.99683 79.9995 8.30589 79.9995H65.1257C66.4348 79.9995 67.4996 78.9345 67.4996 77.6255V73.5427C67.4996 72.2338 66.4348 71.1688 65.1257 71.1688H44.161V68.097C48.9887 66.7984 53.389 64.2564 56.9342 60.7069C59.1889 58.452 61.0289 55.8755 62.4126 53.0403H74.7473C75.8306 53.0403 76.7117 52.1252 76.7117 51.0002V49.5709C76.7115 46.458 74.3525 43.925 71.4525 43.925ZM46.7579 35.0353C47.1359 35.3503 47.375 35.8333 47.3973 36.3275C47.41 36.6059 47.3582 37.0045 47.0401 37.3227C46.411 37.9516 45.3725 38.2531 44.6032 37.6119L42.3428 35.727L43.5339 34.2989L44.4957 33.1461L46.7579 35.0353ZM44.2606 28.2636C44.4562 28.4264 44.5767 28.6584 44.6001 28.917C44.6234 29.1758 44.5464 29.4258 44.382 29.6222L38.856 36.2481C38.5209 36.6503 37.8965 36.7056 37.4934 36.3698L35.966 35.0947L42.7282 26.9839L44.2606 28.2636ZM21.6809 11.3681C22.1642 10.7889 22.8478 10.4325 23.6056 10.3645C23.6929 10.3567 23.7796 10.3528 23.8662 10.3528C24.527 10.3528 25.1582 10.5798 25.6673 11.0058L41.7928 24.4461L33.3015 34.6308L17.1759 21.1903C15.9779 20.1941 15.8164 18.4058 16.8146 17.205L21.6809 11.3681ZM8.7512 11.3622C8.28964 11.912 7.4662 11.9853 6.91464 11.525C6.6512 11.3055 6.48886 10.9934 6.45761 10.6462C6.42636 10.298 6.53105 9.95969 6.75245 9.69437L12.496 2.81078C12.7178 2.545 13.0317 2.38125 13.38 2.34969C13.4207 2.34594 13.4614 2.34406 13.5017 2.34406C13.806 2.34406 14.097 2.44828 14.3298 2.6425C14.8803 3.10375 14.9548 3.925 14.494 4.47531L8.7512 11.3622ZM12.0701 11.0417L14.7739 7.79922L18.8012 11.1623L16.0995 14.4031L12.0701 11.0417ZM16.5428 23.7134L19.321 26.0291C17.5506 28.1573 16.1765 30.6109 15.2889 33.2266C14.7768 33.1502 14.2554 33.1111 13.7282 33.1111C12.957 33.1111 12.1992 33.1972 11.4637 33.3591C12.4606 29.8256 14.1896 26.538 16.5428 23.7134ZM8.0037 49.2727C6.47433 47.7433 5.63198 45.7102 5.63198 43.5478C5.63198 41.3858 6.47417 39.3541 8.0037 37.8264C9.53292 36.297 11.566 35.4547 13.7282 35.4547C15.8901 35.4547 17.9218 36.2969 19.4489 37.8258C19.4492 37.8261 19.4495 37.8264 19.45 37.8269C20.9789 39.3539 21.821 41.3856 21.821 43.5477C21.821 45.71 20.9787 47.7431 19.4493 49.2725C16.2954 52.4264 11.1609 52.4261 8.0037 49.2727ZM29.2707 63.4852V65.6548C25.086 64.4184 21.2696 62.1561 18.1637 59.05C16.6253 57.5114 15.296 55.8083 14.1953 53.9692C15.4729 53.9125 16.7409 53.6208 17.9315 53.0986C18.7434 54.3073 19.6778 55.4458 20.7226 56.4909C23.1789 58.9472 26.1732 60.8053 29.4389 61.9148C29.3296 62.4214 29.2707 62.9464 29.2707 63.4852ZM41.8173 71.1692H31.6145V63.4853C31.6145 60.6723 33.9029 58.3838 36.7157 58.3838C39.5287 58.3838 41.8171 60.6723 41.8171 63.4853V71.1692H41.8173ZM55.2762 59.0506C52.1717 62.1589 48.3525 64.4228 44.161 65.6597V63.4852C44.161 62.948 44.1025 62.4245 43.994 61.9194C47.2651 60.8094 50.2637 58.9495 52.7225 56.4909C53.7859 55.4273 54.7364 54.2691 55.555 53.0408H59.7762C58.5792 55.2398 57.0712 57.2556 55.2762 59.0506Z" fill="#00C8C8"/>
</svg>
