<svg width="80" height="80" viewBox="0 0 80 80" fill="none" xmlns="http://www.w3.org/2000/svg">
<g clip-path="url(#clip0_675:2221)">
<path d="M79.9073 58.7455C79.6913 57.8007 79.12 56.9968 78.2993 56.4817L58.5695 44.0995C57.5827 43.4803 56.4597 43.1275 55.3013 43.0644V29.2503C55.3013 28.6029 54.7767 28.0784 54.1295 28.0784C53.4823 28.0784 52.9577 28.6029 52.9577 29.2503V43.0513H50.6968V20.1132C51.2538 20.2021 52.1641 20.1447 52.9577 19.8427V23.7815C52.9577 24.4288 53.4823 24.9534 54.1295 24.9534C54.7767 24.9534 55.3013 24.4288 55.3013 23.7815V17.7767C55.6534 17.1311 55.8537 16.3914 55.8537 15.6058C55.8537 13.9016 54.9112 12.4142 53.5205 11.635L47.7294 5.08019C47.3391 2.96556 45.4829 1.35811 43.257 1.35811C41.647 1.35811 40.2308 2.19949 39.4221 3.46492L33.1454 7.24981C31.1795 5.82048 28.5327 5.42658 26.1388 6.44608L25.6977 6.63389C24.793 7.01935 24.3705 8.06901 24.7558 8.97351L28.974 18.8792C29.3902 19.8193 30.4444 20.093 31.7545 19.6337C33.5367 18.9499 34.8691 17.5 35.5818 15.7302C35.8608 15.0372 36.0261 14.3177 36.081 13.5937L41.7267 10.1907C42.1894 10.3566 42.6866 10.4489 43.204 10.455L46.8685 14.6018C46.4797 15.9066 47.1224 18.1457 48.3531 19.0632V43.0511H32.9545L35.3797 37.3908H40.6155C42.037 37.3908 43.1936 36.2343 43.1936 34.8128V33.0197C43.1936 31.5982 42.037 30.4416 40.6155 30.4416H37.6611C37.0139 30.4416 36.4892 30.9661 36.4892 31.6135C36.4892 32.2608 37.0139 32.7853 37.6611 32.7853H40.6155C40.7447 32.7853 40.8499 32.8905 40.8499 33.0197V34.8128C40.8499 34.942 40.7447 35.0471 40.6155 35.0471H24.51C24.3808 35.0471 24.2757 34.942 24.2757 34.8128V33.0197C24.2757 32.8905 24.3808 32.7853 24.51 32.7853H32.1925C32.8396 32.7853 33.3643 32.2608 33.3643 31.6135C33.3643 30.9661 32.8396 30.4416 32.1925 30.4416H24.51C23.0885 30.4416 21.932 31.5982 21.932 33.0197V34.8128C21.932 36.2343 23.0885 37.3908 24.51 37.3908H27.8195L25.3942 43.0511H22.1106C21.9639 43.0511 21.8323 42.9636 21.7756 42.8283L14.9944 26.6605L17.3134 25.6835C18.6866 25.1051 19.3349 23.5164 18.7586 22.1422L15.9547 15.4546C15.6747 14.7869 15.1513 14.2685 14.481 13.9949C13.8105 13.7213 13.074 13.7254 12.407 14.0068L10.0958 14.981L9.52392 13.6176C9.14909 12.724 8.44864 12.0298 7.55163 11.663C6.65447 11.2958 5.66841 11.3005 4.77499 11.6753L2.22679 12.7442C1.33306 13.1189 0.638864 13.8193 0.272 14.7163C-0.0948643 15.6132 -0.0904894 16.5994 0.284343 17.4929L5.20795 29.232C5.45841 29.829 6.14542 30.1096 6.74181 29.8595C7.33867 29.6092 7.6196 28.9225 7.36929 28.3258L2.44569 16.5866C2.31288 16.2703 2.31147 15.9211 2.44131 15.6036C2.57131 15.2863 2.81693 15.0383 3.13332 14.9055L5.68169 13.8366C5.99793 13.7037 6.34714 13.7024 6.66463 13.8323C6.98212 13.9623 7.23008 14.2079 7.36273 14.5244C10.4322 21.8425 16.5123 36.3388 19.6146 43.7351C20.0375 44.7436 21.0175 45.3951 22.1109 45.3951H54.9274C55.7762 45.3951 56.6049 45.6335 57.3238 46.0848L77.0535 58.4669C77.3441 58.6492 77.5463 58.9339 77.6229 59.2683C77.6994 59.6028 77.6412 59.947 77.4587 60.2375L75.9898 62.5779C75.6133 63.1779 74.8191 63.3594 74.2192 62.9832L56.3604 51.7751C55.2676 51.0893 54.0083 50.7268 52.7181 50.7268H19.0482C17.6612 50.7268 16.4184 49.9004 15.8819 48.6213L9.48908 33.3797C9.23862 32.783 8.55192 32.5022 7.95521 32.7523C7.35851 33.0025 7.07743 33.6894 7.32773 34.286L13.7205 49.5278C14.6231 51.6798 16.7143 53.0703 19.048 53.0703H20.6038V53.5969C20.6038 56.7826 23.1954 59.3742 26.3809 59.3742H27.2559V66.0028H24.7919C21.9439 66.0028 19.19 67.1913 17.2367 69.2638L15.3333 71.2833C15.3078 71.3103 15.2842 71.3386 15.2617 71.3673H14.0941C12.6015 71.3673 11.3871 72.5816 11.3871 74.0743V75.9347C11.3871 77.4273 12.6015 78.6416 14.0941 78.6416H64.5642C66.0568 78.6416 67.2711 77.4273 67.2711 75.9347V74.0743C67.2711 72.5816 66.0568 71.3673 64.5642 71.3673H63.3966C63.3741 71.3386 63.3505 71.3103 63.325 71.2833L61.4215 69.2638C59.7989 67.5424 57.6238 66.4335 55.3015 66.1064V53.8775L72.9732 64.968C73.5711 65.3431 74.237 65.522 74.8958 65.522C76.1037 65.522 77.2865 64.92 77.9747 63.8236L79.4436 61.4832C79.9588 60.6625 80.1234 59.6902 79.9073 58.7455ZM51.3046 17.8114C50.0885 17.8114 49.0992 16.822 49.0992 15.606C49.0992 14.3899 50.0885 13.4006 51.3046 13.4006C52.5206 13.4006 53.51 14.3899 53.51 15.606C53.51 16.822 52.5206 17.8114 51.3046 17.8114ZM43.2572 3.70195C44.3034 3.69492 45.4783 4.66192 45.4626 5.90735C45.4626 7.12341 44.4732 8.11275 43.2572 8.11275C42.0411 8.11275 41.0518 7.12341 41.0518 5.90735C41.0518 4.69129 42.0409 3.70195 43.2572 3.70195ZM35.5283 10.2653C35.3914 9.94458 35.2044 9.56209 34.8252 8.97414L38.7609 6.60092C38.8809 7.38231 39.2015 8.09822 39.6668 8.69602L35.8016 11.0258C35.7247 10.7692 35.6347 10.5152 35.5283 10.2653ZM33.4078 14.8551C32.939 16.0188 32.054 16.9359 30.9106 17.4453L27.132 8.57149C29.5493 7.58964 32.3265 8.72805 33.3521 11.1364C33.7959 12.1697 33.9288 13.4907 33.4078 14.8551ZM45.7007 9.74146C46.3472 9.32788 46.8835 8.75633 47.2525 8.08041L50.041 11.2366C49.2823 11.4563 48.6045 11.8681 48.0647 12.4165L45.7007 9.74146ZM13.3172 16.1664C13.4321 16.118 13.5319 16.1388 13.5955 16.1649C13.6591 16.1908 13.7452 16.246 13.7933 16.3608L16.5973 23.0484C16.6746 23.2328 16.5876 23.4461 16.4033 23.5237L14.0878 24.4993L11.0022 17.1422L13.3172 16.1664ZM30.3694 37.391H32.8298L30.4046 43.0513H27.9442L30.3694 37.391ZM52.958 53.0788V66.0028H50.6962V53.0703L52.958 53.0788ZM34.209 66.0028V59.3742H35.0841C38.2696 59.3742 40.8613 56.7826 40.8613 53.5969V53.0703H48.3526V66.0028H34.209ZM22.9476 53.597V53.0705H38.5176V53.597C38.5176 55.4903 36.9773 57.0307 35.0841 57.0307H26.3811C24.4879 57.0305 22.9476 55.4903 22.9476 53.597ZM29.5997 59.3742H31.8653V66.0028H29.5997V59.3742ZM59.7161 70.8714L60.1834 71.3673H39.3293C38.6821 71.3673 38.1575 71.8918 38.1575 72.5392C38.1575 73.1865 38.6821 73.711 39.3293 73.711H64.5644C64.7647 73.711 64.9276 73.874 64.9276 74.0743V75.9347C64.9276 76.135 64.7647 76.298 64.5644 76.298H14.0943C13.8939 76.298 13.731 76.135 13.731 75.9347V74.0743C13.731 73.874 13.8939 73.711 14.0943 73.711H33.9254C34.5726 73.711 35.0972 73.1865 35.0972 72.5392C35.0972 71.8918 34.5726 71.3673 33.9254 71.3673H18.4749L18.9422 70.8714C20.4549 69.2666 22.587 68.3465 24.7921 68.3465H53.8664C56.0715 68.3465 58.2036 69.2667 59.7161 70.8714Z" fill="#00C8C8"/>
</g>
<defs>
<clipPath id="clip0_675:2221">
<rect width="80" height="80" fill="white"/>
</clipPath>
</defs>
</svg>
