<svg width="80" height="80" viewBox="0 0 80 80" fill="none" xmlns="http://www.w3.org/2000/svg">
<path d="M66.0161 42.2833C65.3731 42.2833 64.8519 42.8045 64.8519 43.4475C64.8519 44.2627 64.1888 44.9258 63.3736 44.9258C62.5586 44.9258 61.8953 44.2627 61.8953 43.4475C61.8953 42.8044 61.3741 42.2833 60.7311 42.2833C60.0881 42.2833 59.5669 42.8045 59.5669 43.4475C59.5669 45.5466 61.2747 47.2542 63.3736 47.2542C65.4725 47.2542 67.1803 45.5464 67.1803 43.4475C67.1803 42.8042 66.6591 42.2833 66.0161 42.2833Z" fill="#00C8C8"/>
<path d="M76.9444 42.4734L73.6675 41.4238C73.2478 41.2892 72.917 40.9542 72.7828 40.5275C72.0922 38.3317 71.05 36.2703 69.6852 34.4003C69.0631 33.548 68.3714 32.7341 67.6158 31.9592C68.0992 29.8384 68.362 27.4383 68.328 25.3647C68.2792 22.3983 67.6864 20.6584 66.5158 20.0453C65.8853 19.7147 63.9666 18.7103 53.5811 23.4644C53.3352 23.5769 53.1055 23.7155 52.8928 23.8742C52.1927 23.6861 51.477 23.512 50.757 23.3558C50.6703 23.3369 50.5809 23.3202 50.4936 23.3017C51.3352 21.4633 51.8266 19.4666 51.9189 17.4053C51.9477 16.7628 51.4503 16.2188 50.8078 16.1902C50.167 16.1583 49.6213 16.6586 49.5927 17.3011C49.4409 20.6903 48.035 23.8792 45.6341 26.2803C44.1995 27.7148 42.5198 28.7569 40.7297 29.4131C37.6252 28.9775 34.463 28.9775 31.3584 29.4131C29.5681 28.7569 27.8886 27.7148 26.4541 26.2803C23.8925 23.7188 22.4817 20.313 22.4817 16.6903C22.4817 13.0675 23.8925 9.66188 26.4541 7.10032C29.0156 4.5386 32.4216 3.12782 36.0441 3.12782C39.6666 3.12782 43.0725 4.5386 45.6341 7.10032C46.6634 8.12969 47.5141 9.30438 48.1623 10.5914C48.4516 11.1658 49.1517 11.397 49.7259 11.1077C50.3003 10.8186 50.5314 10.1184 50.2422 9.54423C49.4823 8.03501 48.4859 6.65891 47.2808 5.4536C44.2794 2.45219 40.2887 0.799225 36.0442 0.799225C31.7997 0.799225 27.8091 2.45219 24.8077 5.4536C21.8062 8.45516 20.1533 12.4456 20.1533 16.6902C20.1533 20.9347 21.8062 24.9253 24.8077 27.9267C25.6734 28.7925 26.6153 29.537 27.6116 30.1608C27.6119 30.1608 27.6122 30.1606 27.6125 30.1606C26.8886 30.3488 26.1702 30.56 25.4597 30.7975C24.8498 31.0014 24.5208 31.6609 24.7247 32.2709C24.9284 32.8808 25.5883 33.2099 26.198 33.0061C32.5473 30.8834 39.5411 30.8834 45.8905 33.0061C46.013 33.047 46.1373 33.0664 46.2597 33.0664C46.7467 33.0664 47.2008 32.7583 47.3637 32.2709C47.5677 31.6611 47.2386 31.0014 46.6288 30.7975C45.9183 30.56 45.1998 30.3486 44.4759 30.1606C44.4762 30.1606 44.4766 30.1608 44.4769 30.1608C45.4733 29.537 46.415 28.7925 47.2808 27.9267C48.0467 27.1608 48.7228 26.3244 49.3098 25.4355C49.6308 25.4978 49.9494 25.5631 50.2633 25.6313C50.6814 25.722 51.0977 25.8195 51.5102 25.9219C51.4972 25.9725 51.4839 26.023 51.4731 26.0744C50.9053 28.7689 50.9422 31.152 51.5827 33.1572C52.1583 34.9595 53.1972 36.4197 54.6702 37.4973C56.4062 38.7673 58.5022 39.3159 60.4008 39.3159C61.8297 39.3159 63.147 39.005 64.1145 38.457C65.2089 37.8372 66.1258 36.5311 66.8516 34.5702C67.187 34.9617 67.505 35.3628 67.8047 35.7734C69.0198 37.4381 69.9475 39.2728 70.5619 41.2263C70.9227 42.3736 71.8183 43.2764 72.9575 43.6416L76.2344 44.6913C77.0942 44.9667 77.6719 45.7581 77.6719 46.6609V52.0945C77.6719 52.9974 77.0942 53.7888 76.2344 54.0642L70.9548 55.7553C70.1102 56.0261 69.3953 56.6066 68.942 57.39C66.8678 60.9747 63.6067 63.9411 59.2487 66.2069C58.7453 66.4689 58.3966 66.9375 58.2916 67.4928L56.6006 76.4464C56.5539 76.6931 56.3378 76.872 56.0867 76.872H50.5888C50.3377 76.872 50.1216 76.693 50.0748 76.4464L49.1383 71.4981C48.9539 70.5245 48.0408 69.8778 47.058 70.0267C44.6897 70.3848 42.2494 70.5663 39.8052 70.5663C37.9867 70.5663 36.1916 70.4649 34.4692 70.2647C33.5169 70.1552 32.6297 70.8044 32.4517 71.7447L31.5617 76.4464C31.515 76.6931 31.2989 76.872 31.0478 76.872H25.5498C25.2987 76.872 25.0827 76.693 25.0353 76.4427L23.4072 67.9861C23.3023 67.4413 22.9602 66.978 22.4678 66.715C15.0391 62.7492 11.1125 56.1236 11.1125 47.5549C11.1125 43.2255 12.0597 39.3972 13.9277 36.1759C15.6708 33.1698 18.2167 30.6844 21.4947 28.7883C22.0512 28.4663 22.2414 27.7541 21.9195 27.1973C21.5977 26.6408 20.8855 26.4509 20.3288 26.7725C13.9727 30.4494 10.1391 36.1219 9.08359 43.3266V43.3264C8.97156 43.3163 8.85938 43.3066 8.74766 43.295C8.76797 42.5177 8.62734 41.7333 8.32109 40.972C7.64563 39.293 6.25812 38.0811 4.78609 37.8847C3.62609 37.7294 2.52219 38.2219 1.75609 39.2341C0.645313 40.7019 0.826406 41.8634 1.17375 42.5794C1.76016 43.7877 3.2675 44.6423 5.76891 45.1797C5.70016 45.2827 5.62453 45.3861 5.54172 45.49C4.06375 47.3436 2.3225 47.7534 1.19187 47.792C0.53 47.8144 0 48.3458 0 49.0081V49.0138C0 49.667 0.515469 50.1999 1.16812 50.2297C1.25172 50.2336 1.33906 50.2356 1.43 50.2356C2.86063 50.2356 5.15672 49.708 7.36266 46.9419C7.71094 46.5053 7.99469 46.0447 8.21281 45.5688C8.4325 45.5936 8.64359 45.6148 8.84578 45.6336C8.84578 45.6331 8.84578 45.6328 8.84594 45.6324C8.80625 46.2633 8.78422 46.9034 8.78422 47.5549C8.78422 52.403 9.94 56.7256 12.2192 60.4033C14.3208 63.7939 17.3297 66.5702 21.1653 68.658L22.7481 76.8792C23.0027 78.2242 24.1809 79.2005 25.5498 79.2005H31.0478C32.4167 79.2005 33.595 78.2242 33.8495 76.8792L34.6542 72.628C36.3255 72.805 38.0558 72.8947 39.805 72.8947C42.205 72.8947 44.6022 72.7275 46.9384 72.3975L47.7867 76.8795C48.0414 78.2245 49.2197 79.2006 50.5884 79.2006H56.0864C57.4553 79.2006 58.6336 78.2244 58.8883 76.8789L60.5347 68.1616C65.1859 65.702 68.6919 62.4711 70.9572 58.5561C71.1205 58.2739 71.3719 58.0669 71.665 57.973L76.9444 56.2819C78.772 55.6961 80 54.0134 80 52.0942V46.6606C80 44.7416 78.772 43.0589 76.9444 42.4734ZM65.8247 28.6364C65.3766 32.4686 64.1745 35.7467 62.9667 36.4308C61.5939 37.2084 58.4244 37.3586 56.0447 35.6178C53.6622 33.875 52.8692 30.7409 53.7513 26.5544C53.7513 26.5542 53.7513 26.5542 53.7513 26.5542C53.8398 26.1338 54.1386 25.77 54.5503 25.5816C60.3791 22.9134 63.7395 22.0408 64.988 22.0408C65.1764 22.0408 65.3167 22.0606 65.4102 22.0972C65.7852 22.4969 66.277 24.7689 65.8247 28.6364ZM3.26891 41.5627C3.14844 41.3142 3.43281 40.8775 3.61313 40.6391C3.89891 40.2616 4.16219 40.1844 4.36109 40.1844C4.40312 40.1844 4.44234 40.1878 4.47828 40.1927C5.01359 40.2641 5.76359 40.8531 6.16094 41.8408C6.25453 42.0733 6.37609 42.4584 6.40453 42.9388C4.79281 42.6049 3.54062 42.1234 3.26891 41.5627Z" fill="#00C8C8"/>
<path d="M37.1747 15.3558V11.1895C38.6115 11.2922 39.1452 11.9489 39.6377 11.9489C40.2535 11.9489 40.5408 11.1691 40.5408 10.7791C40.5408 9.77329 38.5704 9.34236 37.1747 9.30126V8.74689C37.1747 8.50064 36.8668 8.27486 36.559 8.27486C36.2099 8.27486 35.9636 8.50064 35.9636 8.74689V9.34204C34.0138 9.54736 32.064 10.5736 32.064 13.1597C32.064 15.7869 34.1165 16.5258 35.9636 17.1825V22.0058C33.87 21.8416 33.316 20.4049 32.6386 20.4049C32.1255 20.4049 31.6946 21.0822 31.6946 21.5749C31.6946 22.5805 33.4186 23.9556 35.9636 23.9967V24.633C35.9636 24.8792 36.21 25.105 36.559 25.105C36.8669 25.105 37.1747 24.8792 37.1747 24.633V23.9352C39.3915 23.6272 40.9102 22.2316 40.9102 19.707C40.9102 16.9158 38.9604 16.0125 37.1747 15.3558ZM36.0868 14.966C34.999 14.5555 34.1165 14.1245 34.1165 12.9547C34.1165 11.8874 34.9374 11.3742 36.0868 11.2306V14.966ZM37.0515 21.9647V17.6341C38.0571 18.065 38.8575 18.6397 38.8575 19.9327C38.8575 21.1028 38.1597 21.7595 37.0515 21.9647Z" fill="#00C8C8"/>
</svg>
