<svg width="72" height="80" viewBox="0 0 72 80" fill="none" xmlns="http://www.w3.org/2000/svg">
<path d="M71.4259 75.9036L67.8868 55.1844C67.5054 52.952 65.9218 51.1588 63.7536 50.5047L54.2079 47.6245C54.0103 45.2911 53.0536 43.0897 51.4614 41.3472C50.1878 39.9534 48.5859 38.9386 46.8201 38.3786C47.1223 38.0433 47.4025 37.7091 47.6595 37.3822C49.9295 34.4952 51.1448 31.3145 51.4542 29.1441H52.1906C54.1059 29.1441 55.6642 27.5859 55.6642 25.6705V23.8898C55.6642 22.6116 54.9451 21.4533 53.8637 20.8522V16.5703C53.8637 15.9233 53.3392 15.3988 52.6922 15.3988C52.0451 15.3988 51.5208 15.9231 51.5208 16.5703V21.3772C51.0645 21.4564 50.5201 21.5933 49.9632 21.8278C49.9062 21.8486 49.8507 21.8727 49.7982 21.9016C49.6725 21.9589 49.5465 22.0194 49.4211 22.0875V12.6466C49.4211 10.0383 47.2992 7.91641 44.6909 7.91641H41.4573C40.342 7.91641 39.2525 8.305 38.389 9.01094L38.0717 9.27031C37.4889 9.74687 36.7533 10.0094 36.0003 10.0094C35.2473 10.0094 34.5115 9.74687 33.9287 9.27031L33.6115 9.01094C32.7481 8.30516 31.6586 7.91641 30.5433 7.91641H27.3094C24.7011 7.91641 22.5792 10.0383 22.5792 12.6466V22.0875C22.4537 22.0194 22.3278 21.9589 22.202 21.9016C22.1495 21.8727 22.0942 21.8486 22.0372 21.8278C21.4803 21.5933 20.9358 21.4564 20.4797 21.3772V9.22266C20.4797 5.42922 23.5659 2.34297 27.3594 2.34297H44.6408C48.4343 2.34297 51.5204 5.42922 51.5204 9.22266V11.0642C51.5204 11.7112 52.045 12.2358 52.6918 12.2358C53.3387 12.2358 53.8634 11.7114 53.8634 11.0642V9.22266C53.8634 4.13734 49.7261 0 44.6408 0H27.3594C22.2739 0 18.1367 4.13734 18.1367 9.22266V20.8523C17.0553 21.4534 16.3362 22.6116 16.3362 23.89V25.6706C16.3362 27.5861 17.8945 29.1442 19.8098 29.1442H20.5462C20.8554 31.3147 22.0709 34.4953 24.3409 37.3823C24.5976 37.7089 24.8776 38.0428 25.1795 38.3778C21.1201 39.6672 18.1598 43.3169 17.7925 47.6245L8.24655 50.5047C6.07827 51.1588 4.49452 52.952 4.11327 55.1844L2.67608 63.5983C2.56717 64.2361 2.99592 64.8412 3.63358 64.9502C4.27108 65.0594 4.87655 64.6305 4.98561 63.9927L6.4228 55.5788C6.65342 54.2281 7.61155 53.1434 8.92326 52.7478L17.7522 50.0839V52.4013C15.7284 52.7738 14.0064 54.1639 13.2972 56.09C13.1089 56.6013 12.9919 57.1366 12.9494 57.6809L12.0961 68.6333C12.0317 69.4583 12.3172 70.2798 12.8789 70.8869C13.4406 71.4941 14.2373 71.8425 15.0647 71.8425H16.5253C17.1723 71.8425 17.6969 71.3181 17.6969 70.6709C17.6969 70.0238 17.1723 69.4995 16.5253 69.4995H15.0647C14.8883 69.4995 14.7186 69.4255 14.5987 69.2958C14.479 69.1664 14.4183 68.9914 14.432 68.8156L15.2853 57.8631C15.3111 57.5333 15.3819 57.2091 15.4959 56.8995C15.9894 55.5597 17.3219 54.6523 18.812 54.6419L19.005 54.6405C19.014 54.6403 19.023 54.6403 19.0319 54.6403C20.4801 54.6403 21.7622 55.4616 22.3029 56.7383C22.4547 57.0962 22.5469 57.4747 22.5772 57.8631L23.4308 68.8158C23.4444 68.9914 23.3836 69.1664 23.2639 69.2959C23.1442 69.4253 22.9744 69.4995 22.7979 69.4995H21.3373C20.6903 69.4995 20.1658 70.0239 20.1658 70.6709C20.1658 71.318 20.6903 71.8425 21.3373 71.8425H22.7979C23.6253 71.8425 24.4222 71.4942 24.9837 70.8869C25.5456 70.2795 25.8311 69.4581 25.7667 68.6334L24.9131 57.6809C24.8631 57.04 24.7108 56.4152 24.4603 55.8241C23.6886 54.0027 22.0384 52.7363 20.095 52.3936V49.377L24.1222 48.1619C24.4886 48.9336 25.2147 50.6013 26.6529 54.1961C28.1025 57.8233 29.9042 62.4725 31.6322 66.9922C31.6445 67.0302 31.6587 67.0672 31.6747 67.1034C32.8278 70.1208 33.9464 73.0761 34.9031 75.6255C35.0747 76.0827 35.5117 76.3855 36 76.3855C36.4883 76.3855 36.9253 76.0827 37.0968 75.6255C38.0534 73.0761 39.172 70.1208 40.3253 67.1034C40.3414 67.0672 40.3554 67.03 40.3678 66.9922C42.0945 62.4752 43.8953 57.8289 45.3442 54.2028C46.7843 50.6033 47.5111 48.9342 47.8776 48.1619L51.9048 49.377V56.2966C49.1145 56.8386 47.0009 59.2995 47.0009 62.2461C47.0009 65.5884 49.7201 68.3078 53.0626 68.3078C56.4051 68.3078 59.1243 65.5886 59.1243 62.2461C59.1243 59.3092 57.0247 56.8542 54.2478 56.3016V50.0841L63.0768 52.748C64.3886 53.1436 65.3465 54.2283 65.5773 55.5789L69.1164 76.2981C69.1751 76.6417 69.0837 76.9777 68.8589 77.2441C68.6342 77.5103 68.3184 77.6572 67.9698 77.6572H4.03014C3.68155 77.6572 3.36592 77.5105 3.14108 77.2441C2.91639 76.9777 2.82483 76.6419 2.88358 76.2981L4.05155 69.4603C4.16045 68.8225 3.7317 68.2173 3.09405 68.1084C2.45655 67.9991 1.85108 68.4283 1.74202 69.0659L0.574049 75.9037C0.39983 76.9244 0.682799 77.9636 1.3503 78.755C2.01811 79.5462 2.99483 80 4.03014 80H67.9698C69.0051 80 69.982 79.5462 70.6497 78.7548C71.3172 77.9634 71.6001 76.9242 71.4259 75.9036ZM51.5345 23.7639C52.1587 23.6083 52.6598 23.6111 52.6654 23.6112C52.8673 23.6139 53.0636 23.5667 53.2379 23.4753C53.2901 23.6052 53.3209 23.7447 53.3209 23.89V25.6706C53.3209 26.2941 52.8137 26.8013 52.1903 26.8013H51.5345V23.7639ZM20.4654 26.8013H19.8097C19.1862 26.8013 18.679 26.2941 18.679 25.6706V23.89C18.679 23.7447 18.71 23.6052 18.762 23.4755C18.9362 23.5669 19.1325 23.6141 19.3345 23.6112C19.3434 23.6128 19.8431 23.61 20.4654 23.7645V26.8013ZM22.8084 28.1148V25.037C23.1634 25.1434 23.5517 25.1289 23.9101 24.9794C24.525 24.7228 24.9222 24.127 24.9222 23.4612V12.6466C24.9222 11.3303 25.9931 10.2594 27.3094 10.2594H30.5429C31.1192 10.2594 31.6822 10.4602 32.1283 10.8248L32.4454 11.0842C33.4456 11.902 34.7079 12.3522 36 12.3522C37.292 12.3522 38.5543 11.9019 39.5545 11.0842L39.8717 10.8248C40.3176 10.4602 40.8808 10.2594 41.457 10.2594H44.6906C46.0068 10.2594 47.0778 11.3303 47.0778 12.6466V23.4614C47.0778 24.127 47.475 24.723 48.0898 24.9795C48.2951 25.0652 48.5101 25.1067 48.7232 25.1067C48.8822 25.1067 49.0398 25.0834 49.1915 25.0381V28.1148C49.1915 29.8253 48.009 33.1469 45.8175 35.9341C45.0915 36.8573 44.1584 37.8492 43.0095 38.7161C42.9731 38.7405 42.9383 38.7669 42.905 38.795C41.1251 40.1109 38.8365 41.1191 36 41.1191C33.1634 41.1191 30.8748 40.1109 29.0948 38.7948C29.0615 38.7669 29.0269 38.7405 28.9906 38.7162C27.8417 37.8492 26.9086 36.8573 26.1825 35.9341C23.9911 33.147 22.8084 29.8253 22.8084 28.1148ZM43.675 47.0422L36 52.7787L28.325 47.0422C29.0861 46.0748 29.5125 44.8331 29.5125 43.725V41.8366C31.3173 42.8072 33.4709 43.4622 36 43.4622C38.529 43.4622 40.6828 42.8072 42.4875 41.8366V43.725C42.4875 44.8331 42.9139 46.0748 43.675 47.0422ZM26.3698 45.7345C25.7442 45.4963 25.0506 45.4572 24.3945 45.6352C24.3658 45.6419 24.3376 45.6495 24.3103 45.6577L20.263 46.8789C20.9475 43.513 23.6806 40.8339 27.1695 40.315V43.725C27.1695 44.46 26.8414 45.2198 26.3698 45.7345ZM29.5494 55.1389C29.5472 55.1334 29.545 55.128 29.5429 55.1227C29.4836 54.9725 29.425 54.8244 29.3669 54.678C29.3564 54.6514 29.3459 54.625 29.3354 54.5988C29.2786 54.4555 29.2222 54.3133 29.1665 54.1734C29.1626 54.1636 29.1587 54.1539 29.1548 54.1439C28.9812 53.7075 28.8139 53.2889 28.6529 52.8878C28.6412 52.8587 28.6295 52.8292 28.6178 52.8003C28.5715 52.6853 28.5261 52.572 28.4809 52.4602C28.4644 52.4191 28.4479 52.3784 28.4315 52.3378C28.3878 52.2294 28.3444 52.1216 28.3015 52.0161C28.2887 51.9845 28.2762 51.9539 28.2636 51.9225C28.1859 51.7309 28.11 51.5442 28.0359 51.3622C28.0159 51.313 27.9954 51.2628 27.9756 51.2142C27.9465 51.1433 27.9183 51.0742 27.8898 51.0047C27.8592 50.9297 27.8286 50.8553 27.7986 50.7822C27.7873 50.7548 27.7756 50.7259 27.7644 50.6987C27.7553 50.6769 27.747 50.6567 27.7381 50.635C27.6028 50.3062 27.4742 49.9964 27.3522 49.705C27.3512 49.7027 27.3501 49.7003 27.3492 49.698C27.2842 49.5428 27.2206 49.3913 27.1595 49.2469C27.1278 49.172 27.0965 49.0984 27.0659 49.0263L33.6667 53.9597L30.9086 55.1314C30.9037 55.1334 30.8987 55.1355 30.8939 55.1377L29.7423 55.6269C29.677 55.4617 29.6131 55.2998 29.5494 55.1389ZM32.3447 62.312C32.1133 61.7116 31.8801 61.1077 31.6465 60.5044C31.2812 59.5608 30.9323 58.6636 30.5984 57.8089L31.0356 57.6231L32.8219 59.6995L32.3447 62.312ZM36.0226 71.8336C35.989 71.7639 35.949 71.6981 35.9028 71.6369C35.3734 70.2377 34.7015 68.4672 33.9579 66.5192L35.0517 60.5309H36.9483L38.042 66.5192C37.2628 68.56 36.5629 70.4053 36.0226 71.8336ZM37.3876 58.1881H34.6123L33.299 56.6616L36 55.5142L38.7009 56.6616L37.3876 58.1881ZM40.3534 60.5044C40.1198 61.1077 39.8867 61.7116 39.6553 62.312L39.1781 59.6994L40.9643 57.623L41.4015 57.8088C41.0676 58.6634 40.7187 59.5608 40.3534 60.5044ZM44.8406 49.2469C44.7826 49.3837 44.7223 49.5273 44.6609 49.6739C44.6529 49.693 44.6448 49.7122 44.6368 49.7314C44.5761 49.8767 44.5142 50.0252 44.4501 50.1797C44.4459 50.1898 44.4415 50.2006 44.4373 50.2109C44.382 50.3442 44.3253 50.4817 44.2676 50.6219C44.2568 50.6481 44.2467 50.6723 44.2359 50.6987C44.2231 50.7302 44.2093 50.7634 44.1964 50.7952C44.1708 50.8577 44.1447 50.9214 44.1184 50.9852C44.0862 51.0637 44.0542 51.142 44.0212 51.2225C44.0108 51.2481 44 51.2748 43.9893 51.3006C43.9078 51.5005 43.824 51.7064 43.7384 51.918C43.725 51.9511 43.7117 51.9836 43.6983 52.0172C43.6559 52.1217 43.6128 52.2284 43.5695 52.3358C43.5526 52.3778 43.5356 52.4197 43.5186 52.4622C43.4739 52.573 43.4287 52.6852 43.3831 52.7989C43.3703 52.8306 43.3573 52.8631 43.3445 52.895C43.1856 53.2906 43.0208 53.7033 42.8497 54.1333C42.844 54.1475 42.8384 54.1614 42.8328 54.1758C42.7775 54.3147 42.7215 54.4559 42.665 54.5983C42.6545 54.6248 42.6439 54.6514 42.6333 54.6781C42.5748 54.8253 42.5159 54.9741 42.4562 55.1252C42.4551 55.128 42.454 55.1308 42.4529 55.1334C42.3886 55.2962 42.3239 55.46 42.2579 55.6272L41.1053 55.1375C41.1012 55.1358 41.0972 55.1341 41.0933 55.1323L38.3336 53.96L44.9343 49.0266C44.9034 49.0984 44.8722 49.1719 44.8406 49.2469ZM47.6897 45.6578C47.6895 45.6578 47.6892 45.6577 47.689 45.6577C47.6881 45.6573 47.687 45.6572 47.6861 45.6567C47.0064 45.4528 46.2814 45.4866 45.6303 45.7345C45.1586 45.2198 44.8306 44.46 44.8306 43.725V40.3133C48.3414 40.8308 51.0662 43.4847 51.7418 46.8803L47.6897 45.6578ZM56.7814 62.2461C56.7814 64.2967 55.1131 65.9648 53.0626 65.9648C51.0122 65.9648 49.3439 64.2967 49.3439 62.2461C49.3439 60.1955 51.0122 58.5273 53.0626 58.5273C55.1131 58.5273 56.7814 60.1955 56.7814 62.2461Z" fill="#00C8C8"/>
</svg>
