<svg width="76" height="80" viewBox="0 0 76 80" fill="none" xmlns="http://www.w3.org/2000/svg">
<path d="M26.2847 22.2797L24.9317 22.77C22.8436 23.5272 21.2858 25.3538 20.866 27.5383L20.4069 29.9439C20.1778 31.1355 20.4897 32.3558 21.263 33.2916C22.0366 34.2283 23.1772 34.7655 24.3919 34.7655H36.1195C37.3249 34.7655 38.4597 34.2353 39.2331 33.3109C40.006 32.3874 40.3275 31.1781 40.1153 29.9933L39.6872 27.6003C39.2905 25.3814 37.7275 23.5252 35.6078 22.7559L34.1735 22.2361V20.122C34.1735 20.0627 34.1677 20.0049 34.1591 19.9478C35.2055 18.8825 35.8049 17.4299 35.8049 15.9436V12.7938C35.8049 9.71907 33.3033 7.21767 30.2285 7.21767C27.1536 7.21767 24.6516 9.71907 24.6516 12.7938V16.0417C24.6516 17.5695 25.2816 18.9644 26.2946 19.9774C26.2886 20.0249 26.2847 20.0728 26.2847 20.1219V22.2797ZM37.3797 28.0128L37.8078 30.4061C37.8975 30.9063 37.7617 31.4167 37.4353 31.8067C37.1085 32.1974 36.6288 32.4216 36.1192 32.4216H24.3916C23.8783 32.4216 23.3964 32.1947 23.0696 31.7989C22.7433 31.4039 22.6116 30.8891 22.7085 30.3849L23.1675 27.9792C23.4321 26.6024 24.4142 25.4506 25.73 24.9736L26.6163 24.6525C26.6385 24.6753 26.6608 24.6983 26.6849 24.7194C27.6947 25.6024 28.9614 26.0439 30.2289 26.0438C31.4949 26.0438 32.7613 25.6031 33.7713 24.7219C33.8077 24.6902 33.8411 24.6559 33.873 24.6203L34.8078 24.9592C36.1444 25.4439 37.1297 26.6139 37.3797 28.0128ZM26.9953 12.7938C26.9953 11.0116 28.4455 9.56142 30.228 9.56142C31.7324 9.56142 32.9964 10.5958 33.3553 11.9895C33.2047 12.0631 33.0502 12.1327 32.8919 12.1959C31.451 12.7728 30.287 12.6963 29.9544 12.4631C29.4244 12.0916 28.6938 12.2197 28.322 12.7497C27.9505 13.2797 28.0788 14.0103 28.6086 14.382C29.181 14.7834 29.9578 14.9841 30.8444 14.9841C31.6499 14.9841 32.546 14.8167 33.4608 14.4856V15.9433C33.4608 16.8391 33.0903 17.7163 32.4442 18.3499C32.1452 18.6433 31.8025 18.8706 31.4345 19.0275C31.4088 19.0374 31.3835 19.048 31.3586 19.0595C30.9806 19.2091 30.5769 19.2842 30.1642 19.2734C28.4167 19.2399 26.9953 17.79 26.9953 16.0416V12.7938ZM30.1192 21.617C30.155 21.6177 30.1905 21.618 30.2263 21.618C30.7761 21.618 31.3149 21.5353 31.8295 21.3767V23.2516C30.8528 23.8538 29.6042 23.8534 28.6288 23.2506V21.3802C29.1028 21.5238 29.6024 21.607 30.1192 21.617Z" fill="#00C8C8"/>
<path d="M11.7913 54.8288H48.2866C48.9339 54.8288 49.4584 54.3042 49.4584 53.6569C49.4584 53.0095 48.9339 52.485 48.2866 52.485H11.7913C11.1439 52.485 10.6194 53.0095 10.6194 53.6569C10.6194 54.3042 11.1439 54.8288 11.7913 54.8288Z" fill="#00C8C8"/>
<path d="M11.7913 61.1477H48.2866C48.9339 61.1477 49.4584 60.6231 49.4584 59.9758C49.4584 59.3284 48.9339 58.8039 48.2866 58.8039H11.7913C11.1439 58.8039 10.6194 59.3284 10.6194 59.9758C10.6194 60.6231 11.1439 61.1477 11.7913 61.1477Z" fill="#00C8C8"/>
<path d="M11.7913 67.4662H48.2866C48.9339 67.4662 49.4584 66.9417 49.4584 66.2944C49.4584 65.647 48.9339 65.1225 48.2866 65.1225H11.7913C11.1439 65.1225 10.6194 65.647 10.6194 66.2944C10.6194 66.9417 11.1439 67.4662 11.7913 67.4662Z" fill="#00C8C8"/>
<path d="M11.7913 73.7852H48.2866C48.9339 73.7852 49.4584 73.2606 49.4584 72.6133C49.4584 71.9659 48.9339 71.4414 48.2866 71.4414H11.7913C11.1439 71.4414 10.6194 71.9659 10.6194 72.6133C10.6194 73.2606 11.1439 73.7852 11.7913 73.7852Z" fill="#00C8C8"/>
<path d="M10.6194 41.0194C10.6194 41.6667 11.1439 42.1912 11.7913 42.1912H48.2866C48.9339 42.1912 49.4584 41.6667 49.4584 41.0194C49.4584 40.372 48.9339 39.8475 48.2866 39.8475H11.7913C11.1439 39.8475 10.6194 40.3722 10.6194 41.0194Z" fill="#00C8C8"/>
<path d="M11.7913 48.51H48.2866C48.9339 48.51 49.4584 47.9855 49.4584 47.3381C49.4584 46.6908 48.9339 46.1662 48.2866 46.1662H11.7913C11.1439 46.1662 10.6194 46.6908 10.6194 47.3381C10.6194 47.9855 11.1439 48.51 11.7913 48.51Z" fill="#00C8C8"/>
<path d="M7.46391 54.8331C8.1136 54.8331 8.64032 54.3066 8.64032 53.6569C8.64032 53.0073 8.1136 52.4806 7.46391 52.4806C6.81422 52.4806 6.28766 53.0072 6.28766 53.6569C6.28766 54.3066 6.81438 54.8331 7.46391 54.8331Z" fill="#00C8C8"/>
<path d="M7.46391 42.1956C8.1136 42.1956 8.64032 41.6691 8.64032 41.0194C8.64032 40.3697 8.1136 39.8431 7.46391 39.8431C6.81422 39.8431 6.28766 40.3697 6.28766 41.0194C6.28766 41.6691 6.81438 42.1956 7.46391 42.1956Z" fill="#00C8C8"/>
<path d="M7.46391 48.5144C8.1136 48.5144 8.64032 47.9878 8.64032 47.3381C8.64032 46.6884 8.1136 46.1619 7.46391 46.1619C6.81422 46.1619 6.28766 46.6884 6.28766 47.3381C6.28766 47.9878 6.81438 48.5144 7.46391 48.5144Z" fill="#00C8C8"/>
<path d="M7.46391 61.1519C8.1136 61.1519 8.64032 60.6253 8.64032 59.9756C8.64032 59.3259 8.1136 58.7994 7.46391 58.7994C6.81422 58.7994 6.28766 59.3259 6.28766 59.9756C6.28766 60.6253 6.81438 61.1519 7.46391 61.1519Z" fill="#00C8C8"/>
<path d="M7.46391 67.4708C8.1136 67.4708 8.64032 66.9442 8.64032 66.2945C8.64032 65.6449 8.1136 65.1183 7.46391 65.1183C6.81422 65.1183 6.28766 65.6449 6.28766 66.2945C6.28766 66.9441 6.81438 67.4708 7.46391 67.4708Z" fill="#00C8C8"/>
<path d="M7.46391 73.7895C8.1136 73.7895 8.64032 73.263 8.64032 72.6133C8.64032 71.9637 8.1136 71.437 7.46391 71.437C6.81422 71.437 6.28766 71.9636 6.28766 72.6133C6.28766 73.2628 6.81438 73.7895 7.46391 73.7895Z" fill="#00C8C8"/>
<path d="M73.8797 18.4564C73.4069 17.858 72.96 17.2925 72.7439 16.7716C72.5108 16.2092 72.4189 15.4662 72.3217 14.6794C72.1513 13.3009 71.9581 11.7386 70.8678 10.6484C69.7775 9.55828 68.215 9.36516 66.8366 9.19469C66.0495 9.0975 65.3063 9.00562 64.7439 8.7725C64.2228 8.55641 63.6575 8.10984 63.0589 7.63688C62.2353 6.98609 61.3295 6.27156 60.2586 5.94734V5.59281C60.2588 2.50906 57.7495 0 54.6653 0H5.84594C2.76172 0 0.252502 2.50906 0.252502 5.59297V10.1163C0.252502 10.7636 0.777034 11.2881 1.42438 11.2881C2.07172 11.2881 2.59625 10.7636 2.59625 10.1163V5.59297C2.59625 3.80125 4.05406 2.34375 5.84594 2.34375H54.6653C56.4572 2.34375 57.915 3.80125 57.915 5.59297V5.94766C56.8444 6.27203 55.9389 6.98625 55.1153 7.63703C54.5167 8.10984 53.9514 8.55656 53.4305 8.77266C52.8681 9.00562 52.1248 9.0975 51.3378 9.19484C49.9594 9.36516 48.397 9.55828 47.3066 10.6484C46.2161 11.7388 46.023 13.3011 45.8525 14.6795C45.7553 15.4662 45.6634 16.2094 45.4303 16.7717C45.2142 17.2927 44.7675 17.8581 44.2945 18.4566C43.4189 19.5645 42.4267 20.8203 42.4267 22.428C42.4267 24.0356 43.4191 25.2914 44.2945 26.3994C44.7673 26.9978 45.2142 27.5633 45.4303 28.0842C45.6634 28.6466 45.7553 29.3895 45.8525 30.1766C46.023 31.5548 46.2161 33.1172 47.3064 34.2073C48.3967 35.2977 49.9592 35.4906 51.3377 35.6611C51.7486 35.7119 52.1469 35.7617 52.5145 35.8305V53.5441C52.5145 54.2383 52.902 54.8583 53.5259 55.162C54.1497 55.4662 54.8767 55.3891 55.4238 54.9608L57.9148 53.0103V74.4072C57.9148 76.1989 56.457 77.6564 54.6652 77.6564H5.84594C4.05406 77.6564 2.59625 76.1989 2.59625 74.4072V15.2767C2.59625 14.6294 2.07172 14.1048 1.42438 14.1048C0.777034 14.1048 0.252502 14.6294 0.252502 15.2767V74.407C0.252502 77.4909 2.76172 80 5.84594 80H54.6653C57.7495 80 60.2588 77.4909 60.2588 74.407V53.0102L62.7498 54.9605C63.075 55.2152 63.4641 55.3458 63.8575 55.3458C64.1256 55.3458 64.3956 55.285 64.6488 55.1617C65.2728 54.858 65.6606 54.238 65.6606 53.5439V40.4663C65.6606 39.8189 65.1361 39.2944 64.4888 39.2944C63.8414 39.2944 63.3169 39.8189 63.3169 40.4663V52.428L60.2017 49.9891C59.8869 49.7398 59.4909 49.6025 59.0867 49.6025C58.6825 49.6025 58.2866 49.7398 57.9767 49.985L54.8581 52.4267V37.0166C54.9431 37.0831 55.0286 37.1505 55.1152 37.2188C56.2233 38.0944 57.4792 39.0864 59.087 39.0864C60.6947 39.0864 61.9506 38.0942 63.0588 37.2189C63.6573 36.7461 64.2228 36.2992 64.7438 36.0831C65.3061 35.8502 66.0494 35.7583 66.8364 35.6609C68.2149 35.4906 69.7772 35.2975 70.8678 34.2073C71.958 33.117 72.1511 31.5547 72.3216 30.1764C72.4189 29.3895 72.5108 28.6464 72.7439 28.0841C72.96 27.5631 73.4067 26.9977 73.8797 26.3992C74.7553 25.2913 75.7475 24.0355 75.7475 22.4278C75.7475 20.8202 74.7552 19.5644 73.8797 18.4564ZM72.0408 24.9461C71.4895 25.6437 70.9195 26.365 70.5791 27.1863C70.2239 28.0425 70.1078 28.9811 69.9956 29.8887C69.8595 30.9897 69.7311 32.0295 69.2108 32.5498C68.6903 33.0702 67.6503 33.1986 66.5492 33.3347C65.6414 33.4469 64.703 33.5628 63.8464 33.918C63.0252 34.2584 62.3039 34.8283 61.6063 35.3795C60.7189 36.0803 59.8809 36.7425 59.0873 36.7425C58.2938 36.7425 57.4558 36.0805 56.5684 35.3795C55.8708 34.8284 55.1495 34.2584 54.3283 33.918C54.2717 33.8945 54.0755 33.8198 54.0331 33.8067C53.2586 33.5373 52.43 33.4341 51.6253 33.3347C50.5242 33.1986 49.4842 33.07 48.9638 32.5497C48.4436 32.0295 48.315 30.9897 48.1789 29.8889C48.0667 28.9811 47.9508 28.0428 47.5956 27.1863C47.255 26.365 46.6852 25.6437 46.1339 24.9461C45.4331 24.0589 44.7709 23.2211 44.7709 22.4278C44.7709 21.6345 45.433 20.7967 46.1339 19.9095C46.6852 19.2119 47.2552 18.4906 47.5956 17.6694C47.9508 16.8131 48.0669 15.8745 48.1789 14.9669C48.315 13.8659 48.4436 12.8261 48.9639 12.3058C49.4844 11.7855 50.5244 11.657 51.6255 11.5209C52.5333 11.4088 53.4717 11.2928 54.3283 10.9377C55.1495 10.5972 55.8708 10.0273 56.5684 9.47609C57.4539 8.77656 58.2905 8.11594 59.0827 8.11344C59.0841 8.11344 59.0856 8.11359 59.087 8.11359C59.0886 8.11359 59.0902 8.11344 59.0917 8.11344C59.8841 8.11578 60.7206 8.77656 61.6063 9.47609C62.3039 10.0272 63.0252 10.5972 63.8464 10.9377C64.7028 11.2928 65.6416 11.4089 66.5494 11.5209C67.6505 11.657 68.6905 11.7856 69.2108 12.3059C69.7311 12.8263 69.8597 13.8659 69.9958 14.9669C70.108 15.8745 70.2239 16.813 70.5791 17.6694C70.9197 18.4906 71.4895 19.2119 72.0408 19.9095C72.7416 20.7967 73.4038 21.6345 73.4038 22.4278C73.4038 23.2211 72.7417 24.0591 72.0408 24.9461Z" fill="#00C8C8"/>
<path d="M66.6108 18.7038L62.623 17.5755L60.3172 14.1317C60.0417 13.7205 59.582 13.4752 59.0872 13.4752C58.5923 13.4752 58.1325 13.7207 57.8572 14.1317L55.5514 17.5755L51.5633 18.7039C51.087 18.8388 50.7114 19.2005 50.5586 19.6711C50.4058 20.1417 50.4973 20.655 50.8033 21.0435L53.3662 24.3002L53.2072 28.4403C53.1879 28.935 53.4154 29.4041 53.8159 29.6952C54.0729 29.8819 54.3775 29.9785 54.6854 29.9785C54.8576 29.9785 55.0308 29.9483 55.197 29.8871L59.0869 28.4561L62.9764 29.8869C63.4409 30.0581 63.957 29.9863 64.3575 29.6955C64.7579 29.4047 64.9858 28.9358 64.9667 28.441L64.8076 24.3L67.3708 21.0433C67.6767 20.6544 67.7681 20.1414 67.6151 19.6708C67.4628 19.2002 67.0872 18.8386 66.6108 18.7038ZM62.769 23.1011C62.5525 23.3767 62.4404 23.7214 62.4537 24.0728L62.5753 27.2422L59.5983 26.1471C59.2684 26.0257 58.9051 26.0258 58.5759 26.1469L55.5986 27.2422L55.7203 24.0717C55.7334 23.7216 55.6212 23.3769 55.4042 23.1003L53.4426 20.6078L56.4956 19.7442C56.8333 19.6485 57.1269 19.435 57.322 19.1435L59.0869 16.5075L60.8515 19.1431C61.0469 19.4349 61.3405 19.6483 61.6787 19.7444L64.7311 20.6078L62.769 23.1011Z" fill="#00C8C8"/>
</svg>
