<svg width="80" height="76" viewBox="0 0 80 76" fill="none" xmlns="http://www.w3.org/2000/svg">
<path d="M22.6448 55.085C21.5239 51.185 20.6364 47.795 20.0072 45.0094C19.1531 41.2273 17.6087 37.6458 15.4169 34.3644C13.7425 31.8576 12.8575 28.9325 12.8575 25.9047C12.8573 22.492 14.005 19.2045 16.1042 16.5265C16.5836 17.2572 16.9733 18.1061 17.2148 19.0934L17.7017 21.0825C17.8747 21.7889 18.5034 22.2822 19.2306 22.2822C19.9578 22.2822 20.5865 21.7889 20.7595 21.0825L21.2464 19.0936C22.0764 15.7036 24.6419 13.9342 26.6476 13.0467C26.7089 13.0195 26.7678 12.9873 26.8234 12.9501C27.2848 12.6425 27.5605 12.1276 27.5605 11.573C27.5605 11.2481 27.4636 10.9383 27.2926 10.6744C27.6094 10.6572 27.9262 10.6492 28.2426 10.6514C31.0697 10.6753 33.8237 11.4784 36.2072 12.974C37.672 13.8933 39.3508 14.3528 41.0297 14.3528C42.7086 14.3528 44.3875 13.8933 45.8522 12.974C47.7681 11.7717 49.8775 11.0265 52.1217 10.7589C52.764 10.6823 53.2226 10.0995 53.1461 9.45717C53.0695 8.81467 52.4862 8.35577 51.8444 8.4328C49.2534 8.7417 46.8186 9.60202 44.607 10.9897C42.4337 12.3536 39.6253 12.3536 37.452 10.9897C34.7009 9.26327 31.5231 8.33623 28.2622 8.30889C26.9337 8.29733 25.6089 8.43842 24.3201 8.72358C22.9886 7.6892 21.7706 6.19467 21.2461 4.05217L20.7592 2.06327C20.5862 1.35686 19.9575 0.863579 19.2303 0.863579C18.5031 0.863579 17.8744 1.35686 17.7014 2.06327L17.2145 4.05217C16.3847 7.44202 13.8192 9.21155 11.8134 10.099C11.7522 10.1262 11.6933 10.1584 11.6376 10.1956C11.1762 10.5033 10.9006 11.0181 10.9006 11.5728C10.9006 12.1275 11.1762 12.6423 11.6376 12.95C11.6933 12.9872 11.7522 13.0195 11.8134 13.0465C12.6762 13.4283 13.6425 13.9739 14.5298 14.7408C11.9347 17.8892 10.5147 21.82 10.5148 25.9047C10.5148 29.397 11.5364 32.7723 13.4689 35.6655C15.5006 38.707 16.9315 42.0244 17.7222 45.5253C18.3612 48.3547 19.2598 51.7887 20.3933 55.732C20.5409 56.2456 21.0094 56.58 21.5183 56.58C21.6255 56.58 21.7344 56.5651 21.8425 56.534C22.4644 56.3556 22.8234 55.7067 22.6448 55.085ZM19.2306 5.50608C20.0898 8.06217 21.8437 10.1298 24.3726 11.573C21.8437 13.0161 20.0898 15.0836 19.2306 17.6398C18.3715 15.0839 16.6176 13.0162 14.0887 11.573C16.6175 10.1297 18.3715 8.06202 19.2306 5.50608Z" fill="#00C8C8"/>
<path d="M78.0364 30.3442L76.2531 30.3312C74.1473 30.3159 72.4666 30.0284 71.1448 29.6372C71.4086 28.4161 71.5442 27.1647 71.5442 25.9048C71.5444 17.6608 65.6884 10.4233 57.6202 8.69594C56.9878 8.56047 56.365 8.96344 56.2295 9.59609C56.0941 10.2287 56.4972 10.8512 57.1297 10.9867C64.1248 12.4844 69.2017 18.7584 69.2016 25.905C69.2016 26.8637 69.1109 27.8164 68.9348 28.7505C67.9897 28.2497 67.4273 27.7595 67.1691 27.5011C66.8608 27.1928 66.5712 26.8573 66.3083 26.5036C65.805 25.8266 65.0325 25.4372 64.1891 25.4352C64.1867 25.4352 64.1847 25.4352 64.1823 25.4352C63.3391 25.4352 62.5652 25.822 62.0581 26.4973C61.7959 26.8467 61.5023 27.1845 61.1856 27.5012C60.1458 28.5412 57.583 30.2917 52.102 30.3314L50.3187 30.3444C49.2359 30.3522 48.355 31.2395 48.355 32.3222V44.3102C48.355 47.0161 48.9841 49.7311 50.1744 52.1617C51.3645 54.5919 53.1236 56.7536 55.2614 58.4128L57.8353 60.4105C56.8937 63.5031 55.8362 66.8494 54.6856 70.3734C54.0777 72.2352 52.4902 72.8436 51.2056 72.7905C49.9217 72.7381 48.388 72.0034 47.9334 70.0981C45.9186 61.6491 44.3923 54.4989 43.3975 48.8462C43.1917 47.6766 42.218 46.8597 41.0295 46.8595C41.0295 46.8595 41.0295 46.8595 41.0294 46.8595C39.8411 46.8595 38.8672 47.6766 38.6612 48.8461C37.6658 54.5019 36.1395 61.652 34.1253 70.098C33.6708 72.0033 32.1369 72.7381 30.8531 72.7905C29.5722 72.8422 27.9811 72.2353 27.3733 70.3733C26.1594 66.6555 25.0478 63.1339 24.07 59.9067C23.8823 59.2875 23.2275 58.938 22.6094 59.1255C21.9903 59.3131 21.6405 59.967 21.8281 60.5861C22.8109 63.8292 23.9272 67.3667 25.1464 71.1005C25.9816 73.6586 28.2591 75.2427 30.9484 75.1311C33.638 75.0216 35.7794 73.2594 36.4037 70.6416C38.4291 62.1503 39.9648 54.9539 40.9684 49.2523C40.9731 49.2248 40.9778 49.2114 40.9764 49.2134C40.9978 49.1983 41.0614 49.1984 41.0775 49.2081C41.0797 49.2113 41.0858 49.2253 41.0905 49.2523C42.0934 54.9508 43.6292 62.1472 45.6551 70.6417C46.2794 73.2594 48.4208 75.0216 51.1103 75.1313C51.1981 75.1348 51.2853 75.1366 51.3722 75.1366C53.9469 75.1364 56.1048 73.5752 56.9128 71.1006C57.9628 67.8845 58.9366 64.8138 59.8156 61.9475L61.1284 62.9664C61.9967 63.6402 63.0794 64.0112 64.1775 64.0112C65.2756 64.0112 66.3583 63.6402 67.2267 62.9664L73.0933 58.4131C75.2311 56.7539 76.9902 54.5923 78.1803 52.162C79.3709 49.7309 80 47.0159 80 44.31V32.322C80 31.2394 79.1191 30.352 78.0364 30.3442ZM77.6575 44.31C77.6575 46.6609 77.1109 49.0197 76.0769 51.1313C75.0428 53.2427 73.5147 55.1206 71.6572 56.562L65.7908 61.1152C65.3245 61.4769 64.7667 61.6681 64.1777 61.6681C63.5886 61.6681 63.0308 61.477 62.5648 61.1153L56.6981 56.562C54.8408 55.1205 53.3125 53.2425 52.2784 51.1313C51.2444 49.0197 50.6978 46.6609 50.6978 44.31V32.6841L52.1194 32.6737C58.4359 32.6278 61.5489 30.4509 62.8423 29.1573C63.2369 28.7627 63.6034 28.3406 63.9319 27.9034C64.0139 27.7941 64.1241 27.7775 64.1828 27.7775H64.1837C64.2537 27.7777 64.353 27.7992 64.4286 27.9008C64.7595 28.3459 65.1244 28.7686 65.513 29.1573C66.5544 30.1987 69.6839 32.6261 76.2361 32.6737L77.6575 32.6841V44.31Z" fill="#00C8C8"/>
<path d="M74.2519 34.4833C72.2037 34.252 70.2989 33.8186 68.5898 33.1948C67.4536 32.7803 66.4281 32.2869 65.5416 31.7281C64.7128 31.2061 63.6425 31.2061 62.8141 31.7281C61.9275 32.2867 60.902 32.7803 59.7658 33.195C58.0569 33.8187 56.152 34.2522 54.1037 34.4834C53.252 34.5795 52.6098 35.2989 52.6098 36.1567V44.2102C52.6098 48.5056 54.5559 52.4797 57.9494 55.1134L63.1451 59.1459C63.4492 59.3817 63.8136 59.4997 64.178 59.4997C64.5423 59.4997 64.9067 59.3817 65.2108 59.1456L70.4062 55.1133C73.0176 53.0866 74.815 50.2017 75.4676 46.99C75.5966 46.3561 75.187 45.7378 74.5531 45.6091C73.9191 45.48 73.3009 45.8897 73.1722 46.5236C72.6311 49.1862 71.1387 51.5795 68.97 53.2628L64.178 56.982L59.3859 53.2628C56.5686 51.0761 54.9525 47.7764 54.9525 44.21V36.7392C56.9647 36.4734 58.8516 36.0222 60.5691 35.3955C61.8609 34.9241 63.0364 34.357 64.0633 33.71C64.1341 33.6653 64.2219 33.6653 64.2926 33.71C65.3195 34.357 66.4951 34.9242 67.787 35.3955C69.5044 36.0223 71.3912 36.4736 73.4034 36.7392V41.0069C73.4034 41.6537 73.9278 42.1781 74.5747 42.1781C75.2216 42.1781 75.7459 41.6537 75.7459 41.0069V36.1566C75.7456 35.2987 75.1034 34.5794 74.2519 34.4833Z" fill="#00C8C8"/>
<path d="M69.274 38.8253L63.437 46.2328L60.5994 42.5276C60.2062 42.0142 59.4714 41.9164 58.9573 42.3098C58.4439 42.7031 58.3464 43.4383 58.7397 43.9519L62.4939 48.854C62.7137 49.1412 63.0539 49.3106 63.4156 49.3131H63.4237C63.7825 49.3131 64.1214 49.1487 64.3436 48.8669L71.1137 40.2751C71.514 39.767 71.4269 39.0306 70.9187 38.6303C70.4109 38.23 69.6742 38.3172 69.274 38.8253Z" fill="#00C8C8"/>
<path d="M8.93031 43.8287C8.87468 43.7915 8.81577 43.7594 8.75468 43.7323C7.45702 43.1583 6.65156 42.2648 6.36077 41.0769L6.11546 40.0742C6.11546 40.074 6.11531 40.0737 6.11531 40.0736C5.96406 39.4572 5.41515 39.0267 4.78046 39.0267C4.14593 39.0267 3.59702 39.4572 3.44562 40.0742L3.2003 41.0769C2.90952 42.2648 2.10406 43.1583 0.806399 43.7323C0.745305 43.7594 0.686399 43.7917 0.630774 43.8287C0.236086 44.0917 0.000461426 44.5319 0.000305176 45.0062C0.000305176 45.4805 0.235774 45.9208 0.630461 46.1839C0.686243 46.2211 0.745149 46.2534 0.806399 46.2806C2.10406 46.8547 2.90952 47.7483 3.2003 48.9361L3.44577 49.9395C3.59702 50.5559 4.14593 50.9866 4.78046 50.9866C5.41515 50.9866 5.96406 50.5561 6.11546 49.9389L6.36077 48.9362C6.65156 47.7484 7.45702 46.8548 8.75468 46.2808C9.14281 46.0948 9.4939 45.6898 9.56077 45.0064C9.56062 44.5319 9.32499 44.0915 8.93031 43.8287ZM4.78046 46.6911C4.38952 46.0481 3.87437 45.4831 3.2439 45.0062C3.87437 44.5294 4.38937 43.9645 4.7803 43.3214C5.17124 43.9644 5.6864 44.5294 6.31687 45.0062C5.6864 45.4833 5.17124 46.0481 4.78046 46.6911Z" fill="#00C8C8"/>
<path d="M33.9726 22.9937C32.675 22.4197 31.8695 21.5262 31.5787 20.3381L31.3333 19.3356C31.1823 18.7187 30.6334 18.288 29.9984 18.288C29.3634 18.288 28.8145 18.7187 28.6636 19.3355L28.4181 20.3383C28.1273 21.5262 27.3219 22.4198 26.0242 22.9937C25.963 23.0209 25.904 23.0533 25.8483 23.0905C25.4536 23.3536 25.2181 23.7939 25.2181 24.2681C25.2183 24.7423 25.4539 25.1826 25.8486 25.4456C25.9042 25.4828 25.9631 25.515 26.0242 25.542C27.3219 26.1161 28.1273 27.0095 28.4181 28.1976L28.6636 29.2001C28.8145 29.817 29.3634 30.2478 29.9984 30.2478C30.6334 30.2478 31.1823 29.817 31.3333 29.2005L31.5787 28.1978C31.8695 27.0098 32.675 26.1164 33.9726 25.5422C34.3606 25.3564 34.7116 24.9516 34.7787 24.2683C34.7751 23.9225 34.5425 23.2628 33.9726 22.9937ZM29.9983 25.9528C29.6073 25.3098 29.0922 24.7447 28.4619 24.268C29.0923 23.7911 29.6073 23.2261 29.9983 22.5831C30.3892 23.2261 30.9042 23.7912 31.5347 24.268C30.9044 24.7447 30.3892 25.3098 29.9983 25.9528Z" fill="#00C8C8"/>
</svg>
