<svg width="80" height="80" viewBox="0 0 80 80" fill="none" xmlns="http://www.w3.org/2000/svg">
<g clip-path="url(#clip0_127:2954)">
<path d="M71.6538 54.7562C72.1981 54.312 72.6228 53.7384 72.8894 53.0886C73.3568 52.003 73.3629 50.7747 72.9053 49.6855L71.6672 46.6968C79.4727 38.9877 79.5606 26.4136 71.8631 18.5965C71.5726 13.7241 69.4919 9.13123 66.0205 5.69953C58.3108 -1.69716 44.5834 -1.8491 36.006 5.13694C27.4267 -1.8491 13.7036 -1.69716 5.99815 5.69831C-1.8507 13.2207 -0.893317 25.4959 2.62686 34.4748C3.67333 36.946 4.92971 39.3233 6.38318 41.5792C7.12272 42.802 7.8879 44.0657 8.56948 45.3453C10.5886 48.9246 11.9042 52.8573 12.4466 56.9315C12.8561 61.5659 13.6359 66.16 14.7781 70.6705C15.6568 73.9362 17.2952 80.0143 22.5159 80.0143C26.6109 80.0143 29.7784 72.1923 31.9269 56.7674C32.6591 51.5997 34.9131 51.1463 36.006 51.017C37.0988 51.15 39.3529 51.5997 40.0851 56.7649C42.2336 72.1923 45.4004 80.0143 49.4954 80.0143C54.7168 80.0143 56.3551 73.9362 57.2271 70.6839C58.3706 66.171 59.1504 61.5738 59.5598 56.9364C59.5757 56.7955 59.6129 56.6557 59.6319 56.5154C60.4739 57.568 61.7492 58.1818 63.0971 58.183C63.221 58.183 63.3455 58.1562 63.4693 58.147L71.5055 77.5473C71.9101 78.5285 72.6887 79.3083 73.6686 79.7147C74.6492 80.1205 75.7512 80.1199 76.7312 79.7117L77.5305 79.3828C78.5111 78.977 79.2897 78.1984 79.6954 77.2184C80.1012 76.2385 80.1012 75.1371 79.6954 74.1571L71.6538 54.7562ZM73.596 39.1391C70.448 46.7414 62.3673 51.0615 54.297 49.4567C46.226 47.8519 40.4134 40.7695 40.4134 32.5405C40.4134 24.3121 46.226 17.229 54.297 15.6242C62.3673 14.0194 70.448 18.3396 73.596 25.9425C75.3582 30.1644 75.3582 34.9166 73.596 39.1391ZM56.9165 56.6301C56.515 61.1308 55.7633 65.5931 54.6674 69.9773C53.6984 73.5445 52.428 77.3484 49.4954 77.3484C48.1628 77.3484 45.0343 72.9697 42.7241 56.3939C42.0267 51.4624 39.8197 48.7574 36.1658 48.3523C36.1134 48.3529 36.0603 48.3572 36.0084 48.3657C35.9547 48.3566 35.9004 48.3523 35.8461 48.3523C32.1923 48.752 29.981 51.4636 29.2878 56.397C26.9776 72.9697 23.848 77.3484 22.5159 77.3484C19.5834 77.3484 18.3136 73.5445 17.3483 69.9664C16.2517 65.5889 15.4988 61.1321 15.0954 56.6368C14.5188 52.2264 13.102 47.9679 10.9218 44.0907C10.2072 42.7471 9.42252 41.4517 8.65613 40.1983C7.28198 38.0718 6.09273 35.8306 5.10239 33.5003C1.9044 25.3262 0.939077 14.2348 7.84397 7.62163C14.7489 1.00902 27.7318 1.11275 35.1072 7.84434C35.1627 7.88523 35.2219 7.92123 35.2835 7.95113C35.3543 8.00299 35.43 8.04754 35.5099 8.08415C35.5886 8.11222 35.6698 8.13174 35.7528 8.14334C35.8351 8.1653 35.9206 8.17873 36.006 8.183C36.0865 8.17873 36.1665 8.16713 36.2446 8.14822C36.3324 8.13662 36.4185 8.11588 36.5021 8.08598C36.5802 8.04876 36.6546 8.0036 36.7242 7.95235C36.7864 7.92123 36.8456 7.88523 36.9017 7.84434C44.2795 1.11031 57.2747 1.00353 64.1704 7.62468C66.5111 9.90251 68.1116 12.8314 68.7651 16.0318C61.6796 11.2651 52.3438 11.5488 45.5603 16.736C38.7775 21.9238 36.0585 30.8594 38.8031 38.9462C41.5471 47.0324 49.1433 52.468 57.6829 52.4552H57.7201C57.3516 53.8257 57.0831 55.2212 56.9165 56.6301ZM61.4655 54.4212L60.5715 52.263L60.5862 52.2099C63.8354 51.7535 66.9151 50.477 69.534 48.5006L70.4462 50.7009C70.6287 51.1384 70.6232 51.6314 70.4297 52.0647C70.2595 52.4918 69.9227 52.8317 69.4968 53.0056L63.7744 55.3755C62.8732 55.7459 61.8426 55.32 61.4655 54.4212ZM77.2254 76.1958C77.0918 76.5228 76.8318 76.7828 76.5042 76.9164L75.7048 77.2459C75.0245 77.5272 74.2459 77.2044 73.964 76.5247L66.0138 57.33L69.2728 55.9796L77.2217 75.1743C77.359 75.5008 77.3609 75.8681 77.2254 76.1958Z" fill="#00C8C8"/>
<path d="M60.9419 20.4209C60.4214 19.901 59.5776 19.901 59.0571 20.4209L54.6674 24.8106C54.5533 24.9265 54.4508 25.0529 54.3598 25.1877L51.0898 24.0973C50.6377 23.9472 50.1392 24.0491 49.7828 24.3658C49.4259 24.6825 49.2654 25.1651 49.3612 25.6319C49.457 26.0993 49.795 26.4795 50.2472 26.6302L54.2146 27.9525C54.3336 28.1837 54.4862 28.3961 54.6674 28.5828L57.0441 30.9607L55.1781 34.6932C54.7229 35.5963 54.8205 36.6794 55.4301 37.486L58.3627 41.4035L56.2203 44.6173C55.9561 45.0133 55.9231 45.5204 56.1343 45.9475C56.3454 46.3747 56.7683 46.6566 57.2436 46.6877C57.7189 46.7182 58.1741 46.493 58.4383 46.097L60.5807 42.8832C61.208 41.9423 61.1738 40.7085 60.4953 39.8042L57.5627 35.8861L59.4287 32.1542C59.9425 31.1273 59.7411 29.8874 58.9289 29.0764L56.5522 26.6955L60.9419 22.3058C61.4624 21.7853 61.4624 20.9414 60.9419 20.4209Z" fill="#00C8C8"/>
<path d="M12.1019 9.16532C12.0122 9.20925 2.8148 13.796 6.39355 26.9352C6.58759 27.6455 7.32103 28.0647 8.03129 27.8706C8.74155 27.6766 9.16075 26.9432 8.96671 26.2329C5.99021 15.3209 12.9451 11.7232 13.2612 11.5646C13.9019 11.2326 14.1625 10.451 13.8482 9.80114C13.534 9.15129 12.7596 8.86938 12.1019 9.16532Z" fill="#00C8C8"/>
<path d="M18.6773 8.03346C18.6773 8.76995 18.0805 9.36672 17.344 9.36672C16.6081 9.36672 16.0114 8.76995 16.0114 8.03346C16.0114 7.29757 16.6081 6.70081 17.344 6.70081C18.0805 6.70081 18.6773 7.29757 18.6773 8.03346Z" fill="#00C8C8"/>
</g>
<defs>
<clipPath id="clip0_127:2954">
<rect width="80" height="80" fill="white"/>
</clipPath>
</defs>
</svg>
