<svg width="80" height="80" viewBox="0 0 80 80" fill="none" xmlns="http://www.w3.org/2000/svg">
<g clip-path="url(#clip0_127:2959)">
<path d="M1.44456 61.3183H10.5419C10.8111 62.2318 11.0049 63.1661 11.1219 64.1117C11.3994 67.246 11.9266 70.3527 12.6992 73.4034C13.3208 75.7079 14.4778 79.9999 18.3174 79.9999C19.4347 79.9999 22.8396 79.9999 25.0686 64.0117C25.5009 60.9528 26.7271 60.6162 27.3751 60.53C28.0199 60.6149 29.2518 60.9471 29.6853 64.0091C31.9118 79.9999 35.3179 79.9999 36.4378 79.9999C40.2761 79.9999 41.4338 75.7079 42.0522 73.4122C42.8216 70.3578 43.3501 67.2473 43.632 64.1104C43.7484 63.1655 43.9421 62.2318 44.2108 61.3183H78.5868C79.3216 61.3183 79.9168 60.7232 79.9168 59.9883C79.9168 59.2541 79.3216 58.6583 78.5868 58.6583H59.0779L60.9609 51.6095C61.3006 51.6988 61.6504 51.7435 62.0015 51.7422C63.8046 51.7384 65.3812 50.5261 65.8474 48.784L66.2589 47.2508C67.9462 47.1483 69.3744 45.9699 69.7952 44.3322L75.7085 22.2539C77.6456 22.1055 79.1927 20.5817 79.3701 18.6477C79.5481 16.7131 78.3043 14.9333 76.427 14.4344L73.857 13.7468L74.8906 9.89014C77.0209 10.4601 79.2103 9.19557 79.7803 7.06532C80.3509 4.93506 79.0863 2.74629 76.9561 2.17566L69.2498 0.136631C67.1227 -0.432737 64.9358 0.829311 64.3645 2.95642C64.0902 3.97877 64.2337 5.06781 64.7628 5.98446C65.2919 6.90111 66.1632 7.57051 67.1856 7.84419L66.1525 11.7014L63.5825 11.0125C61.7052 10.4973 59.7309 11.4158 58.9156 13.1837C58.1009 14.9515 58.6841 17.0497 60.2947 18.1425L54.3801 40.2083C53.9328 41.8383 54.5752 43.5716 55.9763 44.5172L55.5774 46.0347C55.3031 47.057 55.4459 48.1461 55.975 49.0627C56.5035 49.9794 57.3748 50.6488 58.3965 50.9231L56.3261 58.6583H45.1432C45.4502 57.9443 45.7905 57.2207 46.1881 56.4771C46.6449 55.619 47.1444 54.7948 47.6433 53.9713C48.6336 52.4343 49.4886 50.8149 50.1983 49.13C52.6154 42.9695 53.2578 34.5328 47.8321 29.3324C42.5882 24.2967 33.3122 24.1093 27.3763 28.707C21.4392 24.1093 12.1619 24.298 6.92182 29.3311C1.49111 34.5328 2.13346 42.9695 4.55438 49.1313C5.26594 50.8168 6.12219 52.4374 7.11308 53.975C7.61073 54.7973 8.11089 55.6208 8.56576 56.4771C8.96463 57.2207 9.30374 57.9398 9.6095 58.6583H1.44456C0.710356 58.6583 0.114563 59.2541 0.114563 59.9883C0.114563 60.7232 0.710356 61.3183 1.44456 61.3183ZM67.0661 4.64943C66.8289 4.2386 66.8282 3.73215 67.0654 3.32069C67.302 2.90924 67.7405 2.6557 68.2149 2.65444C68.3325 2.65444 68.4489 2.66954 68.5621 2.69974L76.2766 4.76519C76.7353 4.8885 77.0939 5.24711 77.2166 5.70638C77.3392 6.16565 77.2077 6.65575 76.8718 6.99171C76.5352 7.32704 76.0451 7.45853 75.5865 7.33522L74.3011 6.99045L69.1579 5.6139L67.8732 5.26913C67.5322 5.17853 67.2416 4.95582 67.0661 4.64943ZM72.3238 9.21571L71.2913 13.0729L68.7219 12.3853L69.7537 8.52806L72.3238 9.21571ZM67.2284 43.6503C67.1384 43.9919 66.9151 44.2832 66.6087 44.4587C66.3029 44.6355 65.9399 44.6833 65.5989 44.5921L57.8851 42.5266C57.5441 42.4348 57.2534 42.2121 57.0772 41.9063C56.9005 41.6012 56.8533 41.2375 56.9445 40.8972L57.2886 39.6125L59.8587 40.3014C59.9713 40.3309 60.0877 40.3467 60.2041 40.3467C60.8716 40.3454 61.4347 39.8503 61.5208 39.189C61.6077 38.5272 61.1905 37.9044 60.5463 37.7313L57.9782 37.0437L58.6658 34.473L61.2352 35.1619C61.3478 35.1921 61.4642 35.2079 61.5812 35.2085C62.25 35.2104 62.8169 34.7153 62.9043 34.0515C62.9911 33.3878 62.5715 32.763 61.9241 32.5925L59.3547 31.9049L60.0436 29.3349L62.6118 30.0225C62.7244 30.054 62.8408 30.0691 62.9578 30.0691C63.6247 30.0691 64.189 29.5739 64.2758 28.9121C64.3627 28.2502 63.9455 27.6268 63.3007 27.4544L60.7313 26.7655L61.4202 24.1961L63.9883 24.885C64.1009 24.9152 64.2173 24.9309 64.3343 24.9315C65.0037 24.9334 65.57 24.4377 65.6574 23.7739C65.7442 23.1108 65.3246 22.4855 64.6772 22.315L62.1078 21.6261L62.7967 19.0567L67.9462 20.4332L73.0793 21.8161L67.2284 43.6503ZM61.266 14.5225C61.4202 13.9412 61.9455 13.536 62.5463 13.5341C62.664 13.5347 62.7804 13.5505 62.8936 13.5807L75.7406 17.0227C76.2018 17.1441 76.5622 17.5027 76.6868 17.9626C76.8108 18.4231 76.6793 18.9145 76.342 19.2511C76.0048 19.5877 75.5128 19.7179 75.0529 19.5927L62.206 16.1507C61.4969 15.9601 61.076 15.2315 61.266 14.5225ZM58.143 46.7242L58.4871 45.4402L63.6253 46.8211L63.2805 48.1058C63.0905 48.8148 62.362 49.2357 61.653 49.0464L59.0829 48.3575C58.7426 48.2656 58.4519 48.0429 58.2758 47.7371C58.099 47.432 58.0512 47.069 58.143 46.728V46.7242ZM7.03067 48.1593C4.92935 42.8003 4.28008 35.5451 8.76016 31.2519C13.2396 26.958 21.6814 27.0285 26.4773 31.4085C26.4905 31.4205 26.5081 31.423 26.5226 31.4349C26.5371 31.4469 26.5427 31.4658 26.5584 31.4765C26.6132 31.5205 32.0609 35.7961 33.416 40.4127C33.5828 40.9802 34.1043 41.3696 34.6957 41.3678C34.8222 41.3678 34.948 41.3495 35.0694 41.3136C35.4079 41.2142 35.6935 40.9846 35.8628 40.6751C36.032 40.3655 36.0716 40.0013 35.9722 39.6628C34.8102 35.703 31.3676 32.1773 29.4726 30.4654C34.3761 27.053 41.8635 27.2908 45.9919 31.2531C50.4726 35.5451 49.8233 42.8003 47.7207 48.158C47.0639 49.7007 46.2756 51.1848 45.3652 52.5934C44.8424 53.4579 44.3171 54.3223 43.8383 55.2258C42.3485 57.8763 41.3803 60.788 40.9852 63.8028C40.7172 66.8044 40.2151 69.7802 39.4834 72.7038C38.8801 74.9435 38.0981 77.3336 36.4365 77.3336C35.7023 77.2468 33.73 73.7859 32.3138 63.6342C31.8136 60.1003 30.2011 58.1594 27.5254 57.8618C27.4738 57.8631 27.4229 57.8681 27.3725 57.8763C27.3203 57.8681 27.2669 57.8631 27.214 57.8618C24.537 58.1594 22.9258 60.1016 22.4263 63.6367C21.012 73.7809 19.0396 77.2455 18.3098 77.3361C16.647 77.3361 15.8637 74.9423 15.2585 72.6969C14.5224 69.7783 14.0204 66.8056 13.758 63.8072C13.3623 60.7917 12.3941 57.8801 10.9055 55.2283C10.4267 54.3292 9.90268 53.4635 9.37986 52.5985C8.47202 51.188 7.68623 49.7032 7.03067 48.1593Z" fill="white"/>
<path d="M13.8342 34.1087C14.4545 33.7444 14.6728 32.9529 14.3268 32.3219C13.9814 31.6915 13.1963 31.4499 12.5558 31.7771C9.11631 33.7702 7.36479 37.7627 8.22797 41.6432C8.3582 42.2598 8.90366 42.7001 9.53406 42.6976C9.62717 42.6976 9.71965 42.6882 9.81088 42.67C10.1563 42.597 10.4583 42.39 10.6508 42.0943C10.8439 41.798 10.9106 41.4381 10.8376 41.0927C10.2192 38.361 11.4284 35.5425 13.8342 34.1087Z" fill="white"/>
</g>
<defs>
<clipPath id="clip0_127:2959">
<rect width="80" height="80" fill="white"/>
</clipPath>
</defs>
</svg>
