<svg width="80" height="80" viewBox="0 0 80 80" fill="none" xmlns="http://www.w3.org/2000/svg">
<g clip-path="url(#clip0_675:3465)">
<path d="M71.9992 50.0913V48.0021C71.9992 45.7933 70.2085 44.002 67.9991 44.002H65.3325C63.1274 44.002 61.3385 45.7866 61.3324 47.9917C58.7116 47.6475 55.9993 47.3796 53.3328 47.1794V45.3356C53.3328 43.1268 51.542 41.3354 49.3333 41.3354H46.6667C44.4573 41.3354 42.6666 43.1268 42.6666 45.3356V46.6917C41.7334 46.6771 40.8453 46.6692 40 46.6692C39.1547 46.6692 38.2667 46.6771 37.3335 46.6917V45.3356C37.3335 43.1268 35.5428 41.3354 33.3334 41.3354H30.6668C28.458 41.3354 26.6673 43.1268 26.6673 45.3356V47.1794C24.0008 47.3796 21.2872 47.6475 18.667 47.9917C18.6616 45.7866 16.8721 44.002 14.6675 44.002H12.001C9.79158 44.002 8.00086 45.7933 8.00086 48.0021V50.0913C3.225 51.4938 0.0012207 53.4127 0.0012207 56.0018V66.6686C0.00427238 67.6164 0.51207 68.4916 1.33419 68.964V70.6681C1.33419 72.8775 3.12552 74.6682 5.33431 74.6682H6.91325C7.47597 76.2606 8.97862 77.3274 10.6674 77.3348H14.6675C15.3566 77.3305 16.0322 77.1468 16.6285 76.8013C17.3579 77.961 18.631 78.6653 20.0006 78.6677H25.3337C26.0228 78.6641 26.699 78.4803 27.2953 78.1349C28.0241 79.2939 29.2972 79.9989 30.6668 80.0013H37.3335C38.3204 79.9976 39.2713 79.6272 40 78.9613C40.7288 79.6272 41.6797 79.9976 42.6666 80.0013H49.3333C50.7028 79.9989 51.9754 79.2939 52.7047 78.1349C53.301 78.4803 53.9773 78.6641 54.6663 78.6677H59.9994C61.369 78.6653 62.6422 77.961 63.3715 76.8013C63.9672 77.1468 64.6435 77.3305 65.3325 77.3348H69.3327C71.0215 77.3274 72.5241 76.2606 73.0868 74.6682H74.6658C76.8745 74.6682 78.6653 72.8775 78.6653 70.6681V68.964C79.488 68.4916 79.9958 67.6164 79.9988 66.6686V56.0018C79.9988 53.4127 76.7751 51.4938 71.9992 50.0913ZM63.9996 48.0021C63.9996 47.2661 64.5965 46.6692 65.3325 46.6692H67.9991C68.7358 46.6692 69.3327 47.2661 69.3327 48.0021V49.3943C67.6634 49.0073 65.866 48.6686 63.9996 48.3756V48.0021ZM45.3331 45.3356C45.3331 44.5995 45.93 44.002 46.6667 44.002H49.3333C50.0693 44.002 50.6662 44.5995 50.6662 45.3356V46.9993C48.8303 46.8889 47.0396 46.8101 45.3331 46.757V45.3356ZM29.3338 45.3356C29.3338 44.5995 29.9308 44.002 30.6668 44.002H33.3334C34.07 44.002 34.6669 44.5995 34.6669 45.3356V46.757C32.9604 46.8101 31.1697 46.8901 29.3338 46.9993V45.3356ZM10.6674 48.0021C10.6674 47.2661 11.2643 46.6692 12.001 46.6692H14.6675C15.4036 46.6692 16.0005 47.2661 16.0005 48.0021V48.3756C14.1341 48.6686 12.3367 49.0073 10.6674 49.3943V48.0021ZM40 49.3357C64.1552 49.3357 77.3323 53.7356 77.3323 56.0018V63.9044C76.6847 63.3166 75.837 62.998 74.963 63.0139C74.1049 63.0163 73.2705 63.2971 72.5857 63.8134C71.6251 62.1185 69.7977 61.1029 67.8514 61.1817C66.0283 61.1859 64.2913 61.958 63.0658 63.3087C61.9763 61.5308 60.0031 60.4895 57.9206 60.5939C55.8046 60.5933 53.7942 61.5192 52.4185 63.1268C51.2405 61.0871 49.0189 59.8798 46.6667 60.0019C43.9837 60.0037 41.4801 61.3507 40 63.5882C38.52 61.3507 36.0164 60.0037 33.3334 60.0019C30.9787 59.8792 28.7546 61.0889 27.5779 63.1323C26.2022 61.5241 24.1912 60.5988 22.0752 60.5994C19.9951 60.4956 18.0244 61.5338 16.9343 63.3087C15.7088 61.9611 13.9736 61.1914 12.153 61.1872C10.2048 61.1066 8.37561 62.1228 7.41433 63.8189C6.72954 63.302 5.89521 63.0212 5.03708 63.0188C4.16369 63.0023 3.31594 63.3184 2.66777 63.9044V56.0018C2.66777 53.7356 15.8449 49.3357 40 49.3357ZM4.00135 70.6681V67.1123C4.00135 66.8736 4.05017 65.6804 5.03708 65.6804C6.05634 65.8464 6.77043 66.7766 6.66789 67.8044V72.0017H5.33431C4.59825 72.0017 4.00135 71.4048 4.00135 70.6681ZM14.6675 74.6682H10.6674C9.93135 74.6682 9.33444 74.0713 9.33444 73.3346V66.6686C9.285 65.9081 9.56576 65.1629 10.1047 64.6239C10.6436 64.085 11.3882 63.8043 12.1487 63.8537C14.2751 63.8561 15.9987 65.5791 16.0005 67.7055V73.3346C16.0005 74.0713 15.4036 74.6682 14.6675 74.6682ZM25.3337 76.0012H20.0006C19.264 76.0012 18.667 75.4043 18.667 74.6682V66.6686C18.6225 65.7512 18.9673 64.8583 19.6161 64.2095C20.2655 63.5601 21.1584 63.2159 22.0752 63.2605C24.6105 63.2635 26.6649 65.3185 26.6673 67.8538V74.6682C26.6673 75.4043 26.0704 76.0012 25.3337 76.0012ZM37.3335 77.3348H30.6668C29.9308 77.3348 29.3338 76.7378 29.3338 76.0012V66.6686C29.2814 65.5925 29.6866 64.5446 30.4477 63.7829C31.2094 63.0212 32.2573 62.6166 33.3334 62.6684C36.2788 62.6684 38.6665 65.0561 38.6665 68.0015V76.0012C38.6665 76.7378 38.0695 77.3348 37.3335 77.3348ZM50.6662 76.0012C50.6662 76.7378 50.0693 77.3348 49.3333 77.3348H42.6666C41.9305 77.3348 41.333 76.7378 41.333 76.0012V68.0015C41.333 65.0561 43.7212 62.6684 46.6667 62.6684C47.7421 62.6166 48.7901 63.0212 49.5518 63.7829C50.3134 64.5446 50.7181 65.5925 50.6662 66.6686V76.0012ZM61.3324 74.6682C61.3324 75.4043 60.7355 76.0012 59.9994 76.0012H54.6663C53.9297 76.0012 53.3328 75.4043 53.3328 74.6682V67.8538C53.3352 65.3185 55.3896 63.2635 57.9249 63.2605C58.8416 63.2159 59.7346 63.5601 60.384 64.2095C61.0327 64.8583 61.3776 65.7512 61.3324 66.6686V74.6682ZM70.6656 73.3346C70.6656 74.0713 70.0687 74.6682 69.3327 74.6682H65.3325C64.5965 74.6682 63.9996 74.0713 63.9996 73.3346V67.7055C64.0014 65.5791 65.725 63.8561 67.8514 63.8537C68.6119 63.8043 69.3565 64.085 69.8954 64.6239C70.4343 65.1629 70.7151 65.9081 70.6656 66.6686V73.3346ZM75.9987 70.6681C75.9987 71.4048 75.4018 72.0017 74.6658 72.0017H73.3322V67.8044C73.2296 66.7766 73.9437 65.8464 74.963 65.6804C75.9499 65.6804 75.9987 66.8803 75.9987 67.1123V70.6681Z" fill="#00C8C8"/>
<path d="M79.4892 2.91001L79.9109 1.81568C80.1752 1.12783 79.8322 0.355762 79.1443 0.0914881C78.4565 -0.172786 77.6844 0.170221 77.4201 0.858067L77.0002 1.95301C73.4023 11.1947 64.5183 17.2962 54.601 17.3365H25.4014C15.4835 17.2974 6.59764 11.1959 2.99973 1.95301L2.57982 0.858067C2.31554 0.170221 1.54347 -0.172786 0.855626 0.0914881C0.16778 0.355762 -0.175228 1.12783 0.0890467 1.81568L0.510177 2.91001C4.50847 13.1789 14.3794 19.9578 25.399 20.003H54.5979C65.6187 19.9591 75.4909 13.1795 79.4892 2.91001Z" fill="#00C8C8"/>
<path d="M32.0003 38.6688C32.7364 38.6688 33.3333 38.0719 33.3333 37.3359V27.2214L35.0575 28.9456C35.5805 29.4504 36.4124 29.4436 36.9263 28.9291C37.4408 28.4146 37.4482 27.5833 36.9428 27.0603L32.9427 23.0602C32.9311 23.048 32.9146 23.0443 32.903 23.0333C32.7889 22.9216 32.6564 22.8319 32.5106 22.7666C32.5002 22.7666 32.4868 22.7666 32.4764 22.7587C32.3415 22.7086 32.1999 22.6805 32.0559 22.6763C32.0113 22.6763 31.9674 22.6793 31.9228 22.6842C31.8111 22.6909 31.7007 22.7123 31.5951 22.7483C31.5493 22.7611 31.5047 22.7764 31.4614 22.7947C31.3131 22.8581 31.1776 22.9491 31.0616 23.0614L27.0615 27.0615C26.5562 27.5846 26.5635 28.4158 27.078 28.9304C27.5919 29.4449 28.4238 29.4522 28.9468 28.9468L30.6668 27.2214V37.3359C30.6668 38.0719 31.2637 38.6688 32.0003 38.6688Z" fill="#00C8C8"/>
<path d="M47.9997 38.6688C48.7363 38.6688 49.3333 38.0719 49.3333 37.3359V27.2214L51.0568 28.9456C51.5799 29.4504 52.4118 29.4436 52.9263 28.9291C53.4402 28.4146 53.4475 27.5833 52.9422 27.0603L48.9426 23.0602C48.9304 23.048 48.9146 23.0443 48.9024 23.0333C48.7888 22.9216 48.6558 22.8319 48.5105 22.7666C48.4995 22.7666 48.4861 22.7666 48.4757 22.7587C48.3415 22.7086 48.1993 22.6805 48.0558 22.6763C48.0113 22.6763 47.9667 22.6793 47.9222 22.6842C47.8105 22.6909 47.7006 22.7123 47.5944 22.7483C47.5493 22.7611 47.5047 22.7764 47.4614 22.7947C47.3124 22.8581 47.1769 22.9491 47.061 23.0614L43.0615 27.0615C42.5561 27.5846 42.5634 28.4158 43.0773 28.9304C43.5918 29.4449 44.4231 29.4522 44.9468 28.9468L46.6667 27.2214V37.3359C46.6667 38.0719 47.2636 38.6688 47.9997 38.6688Z" fill="#00C8C8"/>
<path d="M66.6661 41.3354C67.4022 41.3354 67.9991 40.7385 67.9991 40.0024V29.888L69.7233 31.6122C70.2463 32.1169 71.0776 32.1102 71.5921 31.5957C72.1066 31.0812 72.1139 30.2499 71.6086 29.7269L67.6085 25.7267C67.5963 25.7145 67.5804 25.7109 67.5688 25.6999C67.4547 25.5888 67.3222 25.4985 67.1763 25.4332C67.1647 25.4332 67.1525 25.4332 67.1403 25.4252C67.0061 25.3758 66.8651 25.3477 66.7216 25.3428C66.6771 25.3428 66.6325 25.3459 66.5886 25.3508C66.4763 25.3575 66.3658 25.3788 66.259 25.4149C66.2151 25.4295 66.1723 25.4417 66.126 25.46C65.9777 25.5241 65.8422 25.6144 65.7262 25.7267L61.7261 29.7269C61.2207 30.2499 61.228 31.0812 61.7425 31.5957C62.2564 32.1102 63.0883 32.1169 63.6114 31.6122L65.3325 29.888V40.0024C65.3325 40.7385 65.9294 41.3354 66.6661 41.3354Z" fill="#00C8C8"/>
<path d="M12.0009 41.3354C12.737 41.3354 13.3339 40.7385 13.3339 40.0024V29.888L15.0581 31.6122C15.5812 32.1169 16.413 32.1102 16.9269 31.5957C17.4415 31.0812 17.4488 30.2499 16.9434 29.7269L12.9433 25.7267C12.9317 25.7145 12.9152 25.7109 12.9036 25.6999C12.7895 25.5888 12.6571 25.4985 12.5112 25.4332C12.5008 25.4332 12.4874 25.4332 12.4752 25.4252C12.3415 25.3752 12.1999 25.3477 12.0565 25.344C12.0125 25.3434 11.968 25.3453 11.9234 25.3508C11.8111 25.3575 11.7007 25.3788 11.5939 25.4148C11.3937 25.4728 11.2106 25.579 11.061 25.7243L7.06091 29.7238C6.55555 30.2469 6.56288 31.0787 7.07739 31.5933C7.59129 32.1072 8.42317 32.1145 8.94623 31.6091L10.6674 29.888V40.0024C10.6674 40.7385 11.2643 41.3354 12.0009 41.3354Z" fill="#00C8C8"/>
</g>
<defs>
<clipPath id="clip0_675:3465">
<rect width="80" height="80" fill="white"/>
</clipPath>
</defs>
</svg>
