<svg width="80" height="80" viewBox="0 0 80 80" fill="none" xmlns="http://www.w3.org/2000/svg">
<g clip-path="url(#clip0_675:3449)">
<path d="M8.55891 40.5926C11.2033 42.8748 16.527 45.8375 26.8795 47.2214L28.8615 56.8569L26.7716 57.5405C25.3715 57.9499 24.3058 59.0894 23.9907 60.5137C23.6749 61.9373 24.16 63.4205 25.2555 64.3826C26.3516 65.3454 27.8844 65.635 29.256 65.1382L30.4972 64.7381L31.0741 67.5283L29.2082 68.1356C27.1779 68.8713 26.0979 71.0858 26.7691 73.1385C27.4403 75.1911 29.6201 76.34 31.6926 75.7333L32.8842 75.3443C34.2806 78.4633 37.5298 80.3249 40.9273 79.9527C44.3242 79.5811 47.0934 77.0602 47.7819 73.7129L48.5058 70.2366L51.8674 69.138C53.7941 68.5177 54.951 66.5537 54.5602 64.5681C54.1688 62.5824 52.3537 61.2041 50.3358 61.3604L51.0274 58.0206L54.6359 56.8407C56.58 56.1863 57.7133 54.1665 57.2592 52.166C56.8051 50.1661 54.9113 48.8336 52.8748 49.0817L53.2575 47.2158C63.6101 45.8325 68.9337 42.8692 71.5781 40.5877C73.2555 39.1256 74.4173 37.1629 74.8931 34.9892C77.1926 24.922 76.2752 11.6223 70.0707 5.68148C62.3775 -1.70408 48.6473 -1.87777 40.0713 5.09341C31.4929 -1.87777 17.7651 -1.70408 10.0663 5.69079C3.86183 11.6316 2.94437 24.9313 5.24391 34.9986C5.72032 37.1703 6.8828 39.1318 8.55891 40.5926ZM29.6666 47.5371C32.8563 47.8461 36.3314 48.0129 40.0713 48.0129C43.8112 48.0129 47.2875 47.8461 50.4772 47.5371L49.9828 49.9539L31.4073 56.0238L29.6666 47.5371ZM45.1778 73.1757C44.6716 75.5943 42.542 77.3294 40.0713 77.3368C38.1229 77.3374 36.3388 76.2444 35.4542 74.5081L45.5841 71.1962L45.1778 73.1757ZM51.2328 64.1531C51.7135 64.3969 51.9995 64.9068 51.9579 65.444C51.917 65.9812 51.556 66.4408 51.0436 66.6083L33.4066 72.3755L30.8744 73.2048C30.4178 73.3686 29.9079 73.2712 29.5438 72.9511C29.1797 72.6304 29.0184 72.1373 29.1226 71.664C29.2268 71.19 29.5804 70.8104 30.045 70.6721L50.2161 64.0743C50.3501 64.0309 50.4902 64.0079 50.6317 64.0079C50.8407 64.0086 51.0467 64.0582 51.2328 64.1531ZM47.4513 62.1736L33.6237 66.6921L33.0468 63.9037L48.1088 58.979L47.4513 62.1736ZM53.4002 51.7107C53.8636 51.71 54.2941 51.9507 54.5366 52.3459C54.7792 52.741 54.799 53.2336 54.5893 53.6473C54.4312 53.9643 54.152 54.2044 53.8146 54.3135L28.4285 62.6085C27.738 62.8089 27.0129 62.4261 26.7896 61.7425C26.5663 61.0589 26.9248 60.3214 27.6003 60.0757L52.9846 51.7783C53.1185 51.7342 53.2587 51.7113 53.4002 51.7107ZM11.9111 7.61379C15.545 4.34903 20.2905 2.59724 25.1749 2.7182C30.3105 2.645 35.2936 4.46689 39.17 7.83648C39.7463 8.39229 47.718 16.0235 54.7332 16.0235C55.469 16.0235 56.0657 15.4268 56.0657 14.6904C56.0657 13.9541 55.469 13.3574 54.7332 13.3574C50.0504 13.3574 44.4353 8.92949 42.1078 6.90228C49.6187 1.12273 61.6747 1.32433 68.2327 7.61379C73.6618 12.8127 74.3801 25.2961 72.2995 34.4055C71.9484 36.0227 71.0868 37.4842 69.8418 38.5747C67.3971 40.6832 62.3148 43.4598 51.9889 44.706C48.0325 45.1545 44.0532 45.3685 40.0713 45.3474C36.0901 45.3672 32.1107 45.1526 28.1549 44.7035C17.8278 43.4598 12.7467 40.6819 10.3008 38.5747C9.05579 37.4842 8.19416 36.0227 7.84306 34.4055C5.7625 25.2979 6.48207 12.814 11.9111 7.61379Z" fill="#00C8C8"/>
<path d="M11.7499 27.909C12.1655 27.9096 12.5576 27.7161 12.81 27.3861C13.0625 27.0554 13.1469 26.6268 13.0371 26.2254C10.0608 15.3146 17.0121 11.7167 17.3322 11.5585C17.973 11.226 18.2329 10.4444 17.919 9.79494C17.6045 9.14484 16.8304 8.86322 16.1722 9.15911C16.0792 9.20315 6.88224 13.7898 10.4646 26.9264C10.6228 27.5064 11.1488 27.9084 11.7499 27.909Z" fill="#00C8C8"/>
<path d="M22.7432 8.02575C22.7432 8.76207 22.1465 9.35883 21.4108 9.35883C20.6744 9.35883 20.0777 8.76207 20.0777 8.02575C20.0777 7.29005 20.6744 6.6933 21.4108 6.6933C22.1465 6.6933 22.7432 7.29005 22.7432 8.02575Z" fill="#00C8C8"/>
</g>
<defs>
<clipPath id="clip0_675:3449">
<rect width="80" height="80" fill="white"/>
</clipPath>
</defs>
</svg>
