<svg width="80" height="80" viewBox="0 0 80 80" fill="none" xmlns="http://www.w3.org/2000/svg">
<path d="M72.8003 19.8627C50.9949 17.5458 29.0051 17.5458 7.19971 19.8627C3.1134 20.2795 0.00427247 23.7189 0 27.8265V53.396C0.0109863 56.6345 2.64404 59.2517 5.88257 59.2426H15.4504C16.7395 59.2383 17.9901 58.8086 19.0094 58.02C19.8151 60.3333 21.9946 61.8842 24.444 61.8878H35.556C37.2797 61.8829 38.9105 61.1053 40 59.7693C41.0895 61.1053 42.7203 61.8829 44.444 61.8878H55.556C58.0048 61.8848 60.1843 60.3339 60.9906 58.0212C62.0099 58.8098 63.2611 59.2395 64.5496 59.2438H74.1174C77.3566 59.2529 79.9896 56.6351 80 53.396V27.8265C79.9957 23.7189 76.8866 20.2795 72.8003 19.8627ZM58.6664 41.864V45.4211C57.4017 45.4907 56.0687 45.5536 54.6667 45.6091V43.2214C54.6667 41.7487 53.4729 40.5548 52.0001 40.5548H47.9999C46.5271 40.5548 45.3333 41.7487 45.3333 43.2214V45.8533C44.0442 45.8691 42.7081 45.8801 41.3336 45.8838V42.2443C41.3641 36.8713 45.7379 32.5366 51.1108 32.5549C57.0758 32.5549 58.6664 37.3895 58.6664 40.2466V41.864ZM70.1093 33.1677H70.376C72.2125 33.0334 74.0198 33.6853 75.3467 34.9615C76.6742 36.2384 77.3962 38.0182 77.3334 39.8584V43.4717C76.731 43.5883 75.8496 43.7384 74.6667 43.9215V41.8878C74.6667 40.415 73.4729 39.2212 72.0001 39.2212H67.9999C66.5271 39.2212 65.3333 40.415 65.3333 41.8878V44.9695C64.0967 45.0726 62.7637 45.1709 61.3336 45.2643V41.864C61.3611 37.0416 65.2869 33.1519 70.1093 33.1677ZM72.0001 49.8877H67.9999V47.4213C69.4958 47.2772 70.8295 47.1326 72.0001 46.9879V49.8877ZM67.9999 44.7278V41.8878H72.0001V44.2877C70.8386 44.4305 69.5105 44.5813 67.9999 44.7278ZM52.0001 51.2213H47.9999V48.4772C49.3842 48.4509 50.7214 48.4174 52.0001 48.3771V51.2213ZM47.9999 45.8081V43.2214H52.0001V45.7056C50.7214 45.7465 49.3854 45.78 47.9999 45.8081ZM38.6664 45.8881C37.2919 45.8881 35.9558 45.8734 34.6667 45.8575V43.2214C34.6667 41.7487 33.4729 40.5548 32.0001 40.5548H27.9999C26.5271 40.5548 25.3333 41.7487 25.3333 43.2214V45.6091C23.9325 45.5536 22.5989 45.4907 21.3336 45.4211V40.2466C21.3336 37.3895 22.9242 32.5549 28.8892 32.5549C34.2621 32.5366 38.6359 36.8713 38.6664 42.2443V45.8881ZM32.0001 51.2213H27.9999V48.3771C29.2798 48.4174 30.6171 48.4509 32.0001 48.4772V51.2213ZM27.9999 45.7056V43.2214H32.0001V45.8081C30.6158 45.78 29.2798 45.7465 27.9999 45.7056ZM18.6664 45.2643C17.2345 45.1709 15.9015 45.0726 14.6667 44.9695V41.8878C14.6667 40.415 13.4729 39.2212 12.0001 39.2212H7.99988C6.5271 39.2212 5.33325 40.415 5.33325 41.8878V43.9215C4.15039 43.7427 3.26904 43.5883 2.66663 43.4717V39.8584C2.60376 38.0176 3.32642 36.236 4.65515 34.9597C5.98328 33.6829 7.79175 33.0316 9.62952 33.1677H9.89624C14.7162 33.1549 18.6389 37.0435 18.6664 41.864V45.2643ZM12.0001 49.8877H7.99988V46.9879C9.16992 47.1301 10.5029 47.2748 12.0001 47.4213V49.8877ZM7.99988 44.2877V41.8878H12.0001V44.7278C10.4895 44.5813 9.16138 44.4305 7.99988 44.2877ZM15.4504 56.5784H5.88257C4.1156 56.5875 2.67639 55.163 2.66663 53.396V46.1957C3.33313 46.3214 4.21875 46.4709 5.33325 46.6345V49.8877C5.33325 51.3605 6.5271 52.5549 7.99988 52.5549H12.0001C13.4729 52.5549 14.6667 51.3605 14.6667 49.8877V47.6575C15.9082 47.7576 17.2345 47.8558 18.6664 47.9468V53.396C18.6554 55.1617 17.2162 56.5851 15.4504 56.5759V56.5784ZM35.556 59.2212H24.444C22.7362 59.2285 21.3452 57.8528 21.3336 56.145V48.1C22.6001 48.1665 23.9331 48.2281 25.3333 48.2837V51.2213C25.3333 52.6941 26.5271 53.8879 27.9999 53.8879H32.0001C33.4729 53.8879 34.6667 52.6941 34.6667 51.2213V48.5211C35.9546 48.5376 37.2931 48.5468 38.6664 48.5504V56.1505C38.6517 57.8558 37.2614 59.2285 35.556 59.2212ZM58.6664 56.145C58.6548 57.8528 57.2638 59.2285 55.556 59.2212H44.444C42.7362 59.2285 41.3452 57.8528 41.3336 56.145V48.5547C42.7069 48.5547 44.0454 48.5413 45.3333 48.5254V51.2213C45.3333 52.6941 46.5271 53.8879 47.9999 53.8879H52.0001C53.4729 53.8879 54.6667 52.6941 54.6667 51.2213V48.288C56.0687 48.2336 57.4017 48.1726 58.6664 48.1042V56.1493V56.145ZM74.1174 56.5759H64.5496C62.7838 56.5851 61.3446 55.1617 61.3336 53.396V47.9468C62.7655 47.8558 64.0918 47.7576 65.3333 47.6575V49.8877C65.3333 51.3605 66.5271 52.5549 67.9999 52.5549H72.0001C73.4729 52.5549 74.6667 51.3605 74.6667 49.8877V46.629C75.7812 46.4655 76.6669 46.3159 77.3334 46.1908V53.3905C77.3297 54.2395 76.9885 55.0519 76.3855 55.6494C75.7819 56.2469 74.9664 56.5802 74.1174 56.5759ZM70.3693 30.5011H70.1025C66.1859 30.5011 62.5403 32.5024 60.4388 35.8081C58.9008 32.0526 55.1581 29.6783 51.1053 29.8877C46.4142 29.8901 42.1222 32.5269 40 36.7108C37.8772 32.5256 33.5822 29.8883 28.8892 29.8877C24.8364 29.6783 21.0938 32.0526 19.5563 35.8081C17.4542 32.5024 13.8092 30.5011 9.89197 30.5011H9.62524C7.04102 30.3986 4.52698 31.3568 2.66663 33.1531V27.8198C2.677 25.0787 4.75647 22.7887 7.48413 22.5146C10.5414 22.1893 13.6066 21.9214 16.6748 21.6882C16.8719 21.8134 17.0996 21.8823 17.3334 21.8878C17.912 21.8878 18.6664 24.4745 18.6664 27.2211C18.6664 27.9578 19.2639 28.5547 20 28.5547C20.7361 28.5547 21.3336 27.9578 21.3336 27.2211C21.3605 25.2484 21.0071 23.2886 20.2917 21.4496C26.4087 21.0565 32.5336 20.8429 38.6664 20.8093V28.5547C38.6664 29.2908 39.2639 29.8877 40 29.8877C40.7361 29.8877 41.3336 29.2908 41.3336 28.5547V20.8093C47.4664 20.8362 53.5913 21.0492 59.7083 21.4496C58.9935 23.2886 58.6395 25.2484 58.6664 27.2211C58.6664 27.9578 59.2639 28.5547 60 28.5547C60.7361 28.5547 61.3336 27.9578 61.3336 27.2211C61.3336 24.4745 62.088 21.8878 62.6666 21.8878C62.9004 21.8823 63.1274 21.8134 63.3252 21.6895C66.3922 21.9226 69.4586 22.1893 72.5171 22.5146C75.2466 22.7893 77.3267 25.0836 77.3334 27.8265V33.1598C75.4724 31.3599 72.9565 30.3992 70.3693 30.5011Z" fill="#00C8C8"/>
</svg>
