<svg width="80" height="80" viewBox="0 0 80 80" fill="none" xmlns="http://www.w3.org/2000/svg">
<g clip-path="url(#clip0_675:2284)">
<path d="M78.6664 60.0518H74.4482C74.6332 59.7094 74.8212 59.3682 75.0146 59.0332C75.5432 58.1732 75.9985 57.2705 76.3745 56.3336C77.6837 52.8387 78.0145 48.0334 75.0146 45.028C71.9617 42.2314 67.3682 41.9537 64.0002 44.3615C60.6317 41.9549 56.0388 42.2332 52.9852 45.028C52.6141 45.4009 52.2839 45.8129 52.0001 46.2561C51.7163 45.8129 51.3861 45.4016 51.0144 45.0292C47.9614 42.2332 43.3679 41.9549 40 44.3627C36.6315 41.9567 32.0392 42.2344 28.9856 45.0292C28.6145 45.4028 28.2837 45.8142 27.9999 46.2573C27.7167 45.8142 27.3859 45.4034 27.0148 45.0305C23.9618 42.2344 19.3683 41.9561 15.9998 44.364C12.6318 41.958 8.03894 42.2357 4.98535 45.0305C1.98547 48.0377 2.31873 52.843 3.62549 56.3372C4.00146 57.2741 4.45679 58.1774 4.98535 59.0374C5.17883 59.3719 5.36682 59.7131 5.55176 60.0561H1.33362C0.596924 60.0561 0 60.653 0 61.3891C0 62.1258 0.596924 62.7227 1.33362 62.7227H6.66687C6.8158 63.2281 6.92139 63.7457 6.98242 64.2694C7.13196 65.9851 7.40906 67.6873 7.81189 69.3615C8.14148 70.6652 8.84277 73.3856 11.3336 73.3856C12.7692 73.3856 14.3811 72.2973 15.4572 64.2266C15.5908 63.2641 15.8295 62.9931 16.004 62.9107C16.1786 62.9931 16.4215 63.2629 16.5509 64.2242C17.6227 72.2973 19.2346 73.3856 20.6665 73.3856C23.1531 73.3856 23.8544 70.6652 24.1895 69.3682C24.5929 67.6892 24.8706 65.9826 25.0201 64.2626C25.0824 63.7396 25.1898 63.2232 25.34 62.7185H30.6665C30.816 63.2244 30.9216 63.742 30.9827 64.2651C31.1316 65.9808 31.4087 67.6831 31.8121 69.3573C32.1411 70.6652 32.8424 73.3856 35.3333 73.3856C36.7694 73.3856 38.3813 72.2973 39.4574 64.2266C39.5905 63.2641 39.8291 62.9931 40.0043 62.9107C40.1788 62.9931 40.4211 63.2629 40.5505 64.2242C41.6229 72.2973 43.2349 73.3856 44.6667 73.3856C47.1533 73.3856 47.8546 70.6652 48.1891 69.3682C48.5931 67.6892 48.8708 65.9826 49.0198 64.2626C49.0826 63.7396 49.1895 63.2232 49.3402 62.7185H54.6667C54.8157 63.2244 54.9219 63.742 54.9829 64.2651C55.1318 65.9808 55.4089 67.6831 55.8118 69.3573C56.1414 70.6652 56.8427 73.3856 59.3335 73.3856C60.769 73.3856 62.3816 72.2973 63.457 64.2266C63.5907 63.2641 63.8293 62.9931 64.0039 62.9107C64.1785 62.9931 64.4214 63.2629 64.5508 64.2242C65.6226 72.2973 67.2345 73.3856 68.6664 73.3856C71.1536 73.3856 71.8549 70.6652 72.1893 69.3682C72.5928 67.6892 72.8705 65.9826 73.02 64.2626C73.0823 63.7396 73.1897 63.2232 73.3398 62.7185H78.6664C79.4031 62.7185 80 62.1215 80 61.3855C80 60.6488 79.4031 60.0518 78.6664 60.0518ZM52.0001 57.1612C52.3077 57.8173 52.6428 58.4429 52.9852 59.0283C53.1787 59.3627 53.3667 59.7039 53.5522 60.0469H50.448C50.6335 59.7039 50.8215 59.3627 51.0144 59.0283C51.3562 58.4429 51.6907 57.8173 52.0001 57.1612ZM27.9999 57.1612C28.3081 57.8173 28.6426 58.4429 28.9856 59.0283C29.1785 59.3627 29.3665 59.7039 29.552 60.0469H26.4478C26.6333 59.7039 26.8213 59.3627 27.0148 59.0283C27.356 58.4429 27.6904 57.8173 27.9999 57.1612ZM22.3718 63.9758C22.2394 65.5651 21.9855 67.1417 21.6119 68.692C21.5027 69.3835 21.2433 70.0433 20.8521 70.6243C19.92 68.4826 19.3579 66.1987 19.1907 63.8696C18.8159 61.1041 17.3358 60.3601 16.1584 60.2227C16.106 60.2246 16.0535 60.2288 16.0016 60.2362C15.9485 60.2282 15.8948 60.224 15.8411 60.2227C14.6637 60.3558 13.1842 61.1041 12.8094 63.872C12.6416 66.2005 12.0801 68.4838 11.1481 70.6243C10.7562 70.0396 10.4962 69.3774 10.3851 68.6828C10.0134 67.1356 9.76013 65.5627 9.6283 63.9776C9.50745 62.9534 9.26025 61.9488 8.89343 60.9857C8.87573 60.921 8.85254 60.8581 8.82507 60.7977C8.61145 60.2331 8.36853 59.6807 8.0957 59.1424C7.84424 58.648 7.56287 58.1707 7.29614 57.6947C6.84326 56.9616 6.45142 56.1926 6.12549 55.3948C5.1532 52.8015 4.76685 49.0216 6.87622 46.9067C9.2334 44.8339 12.7747 44.8754 15.0824 47.0025C15.0958 47.0147 15.1135 47.019 15.127 47.0306C15.1398 47.0428 15.1465 47.0611 15.1611 47.0733C16.6321 48.2733 17.7783 49.8236 18.4949 51.5814C18.6932 52.2906 19.4293 52.7044 20.1385 52.5054C20.8478 52.3065 21.2616 51.5704 21.0626 50.8612C20.4565 49.0875 19.4391 47.481 18.0945 46.1749C20.3558 44.8864 23.186 45.1812 25.1331 46.9079C27.2424 49.0216 26.8561 52.8015 25.8838 55.3936C25.5579 56.1914 25.1666 56.961 24.7131 57.6947C24.4373 58.1707 24.1626 58.648 23.9136 59.1424C23.6414 59.6813 23.3978 60.2343 23.1842 60.7989C23.1561 60.8593 23.1335 60.9216 23.1158 60.9857C22.746 61.9476 22.4957 62.9522 22.3718 63.9758ZM46.3721 63.9758C46.2396 65.5651 45.9857 67.1417 45.6122 68.692C45.5023 69.3835 45.2429 70.0433 44.8523 70.6243C43.9197 68.4826 43.3582 66.1987 43.1909 63.8696C42.8162 61.1041 41.3361 60.3601 40.1587 60.2227C40.1062 60.224 40.0537 60.2282 40.0012 60.2362C39.9481 60.2282 39.895 60.224 39.8413 60.2227C38.6639 60.3558 37.1838 61.1041 36.8091 63.872C36.6418 66.2005 36.0803 68.4838 35.1477 70.6243C34.7559 70.0396 34.4958 69.3774 34.3854 68.6828C34.0137 67.1356 33.7604 65.5627 33.6279 63.9776C33.5071 62.9534 33.2605 61.9488 32.8931 60.9857C32.8754 60.921 32.8528 60.8581 32.8253 60.7977C32.6117 60.2331 32.3682 59.6807 32.0959 59.1424C31.8439 58.648 31.5692 58.1707 31.2958 57.6947C30.8429 56.9616 30.4517 56.1926 30.1251 55.3948C29.1534 52.8015 28.7665 49.0216 30.8759 46.9067C33.233 44.8339 36.7749 44.8754 39.0826 47.0025C39.0961 47.0147 39.1132 47.019 39.1266 47.0306C39.14 47.0428 39.1467 47.0611 39.1614 47.0733C40.6323 48.2733 41.778 49.8236 42.4945 51.5814C42.6233 52.0404 42.9871 52.3956 43.4485 52.5134C43.9099 52.6312 44.3994 52.4938 44.7327 52.1533C45.0653 51.8127 45.191 51.3201 45.0629 50.8612C44.4562 49.0875 43.4393 47.481 42.0947 46.1749C44.3561 44.8864 47.1863 45.1812 49.1333 46.9079C51.2427 49.0216 50.8557 52.8015 49.884 55.3936C49.5581 56.1914 49.1663 56.961 48.7134 57.6947C48.4375 58.1707 48.1628 58.648 47.9132 59.1424C47.641 59.6813 47.3975 60.2343 47.1838 60.7989C47.1564 60.8593 47.1338 60.9216 47.1161 60.9857C46.7456 61.9476 46.496 62.9522 46.3721 63.9758ZM70.3717 63.9758C70.2399 65.5651 69.9854 67.1417 69.6118 68.692C69.5026 69.3835 69.2432 70.0433 68.8519 70.6243C67.9199 68.4826 67.3584 66.1987 67.1906 63.8696C66.8158 61.1041 65.3363 60.3601 64.1589 60.2227C64.1058 60.2246 64.0533 60.2288 64.0015 60.2362C63.9484 60.2282 63.8947 60.224 63.8416 60.2227C62.6642 60.3558 61.1841 61.1041 60.8093 63.872C60.6421 66.2005 60.08 68.4838 59.1479 70.6243C58.7561 70.0396 58.4961 69.3774 58.3856 68.6828C58.0133 67.1356 57.76 65.5627 57.6282 63.9776C57.5073 62.9534 57.2601 61.9488 56.8933 60.9857C56.8756 60.921 56.853 60.8581 56.8256 60.7977C56.6119 60.2331 56.3684 59.6807 56.0962 59.1424C55.8441 58.648 55.5627 58.1707 55.296 57.6947C54.8431 56.9616 54.4513 56.1926 54.1254 55.3948C53.1531 52.8015 52.7667 49.0216 54.8761 46.9067C57.2333 44.8339 60.7745 44.8754 63.0829 47.0025C63.0957 47.0147 63.1134 47.019 63.1268 47.0306C63.1403 47.0428 63.1464 47.0611 63.1616 47.0733C64.632 48.2733 65.7782 49.8236 66.4948 51.5814C66.6937 52.2906 67.4298 52.7044 68.1384 52.5054C68.8477 52.3065 69.2615 51.5704 69.0625 50.8612C68.4564 49.0875 67.4396 47.481 66.095 46.1749C68.3557 44.8864 71.1865 45.1812 73.1335 46.9079C75.2429 49.0216 74.856 52.8015 73.8843 55.3936C73.5577 56.1914 73.1665 56.961 72.7136 57.6947C72.4371 58.1707 72.1625 58.648 71.9135 59.1424C71.6412 59.6813 71.3977 60.2343 71.1841 60.7989C71.1566 60.8593 71.1334 60.9216 71.1157 60.9857C70.7458 61.9476 70.4956 62.9522 70.3717 63.9758Z" fill="#00C8C8"/>
<path d="M74.9829 17.6055C77.807 17.4346 80.0079 15.0897 80 12.2601C79.9988 10.8001 79.3994 9.40424 78.3411 8.39838C77.2827 7.39252 75.8581 6.86456 74.4 6.93719L27.2894 9.367C24.4965 7.64459 21.2811 6.72784 17.9999 6.71869C10.5536 6.76569 3.89465 11.3659 1.21521 18.3135C-1.46485 25.2612 0.380856 33.1408 5.86669 38.1762C6.54052 38.778 7.52075 38.8903 8.31359 38.4557C9.13024 38.02 9.5819 37.1136 9.43725 36.1987C9.30297 35.335 9.30786 34.4555 9.45068 33.5931C10.1276 29.8681 13.2306 27.0672 17.0056 26.7748C17.6727 26.6876 18.3484 26.6876 19.0161 26.7748C22.7814 27.0727 25.874 29.8681 26.5509 33.5839C26.6949 34.4488 26.6998 35.3307 26.5655 36.1974C26.4209 37.1124 26.8719 38.0187 27.6892 38.4545C28.4888 38.8922 29.4775 38.7737 30.1507 38.1597C31.6278 36.7999 32.8668 35.202 33.8159 33.4319L74.3597 35.8013C74.4629 35.8013 74.5654 35.8093 74.6667 35.8093C77.5122 35.7598 79.8175 33.485 79.9048 30.6402C79.9921 27.796 77.8302 25.3839 74.9933 25.1599L35.8667 22.7905C35.7556 21.8292 35.5664 20.8776 35.3015 19.9468L74.9829 17.6055ZM74.5319 9.60565C75.2606 9.57513 75.9705 9.8382 76.5039 10.3344C77.2736 11.0693 77.536 12.1893 77.1728 13.1896C76.8091 14.1894 75.8887 14.8797 74.8267 14.9481L34.3469 17.3333C33.418 15.2911 32.1197 13.4374 30.5176 11.867L74.5319 9.60565ZM29.3237 35.2203C29.3408 34.5367 29.2963 33.8531 29.1907 33.1774C28.3411 28.2726 24.2926 24.5568 19.3335 24.1296C18.4509 24.0283 17.5598 24.0283 16.6772 24.1296C11.7126 24.5574 7.66052 28.2781 6.81091 33.1878C6.70471 33.8598 6.66015 34.5403 6.67724 35.2203C1.08947 29.0997 1.37634 19.6472 7.32482 13.8763C13.2727 8.10602 22.7301 8.10602 28.678 13.8763C34.6265 19.6472 34.9127 29.0997 29.3256 35.2203H29.3237ZM77.3334 30.4815C77.3321 31.2145 77.0294 31.9146 76.4966 32.4175C75.9631 32.9205 75.2466 33.1817 74.5148 33.1402L34.9652 30.8282C35.5713 29.1027 35.9094 27.2955 35.9692 25.4681L74.8309 27.8228C76.236 27.9095 77.3315 29.0734 77.3334 30.4815Z" fill="#00C8C8"/>
<path d="M17.9999 10.7191C14.6863 10.7191 12.0001 13.4052 12.0001 16.7188C12.0001 20.0324 14.6863 22.7186 17.9999 22.7186C21.3135 22.7186 24.0002 20.0324 24.0002 16.7188C23.9966 13.4064 21.3123 10.7227 17.9999 10.7191ZM17.9999 13.3857C18.4155 13.3875 18.8263 13.4675 19.212 13.6213L14.903 17.931C14.7485 17.5452 14.6686 17.1339 14.6667 16.7188C14.6667 14.878 16.1591 13.3857 17.9999 13.3857ZM17.9999 20.0519C17.5848 20.0501 17.1735 19.9702 16.7877 19.8163L21.0974 15.5067C21.2512 15.8924 21.3318 16.3038 21.3336 16.7188C21.3336 17.6026 20.9821 18.451 20.3571 19.076C19.7321 19.701 18.8843 20.0519 17.9999 20.0519Z" fill="#00C8C8"/>
<path d="M12.0001 49.3854C9.79065 49.3854 7.99988 51.1761 7.99988 53.3856C7.99988 55.5945 9.79065 57.3853 12.0001 57.3853C14.209 57.3853 15.9998 55.5945 15.9998 53.3856C15.9998 51.1761 14.209 49.3854 12.0001 49.3854ZM12.0001 54.7186C11.2634 54.7186 10.6665 54.1217 10.6665 53.3856C10.6665 52.6489 11.2634 52.052 12.0001 52.052C12.7362 52.052 13.3331 52.6489 13.3331 53.3856C13.3331 54.1217 12.7362 54.7186 12.0001 54.7186Z" fill="#00C8C8"/>
</g>
<defs>
<clipPath id="clip0_675:2284">
<rect width="80" height="80" fill="white"/>
</clipPath>
</defs>
</svg>
